<?xml version="1.0" encoding="utf-8"?>
<!-- Generator: Adobe Illustrator 26.0.0, SVG Export Plug-In . SVG Version: 6.00 Build 0)  -->
<svg version="1.1" xmlns="http://www.w3.org/2000/svg" xmlns:xlink="http://www.w3.org/1999/xlink" x="0px" y="0px"
	 viewBox="0 0 300 300" style="enable-background:new 0 0 300 300;" xml:space="preserve">
<style type="text/css">
	.st0{fill:#010101;}
	.st1{fill:#030303;}
	.st2{fill:#060606;}
	.st3{fill:#050505;}
	.st4{fill:#0A0A0A;}
	.st5{fill:#090909;}
	.st6{fill:#0C0C0C;}
	.st7{fill:#080808;}
	.st8{fill:#0D0D0D;}
	.st9{fill:#040404;}
	.st10{fill:#070707;}
	.st11{fill:#EDEDED;}
	.st12{fill:#191919;}
	.st13{fill:#0F0F0F;}
	.st14{fill:#141414;}
	.st15{fill:#F3F3F3;}
	.st16{fill:#F1F1F1;}
	.st17{fill:#111111;}
	.st18{fill:#F4F4F4;}
	.st19{fill:#F5F5F5;}
	.st20{fill:#171717;}
	.st21{fill:#F9F9F9;}
	.st22{fill:#F0F0F0;}
	.st23{fill:#ECECEC;}
	.st24{fill:#0B0B0B;}
	.st25{fill:#101010;}
	.st26{fill:#EBEBEB;}
	.st27{fill:#282828;}
	.st28{fill:#0E0E0E;}
	.st29{fill:#202020;}
	.st30{fill:#020202;}
	.st31{fill:#121212;}
	.st32{fill:#1C1C1C;}
	.st33{fill:#131313;}
	.st34{fill:#F7F7F7;}
	.st35{fill:#F8F8F8;}
	.st36{fill:#222222;}
	.st37{fill:#F6F6F6;}
	.st38{fill:#EFEFEF;}
	.st39{fill:#FEFEFE;}
	.st40{fill:#1F1F1F;}
	.st41{fill:#FDFDFD;}
</style>
<g id="Capa_3">
</g>
<g id="Capa_2">
	<g>
		<path class="st0" d="M129.65,52.38c6-0.45,11.97-0.12,17.94,0.49c1.01,0.17,2.05,0.13,3.01,0.56c0.18,0.04,0.37,0.09,0.55,0.13
			c0.5-0.01,0.87,0.24,1.14,0.64c-0.24,2.4-2.01,1.16-3.18,1.34c-0.81-0.85-1.68-0.76-2.53-0.14c0.63-0.37,1.32-0.67,2.07-0.26
			c2.07,1.72,3.54,0.06,5.14-0.94c2.39-0.38,4.43,0.45,6.34,1.77c1.24,3.2,1.24,3.2,4.36,1.77c1.72,0.21,3.2,1.04,4.71,1.8
			c1.29,0.73,2.29,1.87,3.66,2.49c0.95,0.72,1.98,1.29,3.11,1.67c0.35,0.18,0.76,0.28,0.98,0.65c0.44,0.61,1,1.03,1.76,1.13
			c0.51,0.2,0.9,0.52,1.07,1.06c0.55,1.41,2.15,1.23,3.11,2.03c0.34,0.2,0.65,0.45,0.93,0.71c0.62,0.64,1.31,1.21,2.03,1.74
			c0.2,0.17,0.36,0.38,0.51,0.59c1.49,1.69,3.84,2.53,4.69,4.84c0.22,3.4,1.67,6.08,4.55,7.96c0.58,1.13,0.72,2.11-0.99,2.08
			c-0.88-0.02-1.71,0.23-2.56,0.27c-1.7-1.34-4.43-0.89-5.6-3.18c0.03-1.76-0.56-2.33-2.1-1.11c-0.7,0.16-1.35-0.05-2-0.25
			c-0.39-0.13-0.75-0.32-1.09-0.55c-0.22-0.15-0.43-0.32-0.62-0.5c-0.89-0.96-2.05-1.58-3.03-2.44c-0.2-0.16-0.39-0.33-0.58-0.51
			c-0.65-0.62-1.44-1.05-2.25-1.43c-1.37-0.56-2.19-1.84-3.4-2.6c-0.95-0.73-2.01-1.33-2.74-2.32c-0.89-0.97-1.53-2.25-3.07-2.35
			c-0.24-0.07-0.45-0.18-0.65-0.33c-0.25-0.45-0.72-0.51-1.17-0.6c-0.22-0.14-0.4-0.33-0.55-0.54c-0.45-0.49,0.1-2.05-1.71-1.03
			c-1.38,0.77-2.69-0.78-3.71-1.9c-1.29-1.46-3.12-2.17-4.84-1.9c-4.74,0.75-9.21-1.27-13.89-1c-3.42,0.2-6.88-0.17-10.21,0.97
			c-0.48,0.13-0.95,0.27-1.43,0.4c-2.22,0.61-4.85-0.06-6.51,2.4c-0.52,0.77-1.86,1.13-3.02,0.63c-0.51-0.27-1.08-0.6-1.63-0.53
			c-2.68,0.3-3.58-1.18-3.72-3.51c-0.82-0.81-1.49-1.67-0.82-2.91c0.97-2.02,3.18-2.34,4.8-3.47c1.74-0.67,3.42-1.48,5.13-2.19
			c0.59-0.04,1.18-0.04,1.74,0.16c0.56,0.2,1.14,0.47,0.66,1.25c0.94-0.38,1.62-1.02,1.96-1.99c0.4-0.21,0.8-0.42,1.21-0.63
			C127.98,52.38,128.85,52.58,129.65,52.38z"/>
		<path d="M56.53,98.46c0.36-0.24,0.73-0.47,1.09-0.71c0.6-0.61,1.31-0.56,2.05-0.33c0.85,0.97,1.42,2.04,3.05,0.62
			c0.84-0.74,2.58-0.93,3.97-0.33c0.16,0.23,0.24,0.49,0.24,0.78c-0.49,1.34-1.61,0.67-2.49,0.82c0.72,0.07,1.42,0.03,2.12-0.02
			c0.27-0.01,0.51,0.08,0.72,0.24c-0.27,1.06,0.8,1.72,0.8,2.71c-0.59,1.29-2.01,1.29-3.02,1.94c-0.25,0.12-0.5,0.21-0.76,0.3
			c-1.05,0.31-2.05,0.74-2.97,1.36c-0.02,0.01,0.02,0.18,0.07,0.21c0.08,0.04,0.19,0.03,0.31,0.03c1.58-0.04,3.16-0.18,4.62,0.58
			c2.86,1.56,5.98,1.31,9.06,1.36c0.28,0.09,0.54,0.22,0.77,0.41c-0.89,1.66-1.91,2.03-4.88,1.81c1.65,1.12,3.5,1.56,5.56,0.74
			c0.59-0.24,1.14,0.2,1.7,0.41c1.64,0.62,3.17,1.07,5.1,0.63c1.83-0.41,3.66,0.7,5.03,2.12c2.26,2.33,4.69,3.41,8.04,2.15
			c1.89-0.71,3.78,0.21,4.85,2.02c0.56,0.94,1.2,1.82,1.77,2.75c-0.36,2.09-1.78,1.99-3.33,1.63c-2.86-0.66-3.42-0.13-2.6,2.55
			c0.42,1.37-0.16,2.4-1.23,3.04c-0.97,0.58-1.12-0.3-1.36-1.1c0.32,1.44,0.6,2.87-1.47,2.99c-1.29,0.02-2.14,0.85-2.98,1.68
			c-1.03,0.28-1.96-0.07-2.88-0.47c-0.89-0.61-2.03-1.18-1.81-2.45c0.18-1.04,1.31-0.56,2.01-0.96c-2.35,0.21-4.71,0.44-7.06,0.17
			c-0.8,0.1-1.59-0.17-2.4-0.06c-0.81,0.13-1.6,0.42-2.43,0.11c-0.25-0.13-0.47-0.3-0.65-0.52c-2.37-4.51-2.82-4.67-9.74-3.45
			c-0.59-0.05-1.11-0.25-1.5-0.72c-0.54-0.64-0.48-1.35-0.21-2.07c-2.01,1.9-2.39-2.92-4.39-1.06c-0.28-0.02-0.53-0.11-0.77-0.27
			c-1.99-1.29-2.93-3.98-5.69-4.26l-0.01-0.01c-0.15-2.09-2.08-3.13-2.89-4.84c-0.45-1.24-0.91-2.47-0.77-3.83
			c0.03-0.29,0.1-0.57,0.19-0.85c0.56-1.3,1.27-2.54,1.73-3.9C52.27,100.19,54.17,99,56.53,98.46z"/>
		<path class="st1" d="M71.82,199.86c-0.81,0.07-1.55-0.11-2.24-0.54c-4.41-1.31-8.23-3.79-12.18-6.03
			c-2.55-1.44-3.89-3.99-5.67-6.15c-1.45-1.03-1.9-2.54-2-4.21c-0.61-4.66-1.76-9.25-1.68-13.99c0.02-1.3-0.27-2.76,1.19-3.61
			c1.25,0.29,1.24,1.32,1.37,2.28c0.11,1.46-0.22,2.96,0.29,4.39c0.15,0.24,0.26,0.5,0.34,0.77c0.02,0.28-0.05,0.55-0.15,0.81
			c-0.09,0.22-0.4,0.39-0.18,0.69c0.15-0.25,0.3-0.51,0.65-0.45c1.64-0.45,2.51,0.3,2.12,1.88c-0.22,0.89-0.75,1.62-1.57,2.09
			c-2.06,0.91-0.47,1.61,0.15,2.37c0.8,0.66,1.17,1.54,1.36,2.53c0.85,1.81,0.85,3.94,2.3,5.76c0.29-1.9-2.25-3.13-0.91-4.99
			c0.4-0.63,1.08-0.98,0.91-2.04c-0.52-3.24-0.59-6.54-1.59-9.7c-0.18-0.58-0.38-1.28-0.04-1.75c2.02-2.82,1-5.97,1.06-9
			c0-0.2-0.03-0.4,0-0.6c0.17-1.18,0.09-2.68,1.25-3.2c1.44-0.65,2.27,0.73,3.13,1.66c0.23,1.26-0.48,2.29-0.81,3.41
			c-2.04,6.91-2.07,13.63,1.82,19.99c0.68,0.87,1.21,1.85,1.94,2.68c0.43,0.5,0.89,0.97,1.37,1.42c0.9,0.98,2.04,1.64,3.09,2.42
			c2.15,1.54,4.5,2.66,7.03,3.41c2.39,0.89,4.87,1.39,7.39,1.67c0.62,0.11,1.24,0.25,1.87,0.3c4.9,0.31,9.72-0.33,14.53-1.15
			c1.97-0.03,3.93,0.01,5.84,0.56c0.65,0.19,1.52,0.25,1.68,0.98c0.19,0.91-0.78,0.97-1.36,1.24c-0.73,0.33-1.41,0.7-1.78,1.46
			c-0.17,0.24-0.4,0.41-0.67,0.53c-0.94,0.15-2.22-0.49-2.57,1.09c-3.47,1.41-7.11,1.73-10.81,1.78c-3.48,0.05-6.96-0.28-10.43,0.22
			C75.75,201.2,73.86,200.1,71.82,199.86z"/>
		<path class="st0" d="M216.48,110.43c0.2,0.08,0.25,0.22,0.16,0.41c0.59,1.1-0.08,2.8,1.6,3.39c0.23,0.16,0.41,0.37,0.54,0.62
			c0.42,1.05,0.21,2.17,0.38,3.24c0.29,1.91-0.42,2.63-2.47,2.13c2.6,0.14,5,0.36,5.65,3.4c0.7,2.11-0.23,4.06-0.75,6.11
			c2.67-0.84,2.99,1.07,3.39,2.72c0.51,2.08,0.37,4.4,2.34,5.89c1.32,0.36,2.78,0.38,3.78,1.53c0.24,1.29-0.55,2.47-0.43,3.74
			c-0.91,0.65,0.27,2.03-0.9,2.6c-1.41,0.95-3.11,1.13-4.64,1.8c-2.16,0.94-2.49,2.48-1.95,4.43c0.21,0.76,0.71,1.52,0.04,2.18
			c-0.7,0.7-1.44,0.19-2.13-0.22c-0.97-0.88-1.08-2.14-1.46-3.28c-0.99-4.16-2.14-8.26-3.52-12.3c-0.69-2.36-1.51-4.69-2.3-7.02
			c-0.31-1.01-0.55-2.06-1.17-2.95c-0.23-0.32-0.45-0.65-0.65-0.99c-0.43-0.83-0.87-1.64-1.17-2.53c-0.09-0.41-0.08-0.82,0.02-1.23
			c1.63-2.31-0.33-4.49-1.04-6.08c-1.09-2.42-0.71-3.93,0.59-5.73c0.17-0.23,0.38-0.41,0.63-0.53
			C212.87,111.44,214.78,111.4,216.48,110.43z"/>
		<path class="st2" d="M227.49,216.03c-1.6,2.42-4.52,2.76-6.71,4.24c-1.68,1.78-3.92,2.02-6.17,2.24
			c-7.02,1.44-14.1,2.21-21.28,1.8c-0.78-0.52-1.78,0.15-2.54-0.49c-0.43-0.21-0.87-0.43-1.3-0.64c-1.17-0.53-2.35-0.47-3.53-0.03
			c-1.23-0.45-1.47,1.16-2.47,1.18c-1.37,0.73-2.86,1.27-3.83,2.59c-0.71,0.42-1.12,1.27-2.04,1.38c-0.78-0.07-1.27-0.5-1.51-1.23
			c-0.08-0.59,0.42-1.15,0.1-1.76c0.29-0.94,1-1.49,1.76-2.01c1.01-0.47,1.86-1.12,2.46-2.07c0.13-0.22,0.28-0.43,0.44-0.64
			c0.47-0.58,1.01-1.1,1.52-1.65c0.16-0.19,0.34-0.36,0.52-0.53c0.56-0.5,1.07-1.07,1.71-1.49c0.23-0.12,0.48-0.21,0.74-0.27
			c0.53-0.09,1.06-0.07,1.59,0.05c0.27,0.07,0.52,0.16,0.77,0.27c1,0.54,2.11,0.69,3.2,0.91c10.99,2.83,21.5,2.04,31.33-4.04
			c0.66-0.38,1.28-0.81,1.98-1.11c0.29-0.07,0.59-0.08,0.89-0.03C226.67,213.27,227.53,214.32,227.49,216.03z"/>
		<path class="st3" d="M124.75,246.14c-1.58-0.26-3.16-0.51-4.74-0.77c-2.49-0.64-5.07-1.04-7.19-2.66
			c-0.34-0.75-1.13-1.11-1.6-1.72c-0.94-1.22-0.66-2.84-0.13-3.91c0.63-1.26,2.14-0.3,3.28-0.18c2.32,0.82,4.54,1.86,6.65,3.13
			c0.5,0.5,1.05,0.91,1.76,1.07c5.36,1.17,10.66,2.38,16.27,1.57c3.72-0.54,7.38-1.63,11.2-1.46c0.32,0.01,0.24-0.46,0.41-0.68
			c2.16-0.05,3.84-1.38,5.74-2.13c0.26-0.07,0.53-0.11,0.81-0.11c1.13,0.14,1.64,0.69,0.92,1.74c-0.52,0.76-0.74,1.55-0.79,2.44
			c-0.29,0.54-0.84,0.74-1.32,1.03c-1.84,0.46-3.41,1.65-5.3,1.94c-1.55-0.08-3.09-0.18-3.12-2.14c-2.7,4.83-7.79,3.17-12.25,3.5
			C131.8,247.04,128.26,246.75,124.75,246.14z"/>
		<path class="st4" d="M99.71,233.16c-1.37-1.75-2.73-3.51-4.1-5.26c-1-0.79-1.31-2.01-1.88-3.06l0.02,0.04
			c-1.88-1.09-1.76-3.16-2.39-4.86l-0.12,0.13l0.13-0.11c-0.43-0.13-0.62-0.48-0.77-0.86c-0.33-1.2-1.09-1.84-2.35-1.86
			c-1.47-0.03-2.65-1.11-4.12-1.12c-0.62-0.71-1.79-0.31-2.36-1.15c-0.36-0.94-1.68-1.67-0.68-2.92c0.71-0.48,1.52-0.52,2.34-0.48
			c2.32,0.59,4.71,0.79,7.05,0.43c1.98-0.3,3.48,0.23,4.81,1.57c0.22,0.22,0.36,0.48,0.43,0.78c-0.04,1.12-1.18,1.85-1.09,3.03
			c0.02,0.29-0.16,0.73-0.38,0.76c-0.62,0.08-2.26-1-1.05,0.92c0.84,1.34,1.82,2.91,3.91,1.91c2.83,1.05,3.96,3.79,5.78,5.84
			c0.65,0.87,1.68,1.5,1.7,2.75c-0.12,0.25-0.28,0.46-0.5,0.63c-0.75,0.51-1.59,0.9-2.24,1.56c-0.66,0.43-0.61,1.37-1.28,1.79
			C100.17,233.69,99.8,233.69,99.71,233.16z"/>
		<path class="st5" d="M227.49,216.03c-0.84-1.01-1.28-2.35-2.52-3.03c1.23-2.34,3.11-4.14,4.94-5.98c1.46-0.89,1.55-2.83,2.9-3.81
			c1.21-0.03,2.15,0.6,3.1,1.22c0.37,0.46,0.52,1.02,0.64,1.59c0.2,0.7,0.22,1.41,0.1,2.12c-0.43,1.2-0.95,2.35-2.17,2.98l0.02-0.02
			c-0.93,2.08-2.4,3.5-4.72,3.88C228.76,214.76,228.66,216.56,227.49,216.03z"/>
		<path class="st2" d="M191.46,76.2c0.98,0.8,1.95,1.61,2.93,2.41c0.58,0.61,1.16,1.22,1.74,1.84c3,1.62,4.78,4.19,5.81,7.36
			c-1.18,2.21-2.78,2.71-4.25,1.32c-0.56-0.53-0.36-1.03,0.14-1.46c0.29-0.18,0.57-0.08,0.85,0.07c-0.13-0.12-0.28-0.22-0.46-0.29
			c-0.78-0.29-1.65-0.98-1.44-1.58c0.57-1.58-0.77-0.9-1.21-1.25c-1.63-0.02-2.9-0.4-3.13-2.39c-0.11-0.97-0.77-1.76-1.59-2.44
			c-1.28-1.06-0.63-2.32-0.1-3.52C190.96,75.94,191.2,75.92,191.46,76.2z"/>
		<path class="st6" d="M83.43,212.37c-0.8,0-1.6,0-2.41,0c-0.37,0.37-0.71,0.76-1.28,0.83c-0.92-0.03-1.39-0.63-1.73-1.38
			c-0.18-0.22-0.37-0.44-0.55-0.65c-0.84-1.08-1.44-2.29-1.84-3.6c-0.76-2.82-0.33-6.23-3.8-7.72c1.93-0.91,3.69,0.2,5.51,0.49
			c1.25,0.97,0.62,2.51,1.12,3.71c0.59,1.83,1.41,3.54,2.84,4.88c0.72,0.98,1.99,1.47,2.42,2.7
			C83.73,211.93,83.63,212.17,83.43,212.37z"/>
		<path class="st2" d="M65.27,123.68c1.21-0.38,2.41-0.86,3.65-1.14c3.07-0.7,5.85,1.59,6.6,5.37c-1.36,0.69-2.33-0.46-3.49-0.72
			c-1.02-0.4-2.03-0.79-3.05-1.19C67.76,125.22,65.77,125.64,65.27,123.68z"/>
		<path class="st6" d="M249.66,160.59c2.35,7.05,1.3,13.86-1.41,20.55c-0.64,0.22-0.52,0.74-0.49,1.23
			c-0.85,2.08-1.02,4.62-3.68,5.49c-1.06-1.56-0.53-3.05,0.29-4.45c2.18-3.73,4.24-7.51,4.94-11.85c0.14-0.95,0.08-1.89-0.11-2.83
			c-0.35-2.25,0.23-4.57-0.5-6.8C248.84,161.36,249.08,160.85,249.66,160.59z"/>
		<path class="st7" d="M124.75,246.14c4.49,0.07,8.99,0.41,13.46,0.11c2.78-0.18,6.24,0.83,7.98-2.82c0.41-0.86,1.61-0.9,2.63-1.01
			c-1.41,2.53,0.55,2.19,1.87,2.38c0.12,0.32,0.06,0.59-0.18,0.83c-1.03,0.73-2.23,0.95-3.43,1.14c-1.62,0.29-3.22,0.85-4.9,0.31
			C136.35,247.13,130.49,247.85,124.75,246.14z"/>
		<path class="st7" d="M49.24,165.59c-1.01,2.95-0.59,5.88-0.17,8.89c0.41,2.9,1.58,5.7,1.28,8.69c-1.91-0.75-1.02-2.63-1.58-3.92
			l0.03,0.07c-0.96-1.11-0.05-2.57-0.68-3.74c-0.05-0.93-0.1-1.86-0.15-2.79c-0.29-2-0.43-4,0.04-5.99
			c0.76-4.23,1.43-8.49,4.25-11.99c0.26-0.19,0.5-0.16,0.72,0.06c0.05,1.79-0.9,3.2-1.77,4.64c-0.21,0.2-0.44,0.4-0.51,0.71
			c0.15-0.35,0.36-0.62,0.75-0.72c1.38,1.25,0.72,2.53-0.09,3.66C50.73,164.02,50.01,164.84,49.24,165.59z"/>
		<path class="st8" d="M226.63,138.05c0.11,0.36,0.23,0.72,0.34,1.08c-2.27-1.21-2.06-3.62-2.54-5.61
			c-0.33-1.35-0.34-2.72-1.54-3.69c-1.21,0.2,0.3,1.57-0.83,1.77c-2.76-2.58,0.71-5.34-0.18-7.98c0.12-0.05,0.25-0.09,0.37-0.14
			c1.01,0.36,0.32,1.46,0.88,2.01c0.14,1.26,0.45,2.47,1.15,3.55C225.3,131.98,227.27,134.68,226.63,138.05z"/>
		<path class="st9" d="M216.48,110.43c-1.23,3.03-3.88,1.35-5.9,1.78c-0.75-1.75-0.37-3.36,0.63-4.88c1.63-0.37,2.72,1.06,4.18,1.28
			C216.11,109,216.32,109.7,216.48,110.43z"/>
		<path class="st4" d="M215.39,108.61c-1.54,0.63-2.68,0.03-3.62-1.19c-0.32-2.87-3.55-5.06-1.97-8.37
			c0.26-0.19,0.49-0.17,0.71,0.06l-0.02-0.04c1.34,1.58,2.55,3.24,3.46,5.11c0.43,1.13,1.31,2.07,1.37,3.34
			C215.35,107.88,215.37,108.25,215.39,108.61z"/>
		<path class="st10" d="M221.51,123.61c-1.15-1.76-2.24-3.49-4.85-2.16c-1.05,0.54-0.94-0.53-1.07-1.17
			c-0.24-1.19,0.79-0.55,1.09-0.83c0.66-0.63,0.96,0.69,1.32,0.36c0-1.89,0-3.55,0-5.21c1.95,0.26,1.04,2.14,1.76,3.09
			c-0.03,0.46-0.06,0.93,0.43,1.21c1.41,1.28,2.41,2.68,1.44,4.68L221.51,123.61z"/>
		<path class="st3" d="M60.69,145.87c0.58-0.22,1.16-0.45,1.74-0.67c-0.34,4.15-1.08,5.1-4.42,5.63c-0.71,0.11-1.42,0.31-2.12-0.06
			c-0.15-0.16-0.21-0.33-0.18-0.5c0.03-0.18,0.07-0.27,0.12-0.27c0.8-0.8,1.6-1.59,2.4-2.39c0.87-0.53,1.53-1.34,2.48-1.75
			L60.69,145.87z"/>
		<path class="st11" d="M242.48,193.81c-0.13,4.02-0.89,7.85-3,11.37c-0.38,0.64-0.58,1.24-1.45,1.15
			c-0.54-0.86-0.07-1.66,0.13-2.48c0.23-0.67,0.52-1.31,0.85-1.94c0.96-1.58,1.23-3.38,1.65-5.13c0.29-0.84,0.3-1.71,0.36-2.59
			c0.07-0.64,0.2-1.25,0.71-1.7C242.76,192.5,242.7,193.11,242.48,193.81z"/>
		<path class="st12" d="M57.4,193.29c1.56-0.22,2.46,1.09,3.67,1.66c2.88,1.36,5.68,2.9,8.51,4.37
			C64.91,198.54,61.03,196.16,57.4,193.29z"/>
		<path class="st6" d="M52.85,115.8c1.45-0.66,2.53-1.08,3.26,1.14c0.36,1.1,2.27,1.6,2.71,3.08c-0.41,0.3-0.81,0.35-1.19-0.04
			c-0.46-0.38-0.91-0.76-1.37-1.14c-0.27-0.33-0.91-0.21-0.96-0.8C54.49,117.3,53.67,116.55,52.85,115.8z"/>
		<path class="st13" d="M121.77,54.62c0.82-0.38,1.63-0.77,2.45-1.15c0.6-0.01,1.19-0.03,1.79-0.04c0.39,0.26,1.09,0.49,1.12,0.79
			c0.08,0.79-0.71,0.44-1.01,0.39c-1.61-0.26,0.77,1.37-0.63,1.26c-0.56-0.04-1.18-0.35-1.99-1.1
			C123.15,54.45,122.35,54.65,121.77,54.62z"/>
		<path class="st14" d="M52.93,153.22c0.77-0.61,1.55-1.23,2.32-1.84c0.8,0.39,1.95,1.24,1.26,1.8c-0.98,0.79-1.88,2.45-3.68,1.67
			c-0.2-0.01-0.4-0.02-0.6-0.05C52.12,154.12,52.59,153.7,52.93,153.22z"/>
		<path class="st6" d="M50.46,113.41c-0.02-0.37-0.05-0.74-0.07-1.11c-0.28-0.46-0.32-0.9,0.1-1.31c1.18,1.41,3.17,2.42,2.35,4.81
			C51.56,115.49,51.33,114.13,50.46,113.41z"/>
		<path class="st15" d="M57.81,119.99c0.4,0.01,0.79,0.02,1.19,0.04l0-0.01c0.66,0.5,1.96,0.24,1.93,1.53
			c-0.07,0.11-0.16,0.27-0.22,0.38C58.67,123.27,58.08,122.88,57.81,119.99z"/>
		<path class="st16" d="M104.54,237.51c-2.23-0.38-3.47-2.15-4.96-3.56c0.04-0.26,0.08-0.53,0.12-0.79c0.34,0.13,0.69,0.27,1.03,0.4
			C102.31,234.59,104.28,235.23,104.54,237.51z"/>
		<path class="st9" d="M218.27,113.45c0.04,0.39,0.07,0.77,0.11,1.16c-3.97,0.31-1.1-2.54-1.74-3.77
			C217.18,111.71,217.73,112.58,218.27,113.45z"/>
		<path class="st17" d="M182.99,224.99c-1.32,0.06-1.88,1.43-3.03,1.77c-0.22,0.25-0.42,0.23-0.6-0.05
			c0.68-2.01,2.15-2.64,4.13-2.38C183.32,224.55,183.15,224.77,182.99,224.99z"/>
		<path class="st18" d="M63.03,125c0.4,0,0.8,0,1.21,0c0.12,0.52,0.79,1.1,0.07,1.55"/>
		<path class="st19" d="M95.61,227.9"/>
		<path class="st20" d="M179.35,226.71c0.2,0.02,0.4,0.03,0.6,0.05c-0.02,0.19-0.06,0.37-0.14,0.54c-0.56,0.14-0.91,0.52-1.14,1.02
			c-0.36,0.1-0.73,0.21-1.09,0.31c-0.18-0.15-0.24-0.29-0.18-0.44c0.06-0.14,0.13-0.21,0.19-0.21
			C178.19,227.56,178.77,227.14,179.35,226.71z"/>
		<path class="st21" d="M76.85,92.98c-0.41,0.01-0.82,0.02-1.23,0.03c-0.15-0.51-0.64-1.22,0.19-1.39
			C76.72,91.43,76.71,92.35,76.85,92.98z"/>
		<path class="st22" d="M96.84,232.41c0.52-0.04,0.81,0.16,0.66,0.46c-0.14,0.29-0.5,0.52-0.81,0.68c-0.36,0.18-0.58-0.1-0.45-0.41
			C96.37,232.82,96.69,232.58,96.84,232.41z"/>
		<path class="st23" d="M185.95,223.16c1.18-0.63,2.36-1.19,3.53,0.03C188.3,223.17,187.13,223.17,185.95,223.16z"/>
		<path class="st21" d="M81.63,92c-0.77,0-1.55,0-2.7,0C80.13,91.12,80.9,91.27,81.63,92L81.63,92z"/>
		<path class="st15" d="M55.31,118.05c0.5,0.06,0.84,0.3,0.96,0.8c-0.4,0.17-0.44,1.06-1.03,0.7
			C54.55,119.13,55.17,118.55,55.31,118.05z"/>
		<path class="st18" d="M227.29,220.53c-0.44,0.07-0.77,0.05-0.63-0.34c0.08-0.23,0.41-0.44,0.67-0.5c0.23-0.05,0.51,0.12,0.77,0.19
			C227.8,220.13,227.5,220.37,227.29,220.53z"/>
		<path class="st23" d="M190.78,223.82c0.92-0.24,1.75,0.02,2.54,0.49C192.42,224.43,191.39,225.24,190.78,223.82z"/>
		<path class="st0" d="M202.18,106.8c-0.21-0.39-0.43-0.79-0.64-1.18c-1.52-1.6-2.54-3.51-3.53-5.45c-0.9-1.81-2.08-3.4-3.55-4.78
			c-1.55-2.09-4.31-3.12-5.14-5.84c-0.03-0.72,0.11-1.39,0.57-1.96c0.54-0.68,1.37-0.84,2.11-1.16c0.89-0.34,1.42-1.5,2.81-0.65
			c1.08,0.66,0.6-0.68,0.79-1.15c1.36-0.83,2.41-0.49,3.28,0.76c-0.58,0.73-1.13-0.4-1.72,0.26c0.47,0.64,0.95,1.31,1.44,1.98
			c-0.42,0.23-1.05,0.83-0.67,0.97c0.88,0.33,1.88,1.38,2.87,0.31c0.37-0.39,0.37-1.1,0.98-1.36c2.11,1.7,3.1,4.31,5.04,6.16
			c0.9,1.87,1.8,3.74,3.18,5.32c-0.04,1.93-0.14,3.76,1.76,5.17c0.94,0.69-0.83,2.13,0.03,3.23c-1.04,1.44-0.46,3.28-1.2,4.8v0
			c-0.94,0.84-1.52,2.84-2.72,2.42c-1.51-0.53-2.33-2.45-2.39-4.08c-0.06-1.65-0.81-2.21-2.16-2.51
			C202.75,107.79,202.41,107.35,202.18,106.8z"/>
		<path class="st1" d="M113.41,61.83c0.35,0.26,0.55,0.61,0.37,1.02c-0.93,2.13-0.1,2.61,1.98,2.41c0.74-0.07,1.84-0.11,2.45,0.77
			c-0.84,1.36-2.56,0.98-3.65,1.85c-0.22,0.21-0.5,0.23-0.78,0.24c0,0,0.03,0.05,0.09,0.06c0.43,0.06,0.66-0.27,0.95-0.5
			c1.35,0.33,1.31,1.22,0.91,2.25c-1.52,2.15-3.7,3.73-5.19,5.91c-0.27,0.11-0.54,0.14-0.83,0.12c-1.65-0.71-3.87-0.88-3.29-3.66
			c0.08-0.4-0.73-0.57-1.01-0.98c-1.05-2.89,0.63-4.87,2.61-6.33C109.66,63.78,110.54,60.98,113.41,61.83z"/>
		<path class="st5" d="M154.67,64.88c-3.34-0.45-6.47-2-9.91-1.92c-4.13-0.67-8.18,0.42-12.27,0.56c-1.29,0.05-2.54,0.03-3.79-0.24
			c-0.41-0.18-0.5-0.46-0.29-0.85c5.23-1.26,10.57-1.76,15.78-0.5c3.59,0.87,7.16,0.15,10.73,0.77c1.71,0.3,2.49,1.16,3.48,2.14
			C157.18,66.8,155.92,65.45,154.67,64.88z"/>
		<path class="st10" d="M113.41,61.83c-0.55,0.81-1.43,0.49-2.17,0.65c-0.47,0.1-1,0.2-0.9,0.87c0.21,1.4,0.22,1.4-1,1.51
			c-0.6,0.05-1.27,0.03-0.88,0.98c0.1,0.25,0.2,0.5,0.3,0.76c-3.81-0.19-2.11,3.2-3.13,4.83c-1.4,1.51-2.28,0.63-3.06-0.66
			c2.32-4.41,5.44-8.11,9.6-10.91C111.73,61.06,112.01,61.8,113.41,61.83z"/>
		<path class="st2" d="M191.99,86.42c-0.33,0.79-0.92,1.2-1.79,1.2c-1.28,1.84-1.64-0.69-2.57-0.53c-0.38-0.01-0.49-0.25-0.48-0.58
			c-0.38-0.98-1.06-1.39-2.1-1.07c-1.25-1.02-2.7-1.89-2.7-3.8c0.61,0.2,1.22,0.39,1.84,0.59c1.36-0.72,1.91,0.19,2.41,1.2
			c1.59,0.41,2.61,2.47,4.8,1.41C192.07,84.5,191.28,86.05,191.99,86.42z"/>
		<path class="st10" d="M128.41,62.43c0.01,0.22,0.02,0.45,0.03,0.67c0.17,0.18,0.2,0.3,0.09,0.39c-0.07,0.06-0.16,0.09-0.26,0.09
			c-2.38,0.22-4.53,1.04-6.48,2.4c-2.36,0.96-3.69,3.66-6.5,3.85c0.22-0.82,0.44-1.63-0.68-2l0,0c-0.27-0.37-0.7-0.72-0.75-1.11
			c-0.05-0.36,0.65-0.73,0.84-0.5c1.3,1.53,2.34-0.35,3.51-0.19c1.64-0.24,3.6,0,3.56-2.6c-0.01-0.54,0.57-0.33,0.9-0.24
			C124.7,63.73,126.56,63.13,128.41,62.43z"/>
		<path class="st5" d="M163.68,68.58c-0.94-0.31-1.89-0.61-2.83-0.92c-2.35,0.12-4.22-1-6.01-2.32c-0.07-0.15-0.12-0.31-0.17-0.47
			c1.24-0.54,2.5,0.89,3.73-0.05c1,0.96,1.96,2.22,3.54,1.64c1.05-0.38,1.02-0.6,1.38,0.39C163.52,67.41,163.57,68.01,163.68,68.58z
			"/>
		<path class="st24" d="M160.18,56.51c1.54,0.26,2.96,0.84,4.27,1.7c-1.25,0.36-2,2.37-3.55,1.41
			C159.93,59.01,159.66,57.73,160.18,56.51z"/>
		<path class="st13" d="M191.46,76.2c-0.23,0.03-0.46,0.05-0.7,0.08c-1.65-1.07-2.71-2.89-4.65-3.62c-0.65-0.24-0.26-0.82-0.11-1.26
			C188.16,72.62,189.86,74.36,191.46,76.2z"/>
		<path class="st2" d="M151.8,54.08c0.66-0.02,1.33-0.12,1.82,0.49c-1.24,1.79-3.23,1.56-5.02,1.85c-0.33,0.05-0.54-0.16-0.36-0.5
			c0.14-0.25,0.37-0.46,0.56-0.69l0,0C149.68,54.55,151.67,56.72,151.8,54.08z"/>
		<path class="st6" d="M186.59,83.43c-0.84-0.33-1.36-1.29-2.41-1.2c0.12-0.15,0.22-0.38,0.38-0.44c0.9-0.33,1.11-2.22,2.14-1.54
			C187.84,80.99,187.07,82.36,186.59,83.43z"/>
		<path class="st5" d="M169.13,71.62c-1.54-0.61-2.99-1.39-4.28-2.45C167.4,68.02,168.15,70.01,169.13,71.62z"/>
		<path class="st13" d="M179.45,66.5c1.36,0.55,2.62,1.25,3.44,2.54c-1.23,0.04-2.07-0.99-3.33-1.09
			C178.25,67.85,179.51,67,179.45,66.5z"/>
		<path class="st2" d="M148.8,55.24c-1.25-0.39-1.8,1.05-3.57,1.2C146.45,54.85,147.22,53.99,148.8,55.24
			C148.8,55.24,148.8,55.24,148.8,55.24z"/>
		<path class="st25" d="M172.79,62.49c1.35-0.01,2.26,0.81,3.14,1.68C174.6,64.15,173.52,63.66,172.79,62.49z"/>
		<path class="st13" d="M183.59,69.65c1.14,0.14,1.81,0.91,2.43,1.76C184.77,71.43,184.12,70.62,183.59,69.65z"/>
		<path class="st5" d="M164.86,69.18c-0.52,0.04-0.93-0.13-1.19-0.6c0.54-0.29,1.39-0.95,1.55-0.8
			C165.76,68.23,164.98,68.68,164.86,69.18z"/>
		<path class="st13" d="M184.34,74.37c-0.13-0.14-0.31-0.33-0.49-0.52c0.21-0.13,0.41-0.32,0.63-0.36c0.13-0.02,0.36,0.19,0.43,0.35
			C185.09,74.27,184.76,74.32,184.34,74.37z"/>
		<path class="st0" d="M102.92,70.77c0.98,0.4,1.83,1.41,3.06,0.66c2.39-0.45,2.39-0.45,1.23,3.41c1.91-1.8,2.24,0.05,3.06,0.83
			c0.34,1.04-0.4,1.88-0.54,2.83c-0.25,1-0.6,1.93-1.72,2.28c-3.03,0.43-3.41,1.33-1.74,4.06c-0.04,0.28-0.17,0.52-0.35,0.74
			c-1.7,1.22-0.18,2.77-0.41,4.14c0.3,2.12-0.88,4.19-0.19,6.32c0.35,1.2,0.96,1.94,2.3,1.17c0.79-0.45,1.47-0.26,2.15,0.2
			c0.66,0.54,1.42,0.96,1.88,1.72c0.15,0.45,0.11,0.9-0.1,1.33c-0.69,0.9-1.46,1.71-2.68,1.85c-3.85-0.84-7.87-1.57-11.66-1.55
			c-4.24,0.02-8.45-0.86-12.68-0.33c-0.58,0.07-1.19-0.01-1.77-0.1c-1.16-0.23-2.23-0.77-3.39-0.99c-2.97-0.56-4.16-0.18-5.48,1.72
			c-0.26,0.1-0.54,0.15-0.82,0.15c-1.6-1.29-3.3-2.25-5.47-1.58l0,0c-0.45-0.27-0.26-0.87-0.6-1.2c0-0.2,0-0.4,0-0.6
			c-0.35-0.55-1.5-0.23-1.41-1.25c0.1-1.05,1-0.69,1.6-0.89c1.3-0.43,2.81,0.02,3.96-0.97l-0.06,0.02c1.39-0.43,2.95,0.3,4.27-0.6
			c0.05-0.13,0.09-0.27,0.12-0.41c2.89,0.21,5.76-0.68,8.66-0.18c2.58-0.46,5.17-0.16,7.76-0.2c4.13-0.07,4.4-0.27,4.43-3.98
			l-0.01,0.04c0.7-1.13,0.25-2.45,0.59-3.64l-0.01,0.03c1.18-2.79,1.17-6.05,3.29-8.47c0.59,0.05,0.48,0.71,0.84,0.96
			c-0.26-0.37-0.35-0.86-0.73-1.17c-0.09-2.51,2.12-4.1,2.59-6.38L102.92,70.77z"/>
		<path class="st1" d="M57.63,150c3.95,0.75,3.7-2.7,4.8-4.8l-0.01-0.01c0.95-0.36,1.87-0.77,2.84-1.08
			c1.67-0.09,3.28,0.42,4.94,0.46c0.88,0.02,1.99,0.78,2.29-0.63c0.1-0.45-1.05-0.57-1.37-1.15c-0.27-0.35-0.47-0.71-0.28-1.17
			c1.62-0.78,3.33-0.89,5.08-0.68c2.66-0.5,5.36,0.15,8.03-0.2c0.38-0.73,0.75-1.46,1.13-2.19c1.25-1.26,0.87-2.99,1.3-4.49
			c0.02-0.69,0.04-1.37,0.07-2.06c0.2-0.6,1.67,0.07,1.19-1.2c1,0.2,2,0.4,3,0.6c1.12,0.72,1.41,1.43-0.1,1.98
			c-0.74,0.27-1.98-0.23-1.96,1.15c0.02,1.27,1.06,1.48,2.08,1.65c0.7,0.12,1.33,0.38,1.53,1.17c0.04,0.28,0.03,0.56-0.02,0.83
			c-0.33,1.14-0.71,2.24-2.51,2.66c1.29,0.03,1.86,0.73,2.47,1.38c0.66,0.68,1.33,0.39,2,0c0.53-0.23,1.06-0.38,1.6-0.05
			c2.48,1.56,3.61,3.64,2.48,6.57c-0.92,1.49-2.31,0.96-3.61,0.84c-0.57-0.05-1.14-0.12-1.69-0.29c-0.26-0.1-0.5-0.24-0.71-0.42
			c-0.19-0.19-0.37-0.4-0.55-0.6c-4.69-1.28-9.6-1.53-14.29-1.28c-2.43,0.13-5.22,1.03-7.85,1.54c-0.39,0.49-1-1.21-1.31,0.14
			c-1.94,2.54-4.81,3.17-7.7,3.76C59.79,151.32,57.85,151.67,57.63,150z"/>
		<path class="st9" d="M76.23,108.63c2.4,0.38,4.8,0.77,7.2,1.15c2.42-0.17,4.66,0.28,6.6,1.83l-0.01,0.01
			c0.64,0.41,1.36-0.16,2.01,0.16c1.21,0.43,2.33,1.04,3.52,1.53c3.21,1.79,7.29,1.52,10.07,4.31l-0.02,0.01
			c1.08,0.47,2.25,0.79,3.19,1.56c0.39,0.34,0.69,0.72,0.52,1.25c0.11,0.05,0.1-0.1,0.18-0.12c0.93-0.27,1.74,0.16,2.57,0.41
			c0.37,0.14,0.72,0.32,1.06,0.52c0.46,0.26,0.87,0.56,1.25,0.92c0.58,0.72,1.35,1.03,2.26,1.01c0.26,0.05,0.5,0.14,0.74,0.26
			c0.96,0.84,2.53,1,2.88,2.53c-0.46,1.17-0.25,2.82-2.13,2.98c-0.83,0-1.6-0.27-2.4-0.44c-0.4-0.09-0.78-0.23-1.13-0.43
			c-0.84-0.83-1.96-1.34-2.73-2.26c-0.38-0.22-0.05-1.3-1.01-0.79c-0.26,0.03-0.5,0-0.73-0.09c-1.39-0.9-2.93-1.45-4.5-1.91
			c-0.25-0.08-0.49-0.19-0.73-0.3c-0.7-0.35-1.34-0.77-1.66-1.53c-1.01-0.47-1.8-0.99-2.16-2.25c-0.6-2.09-2.72-2.7-4.2-2.01
			c-3.58,1.67-6.21,0.41-8.42-2.1c-1.35-1.54-3.18-1.72-4.76-2.57c-0.74,2.26-2.36,0.64-3.21,0.41c-2.21-0.58-4.33-1.01-6.6-0.51
			c-1.98,0.44-2.31-2.45-4.35-2.07C71.89,109.81,74.15,109.67,76.23,108.63z"/>
		<path class="st10" d="M102.77,121.21c0.62,0.37,1.43,0.49,1.72,1.29c-1.53,1.01-3.5,1.2-4.83,2.57c-0.7,0.58-1.3,1.26-1.75,2.06
			c-0.13,0.23-0.28,0.45-0.44,0.67c-1.77,1.59-1.8,4.54-4.32,5.54c-1.46-1.04-0.57-2.45-0.57-3.72c-0.5-0.99,2.71,0.48,0.99-1.58
			c-0.69-0.83,0.73-1.59,1.44-2.74c0,1.1,0,1.8,0,2.64c1.4-1.43,1.32-1.38,0.07-3.33c-0.65-1.02,0.67-1.45,1.12-2
			c0.6-0.71,1.04-2.51,2.67-1.08C100.22,122.72,101.56,122.55,102.77,121.21z"/>
		<path class="st9" d="M87.62,130.81c0.67,1.45-0.43,1.16-1.19,1.2c-0.61-1.26-1.82-1.16-2.93-1.3c-2.56-1.24-5.53-1.31-8-2.8
			c0.84-0.23,1.68-0.47,2.52-0.7c0.79,0.24,1.47,0.92,2.4,0.61c0.3-0.24,0.73-0.75,0.89-0.68c2.73,1.24,5.62-0.78,8.56,0.43
			c-0.89,1.7-2.37,1.43-4.18,1.2C86.57,129.7,87.1,130.25,87.62,130.81z"/>
		<path class="st9" d="M93.02,129.61c2.22,0.9-0.65,2.7,0.67,3.76c0.67,2.06,0.12,3.64-1.83,4.68c-0.11-0.81-0.58-1.39-1.39-1.21
			c-2.53,0.56-2.91-1.67-3-2.94c-0.1-1.31,1.59-1.42,2.83-1.15c0.51,0.12,0.78,0.02,0.67-0.53c-0.06-0.29-0.23-0.55-0.35-0.82
			C90.87,130.08,92.03,129.95,93.02,129.61z"/>
		<path class="st2" d="M70.79,94.72c-0.8,1.29-2.1,1.29-3.4,1.32c-0.56,0.01-1.27-0.21-1.62,0.43c-0.48,0.88,1.42,0.36,0.86,1.36
			c-1.56,0.91-4.04-0.32-4.95,2.12c-0.59-0.67-2.29-0.47-1.65-2.1C63.13,95.13,67.05,95.24,70.79,94.72z"/>
		<path class="st2" d="M72.76,100.88c-1.56,0.7-3.22,0.99-4.9,1.2c-0.34-0.79-2.51-1.11-0.63-2.46
			C69.82,96.77,71.24,99.04,72.76,100.88z"/>
		<path class="st10" d="M60.75,121.68c-0.64-0.56-1.28-1.11-1.92-1.67c1.46-1.71,1.38-1.65,3.04,0.8c0.79,1.17,1.87-0.39,3.1-0.04
			c-0.5,0.72-1.48,1.34-0.76,2.33C63.05,122.63,61.9,122.16,60.75,121.68z"/>
		<path class="st9" d="M66.07,107.3c2.83-0.28,5.56,0.64,8.36,0.65c0.45,0.2,0.9,0.41,1.34,0.61
			C72.45,108.79,69.12,109.11,66.07,107.3z"/>
		<path class="st26" d="M64.24,103.84c0.62,1.27-0.57,0.91-1.05,1.31c-0.79,0.65-2.06,0.5-2.54,1.58c-0.63,0.03-1.43,0.01-0.53-0.79
			C61.28,104.9,62.67,104.15,64.24,103.84z"/>
		<path class="st27" d="M50.5,110.99c-0.03,0.44-0.07,0.87-0.1,1.31c-0.86-1.79-1.54-3.6-0.62-5.59
			C50.02,108.14,50.26,109.57,50.5,110.99z"/>
		<path class="st6" d="M56.22,113.44c-0.04,0.56-0.36,0.9-0.9,0.98c-0.44,0.07-0.81-0.16-0.88-0.59c-0.09-0.62,0.39-0.84,0.89-0.92
			C55.75,112.84,56.12,112.93,56.22,113.44z"/>
		<path class="st27" d="M49.86,106.22c-0.01-1.5,0.51-2.75,1.76-3.64C51.43,103.98,50.82,105.19,49.86,106.22z"/>
		<path class="st2" d="M66.63,98.8c0.48,0.26,0.59,0.71,0.6,1.2c-1.16,0-2.32,0-3.88,0C64.51,98.95,65.95,99.92,66.63,98.8z"/>
		<path class="st28" d="M80.42,127.81c-1.1,1-1.7,0-2.4-0.61C78.9,127.11,79.68,127.4,80.42,127.81z"/>
		<path class="st0" d="M55.9,150.81c0.77-0.11,1.29-0.18,2.06-0.29c0.98,0.58,3.03-0.17,2.67,2.08c0.49,0.43,0.54,0.97,0.44,1.57
			c-0.89,1.25-0.74,2.83-1.29,4.19c-0.11,0.08-0.22,0.17-0.33,0.25c-1.25,0.86-1.63-0.61-2.65-1.05c-0.37,1.54-0.68,2.87-0.64,4.52
			c0.06,2.59,1.17,5.54-1.15,7.86c-0.24,0.24-0.4,0.95-0.26,1.09c2.09,2.01,0.39,4.82,1.61,7.09c1.2,2.23,0.46,4.67-1.13,5.66
			c-0.89,0.16-1.71,0.06-2.4-0.6c0.06-1.03-0.11-1.95-1.2-2.4c-0.59-1-0.82-2,0-3c0.52-0.69,1.12-1.33,1.54-2.08
			c0.32-0.57-0.04-1.37-0.51-1.48c-0.7-0.17-0.26,0.69-0.51,1.01c-0.32,0.41-0.43,0.07-0.48-0.18c-0.06-0.28-0.03-0.58-0.05-0.87
			c-0.61-0.19,0.06-1.03-0.6-1.2c-0.2,0-0.4,0-0.6,0c-0.6-1.4-0.15-2.86-0.28-4.28c0.8-0.16,1.1-0.5,0.71-1.37
			c-0.32-0.72-0.04-1.6-0.15-2.3c-0.01,0.97,0.14,1.99-0.11,3.03c-0.22,0.24-0.48,0.28-0.76,0.12c-0.09-0.83,0.28-1.77-0.6-2.4
			c-0.07-1.06,0.34-1.78,1.19-2.49c1.07-0.9,1.86-2.09,0.61-3.5h0c-0.09-1.85,1.13-3.19,1.8-4.75c0.55-0.23,1.08-0.49,1.64-0.69
			c1.54-0.58,1.77-1.5,0.77-2.78L55.9,150.81z"/>
		<path class="st3" d="M102.01,197.35c-1.05-3.11,1.88-1.73,2.81-2.64c-2.01-0.83-4.21-1.01-6.45-0.94c0.15-1.63,1.9-0.41,2.43-1.36
			c1.76-0.74,3.24-2.23,5.35-2.05c0.44-0.59,0.83,1.67,1.24,0.04c0.58-2.34,3.51,0.19,4.37-2.36c0.69-2.08,3.2-1.26,5-1.48
			c2.68-0.33,5.5,0.17,8-1.26l-0.04,0.02c2.87,0.03,5.71,0,7.78-2.48l-0.04,0.02c2.02-0.35,3.96-1.01,5.93-1.55
			c1.27-0.03,1.96,0.5,1.82,1.85c-0.48,1.76-3.34,1.29-3.31,3.54c-0.66,0.75-1.57,1.07-2.43,1.49c-0.77,0.28-1.53,0.57-2.37,0.54
			c-0.6,0.17-0.44-1.5-1.46-0.54c-0.55,0.52-1.38,0.84-2.19,0.3c-0.3-0.36-0.69-0.48-1.14-0.38c0.55-0.04,1.03,0.03,1.19,0.68
			c-0.65,1.16-1.76,0.2-2.59,0.57c-0.38-0.06-0.04,0.55-0.03,0.15c0.01-0.18,0.06-0.24,0.17-0.23c0.64,0.09,1.48-0.03,1.19,1.09
			c-2.41,1.75-5.27,1.58-8.01,1.8c-2.18,0.17-4.39-0.07-6.46,0.87c-3.09,1.83-5.61,4.78-9.56,4.96
			C102.73,197.93,102.31,197.75,102.01,197.35z"/>
		<path class="st29" d="M102.01,197.35c0.46,0.05,0.93,0.1,1.39,0.14c-0.34,1.44-1.6,1.66-2.72,1.97
			c-5.68,1.58-11.49,2.33-17.35,1.73c-2.93-0.3-4.66,0.55-5.36,3.39c-1.09-1.28-0.36-2.83-0.63-4.24c0.99-1.01,2.25-0.59,3.4-0.59
			c6.35,0.01,12.74,0.44,18.87-1.78c0.46-0.64,1.34,0.01,1.81-0.59C101.62,197.39,101.82,197.37,102.01,197.35z"/>
		<path class="st10" d="M52.84,182.99c0.83,0.08,1.77-0.28,2.4,0.6c0.04,0.78-0.29,1.94,0.38,2.25c3.15,1.47,0.91,2.66-0.2,4.16
			C54.52,187.56,53.68,185.27,52.84,182.99z"/>
		<path class="st24" d="M77.22,199.61c-1.53-0.58-2.59-0.97-3.7-1.39C76.2,197.68,76.2,197.68,77.22,199.61z"/>
		<path class="st7" d="M52,177.59c0,1,0,2,0,3C50.28,178.75,50.28,178.03,52,177.59z"/>
		<path class="st7" d="M51.04,172.79c0.12-0.21,0.24-0.42,0.36-0.63c0.08,0.61,0.16,1.22,0.23,1.83c-0.33,0.43-0.66,0.86-1.01,1.31
			C50.17,174.34,50.69,173.58,51.04,172.79z"/>
		<path class="st7" d="M50,168c0,1.6,0,3.2,0,4.8c-1.19-1.47-0.34-3.2-0.6-4.8C49.6,168,49.8,168,50,168L50,168z"/>
		<path class="st5" d="M101.06,194.38c-0.17,1.15-0.65,2.08-2.15,1.6C99.69,195.39,100.37,194.89,101.06,194.38z"/>
		<path class="st3" d="M101.43,197.39c-0.46,0.65-1.15,0.56-1.81,0.59c-0.22-0.28-0.65-0.59-0.63-0.85c0.05-0.55,0.54-0.27,0.84-0.2
			C100.37,197.05,100.89,197.23,101.43,197.39z"/>
		<path class="st0" d="M229.77,145.79c0.54-0.71-1.45-2.06,0.6-2.39c2.04-0.29,4.16-1.82,5.88,0.96c0.49,0.8,2.43,0.03,3.33,1.16
			c1.11,0.6,2.07,1.36,2.5,2.61c0.15,1.18-1.76,0.85-1.51,2.09c1.99,2.01,1.96,2.15-0.84,4.01c-1.43-0.93-2.99,0.9-4.42-0.19
			c-0.23-0.17-0.4-0.39-0.54-0.64c-0.32-2.88-2.95-2.11-4.59-2.9c-0.51-0.18-1.08-0.28-1.35-0.86
			C228.73,148.26,229.09,146.99,229.77,145.79z"/>
		<path class="st9" d="M203.23,107.47c2.03,0.01,3.61,0.11,2.88,3.08c-0.26,1.05,1.17,2.52,2.02,4.16c0.09-1.91,1.42-2.01,2.45-2.5
			c0.15,0.36,0.5,0.99,0.42,1.05c-3.37,2.52,1.13,4.84,0.18,7.28c-0.06,0.16,0.01,0.53,0.09,0.56c2.99,0.92,0.16,2.02,0.1,3.02
			l-0.25,0.11c-1.37-1.94-2.1-4.22-3.26-6.27c-0.38-0.84-0.77-1.68-1.41-2.37c-0.36-0.42-0.58-0.91-0.72-1.44
			c-0.46-1.74-1.34-3.28-2.28-4.79c-0.15-0.23-0.28-0.47-0.38-0.73C202.95,108.23,202.96,107.83,203.23,107.47z"/>
		<path class="st8" d="M229.77,145.79c0.74,1.44-0.52,2.52-0.68,3.81c-1.56,0.5-3.29-1.27-4.55-0.09c-1.14,1.06,0.14,2.83-0.19,4.28
			c-0.13,0.58-0.16,1.18-0.71,1.57c-1.38,0.84-2.55,1.28-2.26-1.15c0.56-0.25,2.6,0.62,1.46-0.76c-1.7-2.06-0.53-3.79,0.08-5.17
			c0.45-1.01,2.57-1.32,3.99-1.82C227.83,146.12,228.82,146,229.77,145.79z"/>
		<path class="st7" d="M239.35,145.81c-0.68-0.11-1.04-1.37-2.04-0.48c-0.27,0.24-1.34,0.15-1.38,0.03
			c-0.93-3.36-3.92-0.78-5.57-1.96c-0.61-1.17-0.37-2.18,0.61-3.03c1.35,0.46,2.7,0.93,4.05,1.39c1.46,1.11,2.92,2.23,4.38,3.34
			C239.71,145.37,239.69,145.6,239.35,145.81z"/>
		<path class="st10" d="M216.05,115.51c1.6,0.4,1.91,1.14,1.4,2.54C216.37,117.49,216.38,116.58,216.05,115.51z"/>
		<path class="st7" d="M177.6,227.98c0,0.22-0.01,0.43-0.01,0.65c-2.95,2.8-5.91,5.59-8.86,8.39c-1.05,0.54-2.83-0.3-3.16,1.64
			c-2.69,1.47-5.31,3.08-8.38,3.68c-0.73-0.7-1.52-1.34-0.03-2.16c0.39-0.22,1.89-0.91,0.04-1.41c-0.44-1.1,1.06-0.65,1.09-1.37
			l-0.04,0.03c1.51-0.4,2.69-1.73,4.4-1.57c1.99,0.6,0.95-1.3,1.52-1.86c0.19-0.19,0.41-0.33,0.67-0.42
			c1.04,0.08,2.01-0.21,2.97-0.58c1.08-0.62,2.35-1.08,2.23-2.7c0.18-0.87,0.85-1.32,1.53-1.75l0.01-0.01
			c1-0.83,1.76-1.98,3.13-2.31c0.64-0.09,1.21,0.04,1.67,0.51C176.61,227.34,177.02,227.74,177.6,227.98z"/>
		<path class="st16" d="M183.01,219c-0.25-0.62-1.24-0.71-1.09-1.91c1.02,0.97,2,0,3.04,0.16C184.4,217.93,183.92,218.7,183.01,219z
			"/>
		<path class="st17" d="M178.11,223.74c1-0.86,2-1.72,3-2.58C180.57,222.56,179.74,223.62,178.11,223.74z"/>
		<path class="st20" d="M174.48,226.72c0.56-0.41,1.13-0.83,1.69-1.24c0.84,0.29,0.34,0.81,0.21,1.27
			C175.74,226.74,175.11,226.73,174.48,226.72z"/>
		<path class="st18" d="M181.09,220.75c-0.18,0-0.35-0.02-0.53-0.05c0.61-0.87,1.21-1.74,2.45-1.7
			C182.52,219.74,181.94,220.38,181.09,220.75z"/>
		<path class="st16" d="M185.39,217.06c0.36-0.3,0.71-0.83,1.1-0.86c0.64-0.04,0.63,0.59,0.61,1.09
			C186.53,217.22,185.96,217.14,185.39,217.06z"/>
		<path class="st7" d="M104.54,237.51c-0.98-1.59-3-2.19-3.81-3.95c-0.22-0.82-0.44-1.63,0.68-2c0.83-0.56,2-0.67,2.41-1.79
			c0.2,0,0.39-0.01,0.59-0.01c2.71,0.49,4.25,2.7,6.23,4.26c0.91,0.78,1.99,1.34,2.94,2.07c0.38,0.41,0.74,0.84,0.46,1.46
			c-0.93,0.24-2.55-1.17-2.53-0.13c0.01,1.1-1.55,3.42,1.28,3.84c0.53,0.08,0.14,0.65,0.04,1c-1.97-1.01-3.93-2.03-5.9-3.04
			C106.32,238.4,105.5,237.86,104.54,237.51z"/>
		<path class="st7" d="M145.82,241.22c0.19-0.03,0.39-0.05,0.58-0.08c1.16-0.42,2.27-1.05,3.58-0.86c0.3,0,0.53,0.12,0.69,0.36
			c0.21,0.66,1.37,0.52,1.23,1.67c-4.43-1.53-8.52,1.05-12.9,0.99c-2.57-0.04-4.6,0.2-7.86-0.21c-3-0.38-6.07-0.08-8.96-1.32
			c-0.67-0.29-1.25-0.53-1.57-1.21c2.01-1.25,3.88-0.12,5.79,0.33c0.74,0.1,1.47,0.22,2.19,0.39c1.07,0.36,2.17,0.25,3.27,0.22
			C136.53,241.84,141.16,240.91,145.82,241.22z"/>
		<path class="st7" d="M150.66,239.99c1.54-0.43,3.08-0.85,4.61-1.28c0.46-0.26,0.91-0.31,1.33,0.1c-1.82,1.13-3.45,2.87-5.94,1.83
			c0,0-0.18-0.19-0.18-0.19C150.37,240.23,150.44,240.08,150.66,239.99z"/>
		<path class="st20" d="M156.6,238.81c-0.44-0.03-0.89-0.07-1.33-0.1c0.87-0.75,1.87-1.2,3.02-1.32c-0.36,0.46-0.73,0.91-1.09,1.37
			C157,238.77,156.8,238.79,156.6,238.81z"/>
		<path class="st30" d="M97.47,221.48c-1.29-0.92-0.98,1.8-1.94,0.96c-1.92-1.68-4.97-3-2.78-6.45c0.63,0.38-0.02,1.56,1.16,1.98
			c0.07-1.31-0.41-2.98,1.54-3.29c0.24-0.18,0.5-0.29,0.79-0.36c1.11-0.07,1.93,0.53,2.74,1.15c3.47,1.98,7.17,1.05,10.82,0.85
			c0.71,0.38,1.03,0.98,0.99,1.77c-0.31,0.95-0.62,1.97-1.97,1.57c-0.9-0.27-1.14,0.58-1.7,0.87c-0.19,0.33-0.38,0.65-0.57,0.98
			c-0.41,0.83-1.18,1.28-1.93,1.74c-0.24,0.12-0.49,0.16-0.75,0.13c-0.25-0.09-0.48-0.22-0.69-0.38c-1.48-1.06-3.17-1.36-4.93-1.4
			C97.99,221.61,97.73,221.56,97.47,221.48z"/>
		<path class="st13" d="M83.43,212.37c0.01-0.23,0.02-0.45,0.03-0.68c3.83,0.17,7.77-1.62,11.47,0.69c0.38,0.55,0.86,1.08,0.31,1.8
			c-1.69-1.31-3.53-1.57-5.67-1.26C87.54,213.22,85.43,213.11,83.43,212.37z"/>
		<path class="st8" d="M103.83,229.78c0.16,1.89-1.13,1.84-2.41,1.79C101.86,230.49,102.94,230.26,103.83,229.78z"/>
		<path class="st7" d="M245.46,151.62c1.43,1.15,1.71,3.08,2.9,4.39c0.26,1.58,1.35,2.92,1.3,4.59c-0.09,0.54-0.16,1.09-0.69,1.4
			c-0.75-1.16-1.43-2.27-3.21-1.92c-1.18,0.23-1.59-0.35-1.42-1.76c0.18-1.47,0.8-3,0-4.59
			C243.94,152.93,244.43,151.98,245.46,151.62z"/>
		<path class="st31" d="M100.21,77.42c-2.21,2.36-1.82,5.86-3.67,8.38c0.22-3.81,2.05-7.14,3.18-10.67
			c0.94-1.46,1.88-2.92,2.81-4.38C102.78,73.32,100.15,74.9,100.21,77.42L100.21,77.42z"/>
		<path class="st3" d="M233.33,191.5c-0.76-0.72-0.32-1.69-0.53-2.52c-0.59-1.43-1.33-2.8-1.79-4.29c0.01-0.5-0.22-0.86-0.63-1.11
			c-1.06-1.88-3.61-2.54-4.08-4.91c-1.14-0.37-1.93-1.08-2.25-2.26c0.02-0.38,0.24-0.77,0.06-1.13c-1.45-2.99-1.19-3.44,2.22-3.73
			c1.31,0.14,1.99,1.15,2.78,2.01c2.18,2.17,4.47,4.25,6.5,6.55c1.46,1.66,2.03,0.91,2.62-0.56c0.22-0.62,0.54-1.07,1.29-0.65
			c1.35,2.88,1.07,4.1-1.74,4.99c-2.19,0.7-2.68,1.91-2.42,3.99c0.46,3.63-0.18,7.29,0.13,10.96c0.16,1.94,0.39,2.94,2.54,2.68
			c0.57-0.07,1.18,0.15,1.53,0.72c0.09,0.71-0.28,1.23-0.71,1.73c-0.43,0.2-0.86,0.4-1.28,0.6c-0.6,0.77-1.2-1.24-1.8,0
			c-1.23,0.22-2.04-0.57-2.91-1.22c-0.28-0.18-0.46-0.43-0.56-0.75c-0.21-1.49,0.9-2.64,1.06-4.03c0.03-0.32,0.07-0.64,0.1-0.96
			C233.82,195.57,233.84,193.53,233.33,191.5z"/>
		<path class="st0" d="M236,204.58c-0.33-0.84-0.71-1.79,0.83-1.25c0.17,0.06,0.36,1.01,0.97,1.25c-0.03,1.17-1.04,1.37-1.8,1.81
			C236,205.78,236,205.18,236,204.58z"/>
		<path class="st28" d="M232.71,202.65c0.05,0.24,0.1,0.48,0.15,0.72c-0.65,1.54-0.84,3.37-2.65,4.17c0.28-0.72,0.56-1.44,0.83-2.16
			C231.51,204.4,231,202.85,232.71,202.65z"/>
		<path class="st8" d="M165.58,238.66c-0.43-0.52-1.39-0.87-0.13-1.66c1.18-0.75,2.2-0.15,3.29,0.02
			C167.78,237.76,166.84,238.51,165.58,238.66z"/>
		<path class="st0" d="M200.34,86.64c-0.28,1.1-0.73,1.66-1.33,1.33c-1.05-0.56,0.28-0.48,0.34-0.8
			C199.39,87.01,199.8,86.92,200.34,86.64z"/>
		<path class="st8" d="M70.83,141.63c0.2,0.19,0.39,0.38,0.59,0.58c-0.82,2.85-2.81,2.38-4.88,1.73c-0.26-0.15-0.46-0.37-0.6-0.64
			C67.44,142.35,69.07,141.78,70.83,141.63z"/>
		<path class="st3" d="M83.94,140.75c-2.65,1.07-5.34,0.4-8.02,0.2C78.57,140.12,81.26,140.68,83.94,140.75z"/>
		<path class="st9" d="M86.37,134.07c-0.02,1.62,0.48,3.38-1.3,4.49C85.51,137.06,85.94,135.56,86.37,134.07z"/>
		<path class="st8" d="M65.43,144.6c-1,0.2-2.01,0.4-3.01,0.59c0.97-1.01,2.17-1.6,3.53-1.89l0.15,0.2
			C66.3,144.12,65.75,144.29,65.43,144.6z"/>
		<path class="st13" d="M95.98,89.36c1.41,4.03,1.26,4.25-3.3,4.28c-2.97,0.02-5.93-0.07-8.9-0.1c2.6-0.7,5.25-0.23,7.88-0.36
			c2.42-0.13,3.95-0.98,3.87-3.65C95.68,89.47,95.83,89.42,95.98,89.36z"/>
		<path class="st31" d="M96.55,85.77c0.53,1.33,0.38,2.55-0.59,3.64C95.79,88.13,96.03,86.92,96.55,85.77z"/>
		<path class="st32" d="M239.35,145.81c0.02-0.23,0.04-0.47,0.06-0.7c2,0.77,2.92,2.83,4.65,3.92c0.07,0.31,0.14,0.62,0.2,0.93
			c-0.2,0.19-0.44,0.27-0.71,0.25c-0.95-0.35-1.43-1.13-1.76-2.02C241.17,147.19,240.39,146.37,239.35,145.81z"/>
		<path class="st0" d="M243.53,150.01c0.24-0.02,0.49-0.04,0.73-0.06c0.64,0.38,1,0.96,1.19,1.66c-1.2,2.02,0.5,4.14-0.25,6.24
			c-0.54,1.51,0.16,1.9,1.73,1.47c2.58-0.7,1.95,1.31,2.03,2.67c1.53,2.08,0.76,4.37,0.6,6.6c0.68,0.91-0.09,2.09,0.55,3.01
			c-0.71,2.64-2.03,5.19-2.71,7.67c-0.82,3-4.26,4.93-3.26,8.46c0,0.21-0.01,0.43-0.01,0.64c-1.16,1.18-2.29,2.37-2.13,4.22
			c-0.09,0.6-0.18,1.21-0.28,1.81c-0.02,0.83-1.06,1.47-0.46,2.42c-0.11,1.96-0.37,3.87-1.71,5.45c-1.57-0.02-3.47,0.5-4.63-0.2
			c-1.26-0.76,0.11-2.66-0.18-4.18c-0.77-3.95,0.52-8.05-0.42-12.08c-0.09-0.37,0.09-2.1,1.96-2.33c3.67-0.45,3.73-0.88,2.96-4.76
			c0.04-0.12,0.08-0.24,0.11-0.36c0.53-0.73,0.72-1.58,0.87-2.45c0.09-0.25,0.21-0.49,0.35-0.72c0.3-2.13,1.98-3.74,2.21-5.89
			c0.77-0.58,0.38-1.43,0.49-2.11c-0.02-0.46-0.68,0.05-0.3-0.06c0.13-0.04,0.19,0.01,0.21,0.14c0.1,0.67,0.2,1.35-0.26,1.95
			c-1.6,0.13-1.69-1.05-1.72-2.12c-0.07-2.41-0.87-4.58-1.88-6.71c-0.96-2.26-0.62-4.51,0.05-6.76c3.47-0.66,0.44-2.39,0.6-3.6
			C241.15,149.35,242.34,149.15,243.53,150.01z"/>
		<path class="st7" d="M250.12,171.6c-0.92-0.87-0.42-1.99-0.55-3.01C250.55,169.45,250.04,170.58,250.12,171.6z"/>
		<path class="st0" d="M51.04,159.6c0.05,0.91-0.13,1.74-0.87,2.61C49.61,160.93,49.98,160.15,51.04,159.6L51.04,159.6z"/>
		<path class="st2" d="M75,94.14c-1.28,1.24-2.77,0.97-4.27,0.6C72.09,94.08,73.53,94.01,75,94.14z"/>
		<path class="st16" d="M100.71,237.9c-0.54-0.12-0.88-0.35-0.7-0.81c0.08-0.19,0.48-0.42,0.66-0.37c0.33,0.09,0.6,0.38,0.9,0.58
			C101.27,237.52,100.95,237.73,100.71,237.9z"/>
		<path class="st2" d="M241.26,196.81c-0.49,0.06-1.18,0.58-1.26-0.42c-0.02-0.28-0.42-1.05,0.57-0.79c1,0.26,0.41-1.13,1.15-1.2
			C241.81,195.24,241.85,196.08,241.26,196.81z"/>
		<path class="st10" d="M192.06,146.11c0.57,0.89,1.15,1.77,1.72,2.66c0.34,0.45,0.49,0.97,0.48,1.53c-0.46,1.3,0.99,2.41,0.39,3.73
			c-0.84,0.6-1.78,0.95-2.81,1.06c-0.62-0.19-0.82-0.66-0.87-1.25c-0.03-0.78,0.19-1.76-0.78-2.04c-0.84-0.24-1.52,0.28-1.83,1.14
			c-0.76,4.02-2.36,7.69-4.61,11.09c-1.16,1.95-2.31,3.91-3.97,5.5c-1.01,0.83-1.77,2-3.49,1.3c-1.79-0.73-2.31-1.59-1.08-3.19
			c0.17-0.22,0.37-0.4,0.6-0.56c0.57-0.29,1.26-0.44,1.4-1.22c0.12-0.64,0.24-1.27,0.51-1.86c1.35-3.01,2.99-5.89,3.95-9.07
			c0.09-0.26,0.21-0.5,0.34-0.74c0.13-0.24,0.28-0.46,0.43-0.69c0.62-1.65-0.54-1.55-1.56-1.62c-2.68-0.18-5.36,0.19-8.03-0.03
			c-0.28-0.03-0.55-0.09-0.82-0.16c-2.09-0.29-4.04-1.42-6.24-1.08c-0.27-0.06-0.53-0.16-0.77-0.3c-0.94-1.18-1.96-2.17-3.66-1.64
			c-2.4,0.1-4.15-2.2-6.64-1.76c-0.27-0.06-0.53-0.15-0.79-0.27c-0.95-0.74-2.4-0.81-2.9-2.15c0.05-0.47,0.34-0.73,0.76-0.87
			c1.27,0.47,2.26-0.66,3.46-0.58c1.03,0.35,2.06,0.7,3.18,0.52c3.58,0.73,6.91,2.3,10.46,3.12c4.55,1.57,9.26,0.7,13.89,0.89
			c0.43-0.09,0.83-0.23,1.11-0.59c0.27-0.28,0.61-0.46,0.96-0.62c0.67-0.36,0.45-0.92,0.32-1.47c-0.06-0.26-0.06-0.51-0.01-0.77
			c0.53-1.24,1.5-1.91,2.8-2.15C190.17,142.51,190.76,144.66,192.06,146.11z"/>
		<path class="st10" d="M173.32,127.39c0.19,0.15,0.38,0.31,0.58,0.46c2.1,1.25,4.23,2.47,5.51,4.68c0.22,0.35,0.44,0.7,0.66,1.06
			c1.57,1.86,3.43,3.4,5.4,4.81c0.14,0.24,0.22,0.5,0.22,0.79c-0.94,1.45-2.48,1.52-3.97,1.7c-0.99-0.19-1.85-0.66-2.68-1.19
			c-2.12-2.75-5.53-4.13-7.46-7.08l0,0c-3.36-1.59-5.93-4.34-9.14-6.16c-0.41-0.38-0.74-0.82-1.07-1.26
			c-1.75-1.54-3.25-3.41-5.66-4.02c-0.26-0.09-0.5-0.23-0.73-0.39c-1.06-0.83-2.49-1.36-2.48-3.05c0.03-0.28,0.11-0.54,0.24-0.79
			c0.41-0.55,0.91-1,1.55-1.28c0.26-0.05,0.51-0.01,0.74,0.11c0.58,0.73,1.43,0.82,2.27,0.93c1.13,0.48,2.17,1.06,2.9,2.09
			c0.2,0.85,0.14,1.79,1.06,2.57c-0.28-0.9-0.08-1.49,0.72-1.76c2.32,0.02,3.72,1.82,5.51,2.86c1.01,0.91,2.15,1.64,3.3,2.34
			c0.23,0.14,0.45,0.3,0.66,0.47C172.16,125.92,172.67,126.71,173.32,127.39z"/>
		<path class="st9" d="M194.38,154.2c0.85-1.37-2.3-2.09-0.59-3.61c0.62-0.59,1.22-0.32,1.81,0.04c0.2,0.18,0.4,0.35,0.6,0.52
			l0.01,0.02c1.97,1.65,3.16,3.82,4.1,6.15c1.37,2.38,2.74,4.75,4.1,7.13c0.27,0.12,0.47,0.31,0.62,0.56
			c0.04,1.33,1.28,2.23,1.29,3.58c-1.01,1.82-0.2,4.44-2.51,5.68c-0.77,1.09-2.1,1.25-3.14,1.88c-0.85,0.35-1.57,1.06-2.57,1.01
			c-1.27-0.24-3.16,0.81-3.38-1.63c0.45-1.98,2.18-3.3,2.66-5.32c0.46-1.93,0.69-3.73-0.47-5.46c-1.14-2.48-3.29-4.38-4.11-7.05
			C192.68,156.26,193.27,155.11,194.38,154.2z"/>
		<path class="st2" d="M152.37,82.3c0.77,1.79,1.54,3.57,2.31,5.36c2.2,3.97,1.58,8.24,1.39,12.47c-1.94,4.08-2.71,8.73-5.87,12.23
			c-0.41,0.26-0.85,0.35-1.33,0.3c-1.26-0.48-2.49-1.01-2.98-2.44c-0.29-1.97,1.44-2.9,2.22-4.33c0.13-0.24,0.27-0.47,0.41-0.7
			c0.5-0.81,0.84-1.7,1.16-2.6c0.83-3.05,1.77-6.08,1.05-9.3c-0.28-1.52-0.41-3.07-1.03-4.5c-0.11-0.26-0.2-0.52-0.28-0.79
			c-0.29-2.09-2.19-3.54-2.26-5.72c0.33-1.15,1.29-1.8,2.06-2.6c0.25-0.14,0.52-0.21,0.81-0.22C151.5,79.85,151.6,81.35,152.37,82.3
			z"/>
		<path class="st4" d="M239.35,161.4c0-0.4-0.01-0.8-0.01-1.19c0.2-0.21,0.41-0.22,0.63-0.01c0.81,2.43,2.08,4.74,1.87,7.45
			c-0.06,0.75,0.46,1.25,1.13,1.56l0,0c0.07,2.52-0.75,4.71-2.4,6.6c0.22-2.93,0.11-5.86,0.16-8.79c0.01-0.48,0.2-0.95-0.16-1.37
			C240.16,164.21,239.76,162.8,239.35,161.4z"/>
		<path class="st28" d="M184.04,136.86c0.38,0.58,0.77,1.17,1.15,1.75c-2.17-1.21-4.06-2.7-5.12-5.03
			C181.39,134.68,182.72,135.77,184.04,136.86z"/>
		<path class="st17" d="M144.04,74.31c0.37,0.08,0.75,0.15,1.12,0.23c0.77,0.58,1.53,1.17,2.3,1.75c0.1,0.12,0.2,0.23,0.31,0.35
			c-0.15,0.3-0.39,0.48-0.71,0.55C145.43,76.88,143.33,77.07,144.04,74.31z"/>
		<path class="st33" d="M189.63,89.32c-0.18-0.06-0.37-0.08-0.57-0.08c-0.48-0.72-0.95-1.43-1.43-2.15c0.98-0.4,1.5,1.36,2.57,0.53
			C190.01,88.19,189.82,88.75,189.63,89.32z"/>
		<path class="st17" d="M149.75,78.74c0.13,0.34,0.26,0.68,0.4,1.03c-0.25,0.02-0.5,0.04-0.74,0.06c-1.3-0.51-2.36-1.18-1.94-2.86
			l0.12-0.13c0.78-0.36,0.98,0.16,1.14,0.75C149.06,77.98,149.4,78.36,149.75,78.74z"/>
		<path class="st8" d="M194.93,149.42c0.28,0.57,0.55,1.14,0.83,1.72c-0.66-0.18-1.31-0.36-1.97-0.54c0-0.61,0-1.22,0-1.83
			C194.17,148.99,194.55,149.2,194.93,149.42z"/>
		<path class="st4" d="M209.38,99.72c-0.43,1.38-0.71,2.31-1.15,3.74C207.24,101.58,207.76,100.73,209.38,99.72z"/>
		<path class="st5" d="M194.74,93.6c0.22-0.91-0.13-1.8,0.93-1.94c0.2-0.03,0.65,0.28,0.65,0.44
			C196.35,92.88,195.75,93.19,194.74,93.6z"/>
		<path class="st6" d="M108.55,73.17c0.23-1.1,0.6-1.93,1.82-1.94c0.57-0.01,0.65,0.39,0.54,0.78
			C110.61,73.09,109.77,73.28,108.55,73.17z"/>
		<path class="st24" d="M114.61,67.83c-0.33,1.78-1.45,0.15-2.07,0.65C113.06,67.52,113.9,67.95,114.61,67.83
			C114.61,67.83,114.61,67.83,114.61,67.83z"/>
		<path class="st5" d="M121.79,130.89c-0.57-0.3-1.14-0.6-1.72-0.89c-0.87-0.25-1.86-0.32-2.06-1.5c1.69-0.01,0.75-2.12,1.98-2.49
			c1.1-0.87,1.98,0.01,2.88,0.41c0.86,0.38,1.63,1.01,2.65,0.91c0.38,0.12,0.8,0.19,1.03,0.58l-0.04-0.03
			c2.07,0.5,4.19,0.9,5.5,2.85c0.2,0.22,0.39,0.45,0.59,0.67c1.1,0.86,2.24,1.61,3.72,1.55c1.27,0.23,2.64,0.25,3.23,1.74
			c0.09,0.7,0.02,1.75-0.76,1.51c-2.14-0.67-4.19,0.69-6.27,0.03c-1.91,0.26-3.16-1.17-4.72-1.83
			C125.59,133.61,123.69,132.26,121.79,130.89z"/>
		<path class="st14" d="M136.12,132.8c-0.04,0.14-0.07,0.28-0.11,0.41c-1.55,0.17-2.72-0.36-3.41-1.81
			C133.78,131.87,134.95,132.34,136.12,132.8z"/>
		<path class="st22" d="M92,111.01c0,0.39,0,0.79,0,1.18c-0.69,0.07-1.32-0.03-1.81-0.57C90.8,111.42,91.4,111.22,92,111.01z"/>
		<path class="st34" d="M106.21,116.41c0.11-0.55,0.13-1.22,0.98-0.89c0.18,0.07,0.24,0.42,0.36,0.64
			C107.11,116.24,106.66,116.33,106.21,116.41C106.22,116.41,106.21,116.41,106.21,116.41z"/>
		<path class="st34" d="M126.56,127.91c-0.37-0.04-0.74-0.08-1.11-0.12c-0.42-0.39-1.45-0.03-1.33-1.08c0,0,0.17-0.2,0.18-0.2
			C125.27,126.62,126.26,126.7,126.56,127.91z"/>
		<path class="st35" d="M154.81,140.98c-0.4-0.39-0.81-0.79-1.21-1.18c0.29-0.46,0.78-0.76,1.2-0.43
			C155.37,139.81,154.68,140.44,154.81,140.98z"/>
		<path class="st7" d="M113.46,99.6c0.72,0.44,1.44,0.89,2.33,0.45c1.87-0.26,3.59,0.77,5.44,0.65c4.48,1.05,8.63,3.09,13.04,4.36
			c2.3,1.27,5.12,1.55,6.95,3.69c0.1,0.26,0.12,0.54,0.09,0.82c-0.26,0.73-0.99,1.22-1.07,2.05c-0.09,0.25-0.24,0.45-0.43,0.62
			c-3.31-0.89-6.12-3.05-9.52-3.7c-4.18-2.25-8.88-3.05-13.26-4.73c-0.45-0.82-1.37,0.02-1.89-0.55c-1.58-0.21-3.16-0.42-4.74-0.62
			c-0.39-0.22-0.78-0.43-1.17-0.65c0.05-1.15,1.05-1.33,1.8-1.76C111.74,99.67,112.44,99.01,113.46,99.6z"/>
		<path class="st10" d="M113.41,84.03c-2.58,3.48-3.03,7.6-3.52,11.72c-0.09,0.72,0.39,1.61-0.52,2.13
			c-0.55-0.1-1.11-0.84-1.63-0.29c-1.76,1.86-2.62,0.81-3.34-0.92c1.51-4.56,2.32-9.35,4.61-13.65c0.6-1.13,1.04-2.34,1.96-3.26
			c1.93-1,2.9-3.12,4.82-4.13c1.25,0.16,1.67-1.58,2.98-1.3c0.69,0.31,1.36,0.67,1.91,1.22c0.23,1.2-0.89,1.49-1.45,2.16
			c-0.3,0.27-0.61,0.51-0.94,0.73c-0.9,0.55-1.66,1.28-2.51,1.88c-0.18,0.45,0.02,1.06-0.56,1.34
			C114.62,82.44,114.47,83.57,113.41,84.03z"/>
		<path class="st2" d="M81.67,99.75c-2.82,0.36-5.63,0.72-8.45,1.07c1.88-1.57-1.06-1.42-0.81-2.63
			C75.46,99,78.85,97.35,81.67,99.75z"/>
		<path class="st5" d="M105.63,85.23c-0.37,1.49-0.75,2.98-1.12,4.47c-0.19-0.85-0.36-1.7-0.56-2.55
			C103.6,85.71,104.24,85.14,105.63,85.23z"/>
		<path class="st2" d="M100.21,77.42c0.71,0.59,1.42,1.18,2.59,2.14C100.55,79.88,100.2,78.87,100.21,77.42
			C100.21,77.42,100.21,77.42,100.21,77.42z"/>
		<path class="st2" d="M72.68,96.69c0.56,0,1.14-0.07,1.69,0.02c0.45,0.08,0.87,0.36,1.47,0.63C74.5,98.35,73.66,97.09,72.68,96.69z
			"/>
		<path class="st13" d="M113.46,99.6c-0.81,0.21-1.63,0.41-2.44,0.62c0-0.42,0-0.84,0-1.26C111.94,98.78,112.81,98.75,113.46,99.6z"
			/>
		<path class="st0" d="M97.82,148.8c0.73-2.76-0.9-4.65-2.4-6.6c-0.41-0.37-0.59-0.88-0.3-1.32c2.36-3.68,2.51-4.15,2.33-7.76
			c0.07-0.28,0.21-0.51,0.41-0.72c1.02-0.66,1.47-2.29,3.06-1.98c1.27,0.25,2.25,0.57,3,2.11c0.43,0.88,1.17,1.43,1.03,2.69
			c-0.32,2.9,0.16,5.88-0.97,8.7c-0.69,0.47-0.37,1.23-0.52,1.85c0.19-0.59-0.15-1.33,0.47-1.81c2.45,1.63,0.61,3.68,0.56,5.56
			c-0.08,1.11-0.42,2.04-1.58,2.44C101.38,150.65,98.71,151.16,97.82,148.8z"/>
		<path class="st3" d="M61.11,154.3c-0.09-0.63-0.16-1.06-0.25-1.68c1.32-2.18,3.92-1.8,5.81-2.93c0.73-0.44,1.11-0.89,1.53-1.48
			c0.4-0.37,0.8-0.34,1.2,0c0.77-0.9,1.44-1.75,2.84-0.71c0.48,0.36,1.65,0.21,2.28-0.13c5.75-3.14,11.65,0.51,17.44-0.41
			c0.16-0.03,0.48,0.97,0.72,1.49c-2.9-0.08-5.79-0.39-8.68-0.56c-3.57-0.21-7.03,0.37-10.52,0.83l0.02-0.05
			c-1.44,1.06-3.29,1.08-4.83,1.88c-1.16,0.84-2.31,1.68-3.47,2.53c-0.31,0.52-0.73,0.89-1.34,1.03l0.01-0.03
			c-0.13,0.44-0.51,0.44-0.86,0.5C62.4,154.45,61.69,154.74,61.11,154.3z"/>
		<path class="st3" d="M93.97,142.72c1.27-3.38,1.54-7.15,3.83-10.15c0.53,1.73,1.01,3.43-0.1,5.15c-0.91,1.42,1.77,2.54,0.68,3.74
			c-1.02,1.3-2.67-3.33-2.96,0.74C94.94,142.37,94.45,142.54,93.97,142.72z"/>
		<path class="st3" d="M101.27,153.06c-2.45-1.39-4.9-2.79-7.35-4.18c1.29-0.41,2.62,0.92,3.9-0.08c1.46,1.22,3.85,0.95,4.79,3
			c1.06-0.3,1.92,0.03,2.63,0.83c0.29,0.32,0.52,0.68,0.61,1.11c-0.04,0.92-0.35,1.66-1.33,1.95c-0.44,0.01-0.8-0.15-1.05-0.52
			C102.97,154.23,102.35,153.4,101.27,153.06z"/>
		<path class="st3" d="M65.43,144.6c0.22-0.37,0.45-0.73,0.67-1.1c1.88,0.02,3.98,0.9,5.32-1.29c0.36,0.34,0.73,0.66,1.07,1.02
			c0.35,0.38,1.21-0.25,1.28,0.65c-1.44-0.26-0.79,2.11-1.93,1.74C69.73,144.92,67.45,145.58,65.43,144.6z"/>
		<path class="st4" d="M91.89,138.03c-0.22,1.58-0.46,3.17-0.13,4.77c-0.69-1.5-2.8-1.31-4.01-3.69
			C90.57,141.28,91,139.22,91.89,138.03z"/>
		<path class="st4" d="M89.63,142.98c1.13,0.3,1.37,0.91,1.36,1.78C90.06,144.63,89.7,144.1,89.63,142.98z"/>
		<path class="st3" d="M76,141.97c-0.83,0.86-1.46,0.96-2.38,0.59C74.33,141.9,74.9,141.43,76,141.97z"/>
		<path class="st3" d="M69.03,148c-0.4,0-0.8,0-1.2,0c-0.12-0.43-0.24-0.86-0.36-1.29C68.43,146.61,68.63,147.43,69.03,148z"/>
		<path class="st3" d="M93.77,146.02c0.27,0.2,0.58,0.3,0.67,0.5c0.18,0.44-0.12,0.75-0.53,0.76c-0.19,0.01-0.5-0.31-0.54-0.52
			C93.33,146.57,93.6,146.32,93.77,146.02z"/>
		<path class="st4" d="M124.12,126.71c0.44,0.36,0.88,0.72,1.33,1.08c-2.24,0.7-3.4-1.9-5.45-1.79c-0.73-1.12-2.54-0.96-2.96-2.46
			C119.4,124.6,121.76,125.65,124.12,126.71z"/>
		<path class="st28" d="M110.41,124.75c-1.92-0.55-3.78-1.21-5.49-2.26C107.03,122.57,109,122.98,110.41,124.75z"/>
		<path class="st4" d="M114.01,122.43c1.28-0.33,2.18,0.38,3.06,1.13C115.73,124.07,114.49,124.3,114.01,122.43z"/>
		<path class="st28" d="M108.62,119.43c1.27,0.37,2.53,0.77,3.47,1.79c-0.96-0.2-1.92-0.41-2.88-0.61l0,0
			C109.02,120.22,108.82,119.83,108.62,119.43z"/>
		<path class="st28" d="M109.21,120.61c-0.74,1.46-1.37,0.91-2.06-0.19C107.94,119.87,108.54,120.8,109.21,120.61
			C109.22,120.61,109.21,120.61,109.21,120.61z"/>
		<path class="st28" d="M112.12,125.66c-0.38-0.23-0.77-0.45-1.15-0.68c0.08-0.45,0.21-1.28,0.57-1.06
			C111.93,124.18,111.94,125.06,112.12,125.66z"/>
		<path class="st0" d="M139.12,162.56c-1.09,1.32-1.38,3.15-2.76,4.28c-0.71,0.85-1.8,1.13-2.66,1.8c-1.49,1.15-3.33,0.33-4.1-1.44
			c-1.79-4.12-2.4-8.36-1.42-12.78c1.16-4.32,2.73-8.45,5.68-11.93c0.43-0.45,0.92-0.72,1.57-0.58c0.9,2.54,3.33,0.91,4.86,1.77
			c2.25,3.84,1.36,7.88,0.83,11.91c-0.04,0.29-0.11,0.57-0.19,0.85c-0.24,1-1.11,1.87-0.65,3.04
			C140.24,160.65,139.93,161.7,139.12,162.56z"/>
		<path class="st7" d="M175.73,167.33c0.61,0.87-1.47,1.57-0.19,2.41c1.41,0.93,2.74,0.59,3.92-0.54c0.72,1.47-0.43,2.14-1.3,2.85
			c-1.14,0.92-2.42,1.63-3.75,2.24c-0.25,0.12-0.52,0.22-0.79,0.3c-0.66,0.2-1.31,0.4-1.95,0.67c-2.68,1.16-3.09,3.16-2.1,5.68
			c-0.16,0.84,0.21,1.33,1.04,1.52c0.25,0.1,0.47,0.24,0.69,0.39c0.42,0.37,0.73,0.83,0.93,1.36c0.37,2.53-1.89,1.88-3.08,2.54
			c-0.8-0.44-1.59-0.88-2.39-1.32c-0.86-0.34-1.44-0.96-1.75-1.83c-0.18-0.4-0.35-0.79-0.53-1.19c-0.49-2.18-1.17-4.37,0.07-6.53
			c0.15-0.42,0.3-0.84,0.46-1.26c1.53-3.78,4.53-5.27,8.4-5.4c0.2-0.19,0.4-0.39,0.61-0.58
			C174.43,167.99,174.7,167.15,175.73,167.33z"/>
		<path class="st4" d="M199.17,207.6c-0.39-0.41-0.78-0.82-1.18-1.23c-1.9-2.74-2.33-5.77-1.85-9c0.37-1.32,1.1-2.49,1.71-3.7
			c0.66-1.08,1.48-2.03,2.26-3.02c0.62-0.56,1.3-1.04,2.05-1.42c0.27-0.1,0.55-0.15,0.83-0.17c1.44,0.21,2.78,0.61,3.55,2.01
			c0.01,0.75-0.53,1.21-0.91,1.76c-0.61,0.79,0.32,1.35,0.31,2.05c-0.2,0.98-1.3,0.72-1.79,1.31c-0.15,0.14-0.22,0.31-0.21,0.52
			c-1.02,1.05-2.02,2.12-2.52,3.54c-0.66,0.84-0.56,1.7-0.03,2.55c0.51,1.55,1.54,2.79,2.44,4.11c0.62,2.04-0.83,2.15-2.18,2.35
			C200.58,209.1,199.66,208.67,199.17,207.6z"/>
		<path class="st10" d="M195.03,175.79c0.72,0.57,1.19,1.89,2.45,0.59c0.37-0.38,0.42,0.32,0.51,0.61c0.43,0.65,0.03,1.2-0.21,1.77
			c-0.31,0.55-0.8,0.93-1.31,1.28c-1.3,1.97-2.59,3.94-3.89,5.91c-1.46,2.07-2.92,4.15-5.3,5.31c-0.95,0.12-1.76,0.71-2.72,0.78
			c-0.79,0.04-1.49,0.3-2.11,0.8c-0.25,0.13-0.5,0.21-0.77,0.27c-0.43,0.06-0.85,0.03-1.26-0.08c-0.91-0.35-1.44-0.99-1.5-1.98
			c0.02-0.3,0.1-0.58,0.23-0.84c0.19-0.22,0.42-0.39,0.69-0.51c0.26-0.1,0.53-0.16,0.81-0.21c1.1-0.06,1.99-0.56,2.74-1.34
			c0.68-0.64,1.92-0.59,2.19-1.75c0.32-1.01,1.09-1.72,1.68-2.54c0.25-0.31,0.53-0.59,0.84-0.83c0.84-0.64,1.6-1.35,2.26-2.18
			c0.71-0.93,1.33-1.94,2.4-2.54c0.51-0.3,0.99-0.63,1.13-1.27c0.05-0.24,0.14-0.47,0.24-0.69
			C194.34,176.04,194.63,175.83,195.03,175.79z"/>
		<path class="st7" d="M139.28,134.78c2.32,0.76,4.47,1.88,6.54,3.15c0.54,1.04,0.73,2.06-0.13,3.03c-0.22,0.23-0.49,0.39-0.78,0.49
			c-0.93,0.27-1.81-0.28-2.73-0.16c-3.69-0.45-6.73-2.29-9.55-4.56c-0.03-0.17-0.06-0.34-0.1-0.51c2.07-0.58,4.09-1.76,6.3-0.47
			C138.98,135.43,139.13,135.11,139.28,134.78z"/>
		<path class="st7" d="M169.13,186.73c0.1-0.72,0.23-1.26,1.25-1.11c0.94,0.14,1.81-0.11,1.21-1.43c1.23-0.71,1.57,0.26,1.88,1.07
			c0.39,1.01,0.61,2.08,0.89,3.12c0.35,1.42,1.47,2.12,2.62,2.8c0.16,0.21,0.24,0.46,0.23,0.73c-0.13,0.38-0.42,0.87-0.71,0.82
			c-1.7-0.33-0.2,0.94-0.64,1.22c-0.19,0.21-0.4,0.37-0.65,0.49c-0.68,0.23-1.37,0.3-2.06,0.05c-0.87,0.01-1.39-0.48-1.74-1.21
			c0.05-1.35-1.5-1.82-1.66-3.06C169.01,189.14,169.11,187.92,169.13,186.73z"/>
		<path class="st10" d="M124.76,185.3c-0.03,0.83-0.46,1.35-1.29,1.26c-2.69-0.31-5.27,0.7-7.94,0.65
			c-2.13-0.03-2.04,0.07-2.41,2.21c-0.23,1.31-1.55,0.89-2.19,0.68c-2.51-0.81-3.43,0.38-3.68,2.63c-1.43-0.16,0.08-1.79-1.11-1.99
			c0.23-1.82,2.08-2.02,3.07-3.09c2.37-2.18,5.34-1.32,8.08-1.61C119.84,186.42,122.25,185.36,124.76,185.3z"/>
		<path class="st24" d="M134.39,169.15c-3.87,0.86-5.49-0.08-6.28-4.11c-0.67-3.4-0.76-6.87,0.19-10.29c0.26-0.3,0.5-0.29,0.71,0.05
			c-0.53,2.5-0.6,5.03-0.57,7.56c0,0.29,0,0.71,0.18,0.85c1.12,0.9,2.68,1.56,1.56,3.51c-0.02,0.04,0.15,1.95,1.16,1.62
			c0.73-0.23,1.93,0.97,2.35-0.81c0.26-1.09,1.87,0.02,2.68-0.69C136.16,168,134.9,168.26,134.39,169.15z"/>
		<path class="st31" d="M129.01,154.8c-0.24-0.02-0.48-0.03-0.71-0.05c0.03-0.79,0.07-1.57,0.1-2.36l0.16-0.16l-0.06-0.22
			c0.27-0.64-0.23-1.48,0.51-2.01c0.39-1.04,0.78-2.08,1.17-3.12c0.33-0.61,0.4-1.39,1.17-1.69c0.23-0.37,0.46-0.73,0.69-1.1
			c0.75-0.52,1.51-1.04,2.26-1.56c-1.61,2.45-2.93,5.04-4.11,7.72C129.54,151.73,128.96,153.17,129.01,154.8z"/>
		<path class="st10" d="M132.5,182.84c0.11,0.82,0.17,1.9-0.77,1.99c-2.33,0.21-4.51,2.82-7,0.49
			C127.32,184.49,129.91,183.66,132.5,182.84z"/>
		<path class="st10" d="M139.8,183.59c0.13-1.33-0.47-1.93-1.8-1.8c-0.69,0.37-1.26,0.51-1.2-0.61c0.72-0.43,1.43-0.86,2.15-1.3
			c1.61-0.48,2.55,0.96,3.88,1.32c0.27,0.13,0.49,0.32,0.68,0.54c0.17,1.31-0.73,1.84-1.68,2.34
			C141.13,184.04,140.13,185.19,139.8,183.59z"/>
		<path class="st24" d="M142.8,181.79c-1.72,0.25-2.38-1.64-3.85-1.9c0.69-0.55,1.38-1.09,2.06-1.64c0.59-0.22,1.18-0.45,1.77-0.67
			C143.43,178.97,145.3,180.38,142.8,181.79z"/>
		<path class="st36" d="M107.43,155.98c1.48,1.64,2.7,3.41,3.02,5.67c-1.73-0.53-2.78-1.87-3.83-3.21c-0.48-0.3-0.68-0.73-0.62-1.3
			C106.3,156.54,106.72,156.09,107.43,155.98z"/>
		<path class="st8" d="M149.92,144.68c-0.77-0.2-1.55-0.41-2.32-0.61l-0.17-0.18l-0.25,0.04c-1.44-1.16-3.15-1.77-4.87-2.37
			c-0.05-0.18-0.1-0.36-0.16-0.53c1.01-0.01,2.03-0.01,3.04-0.02c1.34,0.83,2.74,1.51,4.36,1.57
			C150.53,143.13,151.42,143.71,149.92,144.68z"/>
		<path class="st25" d="M151.22,195.59c0.03,0.2,0.05,0.4,0.08,0.6c-0.46,0.94-0.93,1.87-1.39,2.81c-0.75,0.68-1.5,1.36-2.25,2.04
			c-0.11-0.1-0.22-0.2-0.33-0.29c-0.31-0.54-0.32-1.11-0.17-1.7C149.12,198.61,148.92,195.63,151.22,195.59z"/>
		<path class="st24" d="M136.8,181.18c0.25,0.49,0.7,0.6,1.2,0.61c-1.7,1.13-3.54,1.49-5.54,1.07
			C133.81,182.04,135.13,181.16,136.8,181.18z"/>
		<path class="st29" d="M182.24,194.36c-2.5,1.27-5.07,1.75-7.78,0.68c0.36-0.51,0.91-0.61,1.47-0.67c1-0.22,2.12,0.07,3.02-0.64
			c0.23-0.15,0.47-0.24,0.73-0.31C180.68,193.34,181.54,193.65,182.24,194.36z"/>
		<path class="st20" d="M163.19,236.36c-1.82-0.46-3.19,1.22-4.94,1.07c1.46-0.92,2.92-1.85,4.38-2.77
			c0.31-0.44,0.71-0.45,1.16-0.25C164.19,235.24,163.58,235.77,163.19,236.36z"/>
		<path class="st8" d="M167.99,233.36c-0.99,0.7-1.97,1.51-3.22,0.5c-0.01-0.65,0.48-0.84,0.96-1.04c0.35-0.27,0.69-0.53,1.04-0.8
			c0.25-0.12,0.5-0.13,0.76-0.02C167.96,232.36,168.28,232.76,167.99,233.36z"/>
		<path class="st8" d="M187.3,190.83c-0.29,0.36-0.57,0.73-0.86,1.09c-0.76,0.41-1.52,0.83-2.28,1.24
			c-0.12-0.06-0.24-0.12-0.36-0.17c-0.66-0.72-0.22-1.18,0.39-1.59C185.23,191.21,186.26,191.02,187.3,190.83z"/>
		<path class="st31" d="M169.75,190.2c0.33,1.14,3.12,0.95,1.66,3.06C170.37,192.5,169.76,191.51,169.75,190.2z"/>
		<path d="M182.27,194.74c-1.23-0.08-1.52-0.1-2.75-0.19c-0.67-1.5,0.61-1.13,1.06-1.55c0.4,0,0.81,0,1.21,0
			c0.35,0.37,0.78,0.69,0.77,1.28L182.27,194.74z"/>
		<path class="st35" d="M126,163.19c-0.37-1.56-0.67-2.89,0-4.69C126,160.4,126,161.8,126,163.19z"/>
		<path class="st18" d="M183.25,196.21c0.88-0.91,1.69-0.66,2.75-0.14C184.84,196.97,184.09,195.92,183.25,196.21z"/>
		<path class="st37" d="M150.66,239.99c-0.07,0.15-0.13,0.3-0.17,0.46c-1.36,0.23-2.72,0.46-4.09,0.7
			C147.56,239.79,149.12,239.92,150.66,239.99z"/>
		<path class="st38" d="M165.73,232.83c-0.32,0.35-0.64,0.69-0.96,1.04c-0.2-0.07-0.32,0-0.37,0.21c-0.16,0.21-0.38,0.34-0.63,0.4
			c-0.38,0.06-0.76,0.12-1.14,0.18C163.22,233.3,164.37,232.89,165.73,232.83z"/>
		<path class="st8" d="M182.57,194.28c-0.59-0.22-0.75-0.71-0.77-1.28c0.2,0,0.39,0,0.59,0c0.73-0.53,1.07,0.32,1.61,0.45l0.16,0.13
			C183.77,194.13,183.28,194.45,182.57,194.28z"/>
		<path class="st8" d="M176.4,194.92c-0.64,0.04-1.29,0.08-1.93,0.13c-0.54,0.04-1.01-0.08-1.32-0.57c0.68-0.23,1.36-0.46,2.05-0.69
			C175.5,194.26,176.64,193.86,176.4,194.92z"/>
		<path class="st15" d="M129.02,150c0.14,0.75,0,1.43-0.51,2.01C128.78,151.37,126.24,150.02,129.02,150z"/>
		<path class="st13" d="M103.73,155.04c-0.34-0.14-0.69-0.28-1.03-0.43c-0.2-0.15-0.4-0.3-0.59-0.45c-0.28-0.37-0.55-0.74-0.83-1.1
			C102.65,153.02,103.42,153.75,103.73,155.04z"/>
		<path class="st37" d="M103.25,188.37c-0.67,0.14-1.3,0.28-2.3,0.49C101.81,187.68,102.45,187.57,103.25,188.37z"/>
		<path class="st18" d="M116.97,185c1.35-0.56,1.92-0.51,3.06,0C118.82,185,118.22,185,116.97,185z"/>
		<path class="st22" d="M193.18,196.78c0.12-0.25,0.23-0.5,0.35-0.74c0.47,0.6,1.19,1.16,0.26,1.94
			C193.58,197.58,193.38,197.18,193.18,196.78z"/>
		<path class="st38" d="M163.8,231.57c0.07-0.6,0.2-1.17,0.99-1.1c0.13,0.01,0.37,0.23,0.35,0.31
			C164.98,231.52,164.35,231.49,163.8,231.57L163.8,231.57z"/>
		<path class="st23" d="M169.98,196.6c-0.52-0.05-0.46-0.36-0.43-0.63c0.03-0.31-0.21-0.84,0.43-0.71c0.16,0.03,0.33,0.44,0.33,0.68
			C170.31,196.18,170.09,196.41,169.98,196.6z"/>
		<path class="st3" d="M62.53,154.41c-0.25,0.52-0.49,1.04-0.74,1.56l0.01-0.01c-0.36,0.66-0.68,1.37-1.4,1.75
			c-0.32,0.24-0.64,0.47-0.96,0.71c0.21-1.46-0.53-3.18,1.19-4.22C61.25,154.37,62,153.43,62.53,154.41z"/>
		<path class="st7" d="M50,167.99c0-1.18,0-2.36,0-3.54c0.13-0.01,0.26-0.02,0.38-0.03c0.28,1.58,0.56,3.16,0.91,5.17
			C50.68,168.83,50.34,168.41,50,167.99C50,167.99,50,167.99,50,167.99z"/>
		<path class="st24" d="M141.82,183.67c-1.48,1.3-3.18,2.2-5.03,2.84c-0.31-0.7-1.69-1.53,0.32-1.91c0.93-0.18,1.79-0.66,2.69-1.01
			C140.45,184.23,141.16,183.36,141.82,183.67z"/>
		<path class="st10" d="M132.16,188.45c-1.3,0.55-2.6,1.11-3.89,1.66c-0.36-0.01-0.71-0.01-1.07-0.02
			c-0.58-0.25-1.17-0.51-1.85-0.81c0.95-0.72,2.33,0.21,3.06-0.9C129.65,188.74,130.95,186.1,132.16,188.45z"/>
		<path class="st10" d="M128.52,188.43c-0.99-0.2-2.09,0.35-2.85-1.14C126.81,187.55,127.71,187.65,128.52,188.43z"/>
		<path class="st10" d="M239.97,160.19c-0.21,0-0.42,0.01-0.63,0.01c-1.45-2.15-2.9-4.31-4.35-6.46c1.46-0.05,2.92-0.1,4.38-0.14
			C240.51,155.71,238.57,158.1,239.97,160.19z"/>
		<path class="st10" d="M232.75,152.49c-0.22-0.87-0.89-1.2-1.66-1.42c-0.3-0.33-0.61-0.66-0.91-0.99c0.68,0.12,1.38,0.42,2.03,0.33
			c2.79-0.37,3.31,1.05,2.82,3.37C234.07,153.69,233.81,152.37,232.75,152.49z"/>
		<path class="st10" d="M243.53,150.01c-1.19-0.3-2.38,0.63-3.56-0.01c-0.81-0.17-1.51-0.48-0.32-1.11c0.65-0.34,1.61,0.1,2.15-0.72
			C242.55,148.63,243.18,149.18,243.53,150.01z"/>
		<path class="st5" d="M167.34,232.05c0.62-0.43,1.23-0.86,1.85-1.29c0.39-0.16,0.77-0.32,1.16-0.48c0.71,1.37-0.38,2.8-2.36,3.08
			C167.77,232.93,167.56,232.49,167.34,232.05z"/>
		<path class="st5" d="M163.76,234.47c0.21-0.13,0.42-0.27,0.63-0.4c0.21,1.68-0.2,2.45-1.2,2.29
			C163.38,235.73,163.57,235.1,163.76,234.47z"/>
		<path class="st19" d="M128.12,241.86c1.19-0.57,2.29-0.41,3.28,0.46C130.27,242.39,129.14,242.51,128.12,241.86z"/>
		<path class="st7" d="M135.45,234.44c-1.37,1.62-2.82,3.16-4.69,4.22c-1.74,0.42-3.4,1.57-5.31,0.63l0.04,0.01
			c-3.24-0.34-6.18-1.58-9.04-3.03c-0.27-0.36-0.53-0.72-0.8-1.08c-0.39-0.49-1.39-0.31-1.38-1.25c0.1-1,0.69-1.79,1.17-2.62
			c1.11-1.13,2.07,0.19,3.11,0.19c0.77,0.19,1.44,0.61,2.13,0.99c5.7,3.15,7.27,2.82,11.32-2.41c0.33-0.28,0.71-0.5,1.11-0.67
			c0.42-0.14,0.84-0.17,1.27-0.09c0.78-0.16,0.52,1.51,1.56,0.89c0.74,0.49,0.7,1.1,0.25,1.76
			C135.36,232.62,135.84,233.66,135.45,234.44z"/>
		<path class="st2" d="M110.41,218.38c-0.2-0.6-0.4-1.2-0.6-1.8c-0.09-0.11-0.17-0.22-0.26-0.32c0.07-0.28,0.23-0.47,0.49-0.59
			c1.45,0.13,1.92-1.13,2.72-1.92c0.96-0.8,1.92-0.53,2.89,0c2.75,1.34,5.59,2.14,8.68,1.62c0.7-0.12,1.4-0.07,2.04,0.29
			c0.84,1.16-0.26,1.35-0.9,1.57c-2.4,0.86-4.86,1.18-7.23,0c-0.87-0.43-1.75-0.66-2.22-0.73c2.26,0.73,2.28,0.81,0.37,3.27
			c-1.95-0.2-3.72,1.11-5.69,0.7C109.88,219.87,109.97,219.15,110.41,218.38z"/>
		<path class="st6" d="M107.61,228.57c-0.16-0.14-0.23-0.32-0.22-0.53c-0.18-1.28-1.18-1.99-2.01-2.82
			c-0.33-0.68-0.59-1.4-0.99-2.05c0.01-1.21,1.49-0.9,1.82-1.79c1.1-0.82,2.44-0.44,3.65-0.71c0.2,0.18,0.34,0.4,0.45,0.64
			c0.29,1.14,0.75,2.23,1.18,3.32c0.32,1.15,0.58,2.31,0.27,3.52c-0.44,0.76-1.04,1.27-1.94,1.39
			C108.96,229.53,108.27,229.08,107.61,228.57z"/>
		<path class="st8" d="M109.8,215.95c0.01,0.21,0.01,0.42,0.02,0.63c-3.87,1.13-7.71,1.75-11.35-0.74
			c3.58,0.68,7.15,1.45,10.73,0.01C109.42,215.74,109.62,215.77,109.8,215.95z"/>
		<path class="st8" d="M109.83,221.42c-0.02-0.22-0.04-0.44-0.05-0.66c-1.19-0.16-2.51,0.43-3.56-0.58c0.99-1.55,3.02-0.68,4.2-1.8
			c0.01,0.7-0.06,1.44,0.72,1.85C111.14,221.1,110.78,221.58,109.83,221.42z"/>
		<path class="st30" d="M106,220.17c1.19,0.2,2.52-0.5,3.56,0.58c-0.92,1.73-2.37,0.45-3.56,0.61C106,220.97,106,220.57,106,220.17z
			"/>
		<path class="st8" d="M103.81,223.18c-1.79-1.3-3.89-1.53-5.99-1.75C100.26,220.5,102.34,220.8,103.81,223.18z"/>
		<path class="st8" d="M104.4,223.16c1.21,0.06,1.22,0.95,1.27,1.82c0.14,0.15,0.18,0.31,0.14,0.46c-0.05,0.15-0.09,0.23-0.14,0.23
			c-1.02,0.24-0.92-0.73-1.27-1.2c-0.47-0.31-0.57-0.78-0.59-1.29C104,223.17,104.2,223.16,104.4,223.16z"/>
		<path class="st10" d="M109.81,229.17c0.6-0.4,1.2-0.8,1.8-1.2c0.91-0.32,1.62,0.53,2.5,0.43c0.62,0.28,1.07,0.74,1.39,1.33
			c0.41,0.57-0.15,1.29,0.3,1.85c0.06,1.13-1.02,1.7-1.3,2.66c-0.36-0.1-0.72-0.19-1.09-0.29c-0.77-1.07-1.61-2.04-3.01-2.26
			c-0.2-0.23-0.4-0.46-0.6-0.69C109.4,230.38,109.28,229.77,109.81,229.17z"/>
		<path class="st13" d="M105.63,225.51c-0.01-0.18,0-0.36,0.04-0.53c1.2,0.67,1.92,1.6,1.72,3.05c-0.72-0.22-0.6-1.44-1.6-1.33
			c0-0.19-0.06-0.37-0.18-0.53C105.28,225.94,105.29,225.72,105.63,225.51z"/>
		<path class="st7" d="M203.4,174.04c1.88-1.38,1.28-3.85,2.42-5.56c0.52,0.51,1.11,0.83,1.87,0.61c3.52-1.02,7.11-0.55,10.68-0.52
			c2.68,1.1,5.66,1.53,7.92,3.57c-1.99,0.11-4.05,0.25-1.59,2.8c0.92,0.95-0.43,1.04-0.4,1.6c-0.37-0.08-0.74-0.15-1.1-0.23"/>
		<path class="st9" d="M146.39,193.64c1.9-3.55,1.08-7.04-0.09-10.58c-0.52-1.57-1.74-0.85-2.65-1.14
			c-0.28-0.04-0.56-0.08-0.84-0.13c-0.13-0.8,2.03-1.9-0.46-2.48c-0.79-0.18,1.72-0.76,0.45-1.73c1.68-1.69,3.8-1.81,5.98-1.71
			c4.11,3.24,4.37,7.87,4.49,12.53c0.03,1.17-0.21,2.34-0.32,3.52c-0.45,1.2-0.35,2.6-1.31,3.61c-0.14,0.01-0.29,0.03-0.42,0.08
			c-1.39,1.02-1.96,2.85-3.62,3.59c-0.84,0.79-1.51,1.93-2.97,1.34c-0.64-0.47-0.95-1.12-1.02-1.9c0.17-1.54,1.22-2.57,2.17-3.65
			C145.98,194.53,146.19,194.09,146.39,193.64z"/>
		<path class="st2" d="M116.41,219.49c0.55-1.25,1.24-2.48-1.1-2.63c-0.76-0.05-1.43-0.7-1.48-1.95c4.2,1.77,8.35,3.67,12.77,1.02
			c0.42-1.74,2.35-1.56,3.3-2.63c1.32-0.62,2.08-1.91,3.24-2.72c0.22-0.45,0.44-0.89,0.66-1.34c0.46-0.97,0.14-2.24,1.11-3.02
			c2.53-0.3,1.04,2.46,2.39,3.24c0.4,0.23-0.65,1.36-0.97,2.01c-0.77,1.54-1.81,3.29-1.18,5.21c0.51,1.56-0.03,2.06-1.55,1.8
			c-0.93-0.46-1.22-0.33-2.1,0.35c-1.03,0.8-2.21,1.36-3.52,1.59c-1.76,0.29-3.55,0.45-5.32,0.38c-1.64-0.06-1.91-0.54-1.63-2.03
			c0.03-0.16-0.16-0.04-0.23-0.04c-1.31,0.1-2.38,0.98-3.67,1.17C116.84,219.85,116.6,219.72,116.41,219.49z"/>
		<path class="st18" d="M98.26,213.96c0.49-0.52,1.34-0.75,1.52-0.48c0.48,0.72-0.34,0.61-0.72,0.67
			C98.83,214.18,98.57,214.03,98.26,213.96z"/>
		<path class="st16" d="M112.21,196.78c-1.28-0.24-1.58-0.81-0.59-1.8C111.82,195.58,112.01,196.18,112.21,196.78z"/>
		<path class="st39" d="M80.43,202.18c-0.56-0.08-1.18-0.06-1.34-0.78c-0.02-0.08,0.22-0.3,0.35-0.31
			C80.21,201.02,80.35,201.58,80.43,202.18L80.43,202.18z"/>
		<path class="st10" d="M242.04,164.38c-0.41-2.18-1.23-3.6-0.67-5.53C242.07,160.6,242.67,162.07,242.04,164.38z"/>
		<path class="st2" d="M241.44,189.42c-0.1-0.55-0.22-0.83-0.16-1.06c0.07-0.26,0.27-0.59,0.49-0.68c0.4-0.16,0.48,0.19,0.37,0.47
			C242,188.51,241.77,188.83,241.44,189.42z"/>
		<path class="st4" d="M243,169.19c0-0.77,0-1.55,0-3.06C243.72,167.69,243.82,168.47,243,169.19C243,169.19,243,169.19,243,169.19z
			"/>
		<path class="st4" d="M244.46,163.95c-0.5,0.46-0.68,0.62-0.86,0.79c-0.15-0.18-0.45-0.39-0.42-0.53c0.05-0.22,0.3-0.49,0.51-0.55
			C243.88,163.62,244.14,163.82,244.46,163.95z"/>
		<path class="st8" d="M185.22,144.75c-0.16-0.2-0.33-0.39-0.49-0.59c-0.64-1.23-1.4-2.36-2.65-3.06c-0.18-0.2-0.36-0.4-0.54-0.6
			c1.3-0.46,2.6-0.93,3.9-1.39c0.39,0.41,0.78,0.82,1.16,1.23c0.16,0.67,0.56,1.1,1.24,1.26c0.16,0.11,0.18,0.23,0.05,0.38
			C187.19,143.08,185.74,143.47,185.22,144.75z"/>
		<path class="st4" d="M168.58,146.9c4.99,0.62,9.97,1.32,15.01,0.68C178.53,148.48,173.49,149.04,168.58,146.9z"/>
		<path class="st4" d="M163.13,149.66c-0.75-0.12-1.5-0.25-2.24-0.37c-2.16-1.18-4.72-1.39-6.78-2.81c1.49-0.78,3.15,0.82,4.61-0.34
			c0.12,1.7,1.2,2.14,2.69,2.06C162.23,148.38,163.58,147.95,163.13,149.66z"/>
		<path class="st4" d="M172.86,151.73c-0.12-0.16-0.25-0.31-0.38-0.45c3.06-0.1,6.12-0.32,9.18-0.24c2.43,0.06,2.45,1.44,1.24,3.13
			c-0.23-1.17-0.27-2.05-2.13-1.98c-2.62,0.1-5.33,0.26-7.95-0.46L172.86,151.73z"/>
		<path class="st8" d="M151.8,141.02c1.71-0.07,3.02,0.91,4.41,1.69c-0.13,0.4-0.39,0.63-0.81,0.69c-1.21,0.16-2.24,1.36-3.6,0.6
			C151.89,143.01,152.02,142.02,151.8,141.02z"/>
		<path class="st0" d="M151.8,141.02c0.94,0.99,0.93,1.99,0,2.98c-0.2,0.19-0.41,0.39-0.61,0.58c-0.4,0.38-0.83,0.31-1.28,0.09
			l0.01,0.01c0.76-0.88-0.09-1.32-0.52-1.88c0.02-0.4,0.19-0.73,0.4-1.06c0.41-0.42,0.65-1.18,1.49-0.78
			C151.47,140.94,151.63,140.96,151.8,141.02z"/>
		<path class="st8" d="M191.1,153.7c-1.19,0.01-1.27-3.43-3.22-1.03c0.16-2.02,1.65-2.07,2.95-1.65
			C192.46,151.55,191.82,152.71,191.1,153.7z"/>
		<path class="st8" d="M191.96,156c-0.06-0.37-0.12-0.75-0.18-1.12c0.86-0.24,1.46-1.49,2.6-0.68c-0.39,1.09-0.79,2.18-1.18,3.27
			c0.01,0.39-0.19,0.56-0.58,0.5C191.87,157.49,191.44,156.91,191.96,156z"/>
		<path class="st7" d="M163.13,149.66c-0.11-1.04-1.39-0.7-1.73-1.46c1.93-0.82,3.32-0.58,3.6,1.84
			C164.33,150.11,163.66,150.24,163.13,149.66z"/>
		<path class="st8" d="M149.91,144.68c0.43-0.03,0.85-0.06,1.28-0.09c0.92,0.74,2.57,0.36,2.96,1.93
			C152.6,146.22,151.17,145.65,149.91,144.68z"/>
		<path class="st7" d="M155.4,143.4c0.27-0.23,0.54-0.46,0.81-0.69c0.55,0.38,1.1,0.76,1.65,1.14
			C156.77,145.14,156.14,143.98,155.4,143.4z"/>
		<path class="st4" d="M184.58,154.73c0.62,1.06,0.13,1.72,0.04,2.47C183.8,156.41,184.24,155.74,184.58,154.73z"/>
		<path class="st8" d="M185.15,146.91c0.6-0.72,0.25-1.46,0.04-2.2c0.86,0.25,1.21,0.92,1.11,1.72
			C186.23,147.04,185.61,146.91,185.15,146.91z"/>
		<path class="st14" d="M176.23,166.73c0.62-0.85,1.25-1.7,1.87-2.56c0.2,0.77-0.23,1.37-0.52,2.01
			C177.28,166.74,176.95,167.21,176.23,166.73z"/>
		<path class="st7" d="M176.23,166.73c0.45-0.18,0.9-0.36,1.35-0.55c0.43,2.08-1.18,0.88-1.86,1.16
			C175.88,167.14,176.06,166.94,176.23,166.73z"/>
		<path class="st3" d="M146.82,115.88c-0.46,0.06-0.89,0.04-1.08-0.5c-0.84-1.26-2.29-1.43-3.53-1.97l-0.01,0
			c-0.81-0.82-1.22-1.65-0.07-2.53c0.09-0.03,0.23-0.12,0.26-0.09c1.45,1.49,1.72-0.27,2.41-0.87c0.47-0.36,0.96-0.59,1.54-0.23
			c0.11,1.53,1.89,1.44,2.46,2.53c0.66,0.77,1.16,1.73,2.36,1.8c0.61,0.41,1.22,0.82,1.84,1.23c0.49,0.59,0.49,1.18,0,1.77
			c0,0.2,0,0.4,0,0.6c-0.46,0.66-0.96,1.18-1.83,0.62l0.02,0.01C150.14,116.69,148.49,116.28,146.82,115.88z"/>
		<path class="st4" d="M161.92,125.03c-1.94-1.12-3.87-2.23-5.81-3.35c-0.27-0.33-0.55-0.66-0.82-1
			C158.54,120.55,160.01,123.12,161.92,125.03z"/>
		<path class="st4" d="M161.23,118.88c0.29,0.36,0.58,0.72,0.87,1.08c-1.29,0.77,0.3,1.21,0.23,1.85c-2.86-0.46-3.35-1.15-2.12-2.94
			c-0.03-0.1-0.05-0.2-0.07-0.3C160.59,118.39,160.96,118.46,161.23,118.88z"/>
		<path class="st28" d="M151.17,118.23c0.61-0.21,1.22-0.41,1.83-0.62c-0.17,1.75,2.13,1.65,2.34,3.12
			C153.8,120.15,152.42,119.3,151.17,118.23z"/>
		<path class="st4" d="M153,117.01c0-0.59,0-1.18,0-1.77c0.71-0.17,1.41-0.3,1.88,0.48C154.22,116.11,153.97,117.09,153,117.01z"/>
		<path class="st4" d="M154.85,115.71c0.89,0.18,1.73,0.46,2.23,1.3C155.71,117.65,154.93,117.29,154.85,115.71z"/>
		<path class="st10" d="M200.49,168.64c1.78,0.36,2.16-1.3,3.18-2.27C203.47,169.91,203.39,169.97,200.49,168.64z"/>
		<path class="st25" d="M200.3,175.78c-0.76,1.2-1.68,2.24-2.92,2.97c0.2-0.59,0.4-1.17,0.6-1.76
			C198.8,176.69,199.27,175.71,200.3,175.78z"/>
		<path class="st7" d="M147.53,82.4c-1.01-0.63-1.76-1.5-2.35-2.52c-0.4-0.88-0.96-1.58-1.98-1.78c-1.31-0.69-2.62-1.38-3.93-2.07
			c-0.61,0.17-1.22,0.13-1.82-0.07c-3.94-1.43-7.97-1.54-12.06-0.88c-1.06-0.16-1.93,0.32-2.79,0.83c-0.27,0.11-0.55,0.18-0.84,0.2
			c-0.45,0-0.85-0.15-1.16-0.5c-0.95,0.04-1.79-0.09-1.84-1.31c0.13-0.19,0.25-0.39,0.38-0.58c2-1.01,4.13-1.66,6.24-2.39
			c0.03-0.13,0.05-0.27,0.07-0.41c5.18-0.44,10.33-0.57,15.26,1.5c1.17,0.49,2.45,0.83,3.33,1.87c0.02,2.33,2.23,1.83,3.42,2.66
			c0.65,0.95,1.29,1.91,1.94,2.86C149.53,81.24,148.01,81.44,147.53,82.4z"/>
		<path class="st28" d="M151.16,114.02c-1.2-0.05-2.9,0.53-2.36-1.8c0.38,0,0.75,0,1.13,0C149.78,113.2,150.98,113.26,151.16,114.02
			z"/>
		<path class="st4" d="M154,91.36c0,0.75,0,1.5,0,2.53C153.31,92.85,153.47,92.05,154,91.36z"/>
		<path class="st13" d="M125.38,71.35c-1.91,1.23-4.01,1.98-6.24,2.39C120.96,72.25,123.1,71.62,125.38,71.35z"/>
		<path class="st28" d="M187.84,141.6c-1.48,0.63-1.86,0.18-1.24-1.26C187.39,140.38,187.81,140.8,187.84,141.6z"/>
		<path class="st13" d="M115.13,103.25c0.47,0.75,1.91-1.87,1.89,0.55C116.3,103.91,115.68,103.71,115.13,103.25z"/>
		<path class="st7" d="M149.99,142.21c-0.2,0.2-0.4,0.4-0.6,0.6c-2.05,0.93-3.28-0.08-4.2-1.8l0,0c0.6-0.29,0.88-0.85,1.2-1.38
			c1.01-0.29,2-0.35,2.96,0.18c0.21,0.21,0.42,0.42,0.63,0.63C150.36,141.03,149.89,141.62,149.99,142.21z"/>
		<path class="st4" d="M149.36,139.8c-0.99-0.19-1.98,0.66-2.96,0c-0.34-0.44-0.34-0.87,0.03-1.28
			C147.6,138.51,148.63,138.82,149.36,139.8z"/>
		<path d="M149.99,142.21c-0.94-0.59-0.17-1.18,0-1.77c0.2-0.08,0.4-0.17,0.6-0.25c0.23,0.26,0.46,0.52,0.7,0.78
			C150.86,141.38,150.43,141.79,149.99,142.21z"/>
		<path class="st8" d="M146.43,138.52c-0.01,0.43-0.02,0.86-0.03,1.28c-0.02,0.78-0.42,1.18-1.2,1.2c0.59-0.95,0.65-2,0.63-3.07
			C146.24,137.91,146.37,138.18,146.43,138.52z"/>
		<path class="st28" d="M142.4,111.01c-0.59,0.8-0.01,1.6,0,2.39c-0.76-0.24-1.52-0.48-2.28-0.72c-0.02-0.16-0.07-0.31-0.12-0.46
			c0-0.21,0-0.41,0-0.62c0.55-0.64,1.18-1.09,2.09-0.84C142.19,110.84,142.3,110.93,142.4,111.01z"/>
		<path class="st28" d="M182.08,141.1c1.9,0.14,2.4,1.49,2.65,3.06C183.84,143.14,182.96,142.12,182.08,141.1z"/>
		<path class="st28" d="M146.82,115.88c1.81,0.13,4.06-0.56,4.36,2.36c-1.38-0.61-2.77-1.23-4.15-1.84
			C146.97,116.23,146.9,116.05,146.82,115.88z"/>
		<path class="st3" d="M116.99,91.17c-0.04-0.35,0.09-0.57,0.46-0.62c1.31,0.06,1-1.09,1.33-1.77l-0.02,0.02
			c0.64-0.8,1.11-1.85,2.44-1.61c1.28,0.66,2.62,1.25,3.23,2.72c-1.38,1.69-1.02,4.07-2.28,5.8c-2.21,1.92-4.65,2.71-7.48,1.48
			l-0.02-0.03c-1.23-1.87,1.82-0.82,1.56-2.35C115.99,93.65,116.74,92.4,116.99,91.17z"/>
		<path class="st10" d="M114.66,97.2c2.51-0.06,5-0.21,7.1-1.83c0.11,0.1,0.22,0.2,0.32,0.3c0.29,0.57,0.26,1.16,0.06,1.75
			c-0.44,0.98-0.78,2.03-1.8,2.61c-1.5,0.46-2.88,0.35-3.98-0.93C115.83,98.45,114.55,98.45,114.66,97.2z"/>
		<path class="st10" d="M116.99,91.17c0.42,2.47,0.67,4.88-2.36,6c-1.27-0.69-1.29-1.5-0.36-2.56
			C115.24,93.52,116.09,92.32,116.99,91.17z"/>
		<path class="st10" d="M120.63,85.26c0.58-0.65,1.16-1.3,1.73-1.95c2.43,2.19-0.1,3.05-1.15,4.31c-1.05-0.1-1.58,0.91-2.45,1.18
			c0.05-0.3,0.09-0.61,0.14-0.91c0.31-1.06,0.68-2.08,1.74-2.65L120.63,85.26z"/>
		<path class="st10" d="M118.78,88.78c0.51,0.79,0.74,1.67,0,2.36c-0.64,0.59-0.78-0.6-1.33-0.6
			C117.81,89.89,118.06,89.16,118.78,88.78z"/>
		<path class="st28" d="M141.05,109.11c1.47,0.14,2.54,1.57,4.14,1.27c-0.91,2.25-0.91,2.25-2.99,0.64c0,0,0,0,0,0
			c-0.29-0.52-1.53-0.06-1.21-1.19C141.01,109.58,141.03,109.35,141.05,109.11z"/>
		<path class="st30" d="M141,109.82c0.4,0.4,0.81,0.8,1.21,1.19c-0.8,0.2-1.6,0.39-2.4,0.59C139.15,110.3,139.83,109.9,141,109.82z"
			/>
		<path class="st13" d="M120.97,76.72c-0.72,0.23-1.44,0.47-2.16,0.7c0.6-0.59,1.2-1.19,1.8-1.78c0.48,0.03,0.96,0.06,1.44,0.09
			C121.69,76.05,121.33,76.38,120.97,76.72z"/>
		<path class="st13" d="M103.82,149c0.2,0,0.4,0,0.6,0c0.02,0.4,0.03,0.8,0.05,1.21c0.3,0.77,1.36,1.37,0.54,2.39
			c-0.8-0.4-1.6-0.8-2.4-1.2C103.27,150.72,104.02,150.1,103.82,149z"/>
		<path class="st3" d="M104,144.05c0,0.73,0,1.5,0,2.26c-0.14,0.03-0.26,0.06-0.26,0.05C103.33,145.49,103.3,144.69,104,144.05z"/>
		<path class="st13" d="M105.61,153.66c0.76,0.02,0.87,0.83,1.4,1.13c0.14,0.4,0.28,0.79,0.42,1.19c-0.44,0.43-0.88,0.86-1.32,1.29
			c-0.17-0.02-0.33-0.03-0.5-0.05c-0.47-0.57-0.94-1.14-1.41-1.71C105.01,155.15,105.21,154.33,105.61,153.66z"/>
		<path class="st36" d="M139.79,142.96c0.36,0.36,0.72,0.72,1.07,1.08c0.9,4.25,1.03,8.48-0.34,12.66
			c-0.27-1.39-0.26-2.79,0.12-4.15c0.89-3.17-0.13-6.11-0.98-9.08c-0.16-0.16-0.2-0.29-0.11-0.39
			C139.64,143.01,139.71,142.96,139.79,142.96z"/>
		<path class="st31" d="M139.79,142.96c-0.04,0.17-0.07,0.35-0.11,0.52c-0.28,0.05-0.74,0-0.82,0.16c-1.45,2.75-2.22,1.39-2.92-0.46
			c-0.13-0.36-0.24-0.72-0.36-1.08C137.23,141.16,138.57,141.78,139.79,142.96z"/>
		<path class="st4" d="M136.19,161.32c-0.22-0.94-0.12-1.59,0.72-2.2C137.48,160.15,136.85,160.65,136.19,161.32z"/>
		<path class="st24" d="M134.35,165.02c-0.34,0.23-0.54,0.47-0.76,0.48c-0.17,0.01-0.36-0.25-0.54-0.39
			c0.19-0.18,0.36-0.45,0.59-0.5C133.8,164.56,134.03,164.82,134.35,165.02z"/>
		<path class="st36" d="M140.54,156.68c-0.05,0.82,0.04,1.67-0.57,2.36C139.23,158.02,139.63,157.29,140.54,156.68z"/>
		<path class="st24" d="M171.04,182.89c0.77,0.27,1.53,0.54,2.3,0.81c0.22,1.16,0.45,2.32,0.67,3.48c0.35,0.6,0.46,1.21-0.02,1.8
			c-1.47-1.27-0.14-3.93-2.4-4.8C171.41,183.75,171.22,183.32,171.04,182.89z"/>
		<path class="st37" d="M172.8,175.8c-0.76-0.02-1.18-0.39-1.21-1.17c0.53-0.4,1.02-0.95,1.8-0.62
			C173.16,174.59,174.38,175.65,172.8,175.8z"/>
		<path class="st24" d="M169.18,181.22c0.63,0.57,1.27,1.14,1.9,1.71C168.56,182.79,168.35,182.6,169.18,181.22z"/>
		<path class="st28" d="M212.26,188.26c-0.92,0.12-1.68,0.55-2.33,1.21c-1.42,0.2-2.09,1.79-3.56,1.91
			c-1.04-1.02-2.31-1.56-3.71-1.83c3.16-2.59,6.91-3.67,10.85-4.26c1.24,0.1,2.72-1.09,3.64,0.69
			C215.53,186.75,213.71,187.1,212.26,188.26z"/>
		<path class="st31" d="M205.57,210.65c-1.71,0.14-2.92-0.85-4.15-1.81c0.82-0.44,2.59,0.11,1.95-1.86c0.35,0.05,0.7,0.1,1.05,0.15
			c0.65,1.74,2.19,1.98,3.74,2.18c0.72,1.11,2.68-0.65,3.05,1.31l0.02-0.01C209.35,211.03,207.46,210.98,205.57,210.65z"/>
		<path class="st28" d="M201.04,200.38c0,0.8,0,1.61,0.01,2.41C200.11,201.99,199.41,201.18,201.04,200.38z"/>
		<path class="st5" d="M177,191.29c0.78-0.23,1.55-0.45,2.33-0.68c0.05,0.89,0.39,1.6,1.26,1.97c-0.39,0.41-0.79,0.82-1.18,1.23
			c0,0,0.01,0,0.01,0c-1.01,0.45-2.1,1.81-2.92-0.24c-0.04-0.6,0.14-1.12,0.5-1.59C177,191.75,177,191.52,177,191.29z"/>
		<path class="st5" d="M184,193.04c-0.54-0.15-1.07-0.3-1.61-0.45c0.06-1.22,0.93-1.21,1.8-1.19
			C183.85,191.91,183.8,192.46,184,193.04z"/>
		<path class="st8" d="M185.88,188.59c0.58-0.27,1.16-0.54,1.73-0.8c0.05,0.28,0.2,0.6,0.12,0.85
			C187.35,189.83,186.62,188.84,185.88,188.59z"/>
		<path class="st25" d="M193.03,178.73c0.43-0.62,0.87-1.24,1.3-1.86C195.1,178.34,193.89,178.41,193.03,178.73z"/>
		<path class="st3" d="M134.91,206.24c0.04-0.4,0.07-0.68,0.12-1.08c0.36-0.31,0.76-0.53,1.24-0.59c1.38,0.01,2.23,0.48,1.78,2.08
			c-0.22,0.77,0.12,1.5,0.18,2.25c0.56,1.95-0.97,3.83-0.26,5.78c0,0.38,0,0.91,0.01,1.29c-0.76,2.01-0.02,4.19-0.69,6.21
			c-1,1.57-0.36,3.21-0.22,4.84c-0.09,0.72,0.09,1.47-0.19,2.18c-0.79,0.96-2.02,0.01-2.86,0.79c-0.36-0.1-0.5-0.15-0.85-0.25
			c-0.68-2.15,0.15-4.14,0.62-6.17c0.18-0.47,0.49-0.83,0.87-1.16c0.09-0.08,0.42-0.12,0.2-0.35c-0.03-0.03-0.34,0.11-0.56,0.04
			c-0.93-1.35-1.81-2.7-0.55-4.32c0.52,0.15,1.65,0.15,1.06-0.41c-2.49-2.33,0.6-4.26,0.35-6.54
			C134.93,208.85,136.17,208.19,134.91,206.24z"/>
		<path class="st2" d="M138,208.77c-0.32-0.71-0.74-1.37-0.39-2.23c0.61-1.53-0.58-1.28-1.41-1.37c-0.14-0.15-0.2-0.3-0.18-0.47
			c0.02-0.17,0.05-0.26,0.09-0.26c0.72-0.81,1.86-0.98,2.63-1.7c0.87-0.11,0.09-0.88,0.46-1.18c1.12-0.63,2.24-1.27,3.36-1.9
			c0.76-0.32,1.07,0.21,1.38,0.73c0.32,0.86,0.46,1.68-0.46,2.29c-0.61,0.34-0.96,0.87-1.17,1.53c-0.79,0.83-1.89,0.8-2.89,0.98
			c-0.84,0.15-0.91,0.53-0.6,1.18c-0.1,0.8-0.2,1.6-0.3,2.39C138.34,209.05,138.17,209.04,138,208.77z"/>
		<path class="st8" d="M136.81,222.57c0.76-2.13,0.06-4.54,1.23-6.6c0.04,3.63,0.3,7.27-0.58,10.85c-0.1-0.11-0.2-0.22-0.3-0.33
			C136.58,225.23,136.73,223.89,136.81,222.57z"/>
		<path class="st25" d="M138,209c0.17,0,0.34,0,0.51,0c-0.15,2-0.3,4-0.45,6.01C136.6,213.02,138.64,211,138,209z"/>
		<path class="st8" d="M136.7,229.17c0.04-0.8,0.07-1.6,0.11-2.39c0.1-0.25,0.26-0.29,0.46-0.12l0.18,0.16
			c-0.02,1.05,0.1,2.12-0.54,3.05c-0.1-0.04-0.2-0.08-0.3-0.12C136.52,229.54,136.54,229.34,136.7,229.17z"/>
		<path class="st8" d="M136.2,231.98c-0.02-0.6,0.08-1.25-0.58-1.61c-0.13-0.99,0.43-0.9,1.07-0.7c0.07,0.07,0.15,0.14,0.22,0.21
			C136.85,230.63,136.98,231.46,136.2,231.98z"/>
		<path class="st0" d="M176.99,194c0.79,1.37,1.62-1.19,2.42,0.02c-0.46,1.85-1.94,0.93-3.01,1.11c-0.4-0.38-0.8-0.76-1.21-1.14
			c0.2,0,0.4,0,0.6,0C176.19,193.62,176.59,193.65,176.99,194z"/>
		<path class="st0" d="M177,194c-0.4,0-0.8,0-1.2,0c-1.74-2.03,1.09-1.01,1.2-1.81C177,192.8,177,193.4,177,194z"/>
		<path class="st40" d="M211.22,210.63c-0.69-1.18-2.38-0.07-3.05-1.31c1.14,0.05,2.29,0.08,3.43,0.16
			c0.39,0.03,1.12-0.19,0.84,0.64C212.27,210.61,211.72,210.67,211.22,210.63z"/>
		<path class="st40" d="M205.57,210.65c1.89-0.01,3.77-0.02,5.66-0.03c-0.08,0.14-0.13,0.29-0.18,0.45
			C209.22,211.08,207.34,211.61,205.57,210.65z"/>
		<path class="st25" d="M147.66,201.04c-0.54,0.94-1.31,1.57-2.37,1.85c-0.08-0.1-0.16-0.21-0.24-0.31
			c0.03-0.91,0.59-1.45,1.32-1.86c0.41-0.12,0.79-0.09,1.13,0.18L147.66,201.04z"/>
		<path class="st8" d="M142.3,204.22c-0.42-0.82-0.67-1.6,0.5-2.04c0.35,0.31,0.84,0.52,0.78,1.11c-0.17,0.35-0.55,0.45-0.79,0.72
			C142.67,204.17,142.51,204.24,142.3,204.22z"/>
		<path class="st25" d="M142.8,204.01c0.21-0.23,0.42-0.46,0.62-0.69c0.4-0.64,0.86-1.15,1.7-0.65l0.17,0.21
			C144.63,203.64,143.89,204.21,142.8,204.01z"/>
		<path class="st8" d="M147.5,200.88c-0.36,0.03-0.73,0.07-1.09,0.1c-0.67,0.49-1.31,0.6-1.87-0.17c0.02-0.14,0.04-0.29,0.07-0.43
			c1-0.4,2-0.8,3-1.2C147.57,199.75,147.53,200.32,147.5,200.88z"/>
		<path class="st8" d="M132.7,228.14c0.47-0.35,0.54-0.84,0.44-1.37c-0.87-1.05-0.29-2.25-0.37-3.39c-0.13-1.87-0.28-3.71-3.03-2.72
			c-0.64,0.23-1.36,0.11-1.95-0.33c-0.19-0.26-0.18-0.51,0.03-0.75c1.37-0.31,2.74-0.22,3.38-2.14c0.37-1.09,1.64,0.6,2.61,0.34
			c-0.45,1.49,0.51,2.78,0.6,4.2c0.37,0.4,0.34,0.8,0,1.2c-0.24,2.22-0.46,4.45-1.18,6.59c-0.26,0.18-0.52,0.37-0.78,0.55
			c0.01-0.38,0.03-0.76,0.04-1.14C132.25,228.77,132.26,228.41,132.7,228.14z"/>
		<path class="st13" d="M116.31,229.91c0.68,0.73,1.36,1.47,2.05,2.2c-0.99,0.49-1.51-1.21-2.54-0.54c-0.71-0.45-0.58-1.18-0.6-1.85
			c0.18-0.15,0.39-0.23,0.62-0.24C116.08,229.53,116.24,229.67,116.31,229.91z"/>
		<path class="st2" d="M136.69,229.66c-0.36,0.23-0.72,0.47-1.07,0.7c-0.81,0.64-0.67-0.68-1.21-0.59c0.59-0.86,1.5-0.52,2.29-0.6
			C136.74,229.33,136.73,229.5,136.69,229.66z"/>
		<path class="st8" d="M109.78,215.95c1.01-0.57,2.02-1.13,3.04-1.7C112.43,215.93,111.51,216.66,109.78,215.95z"/>
		<path class="st13" d="M111.02,224.95c0.34,0.23,0.68,0.46,1.03,0.69c0.72,0.93,2.33,1.27,1.95,2.93
			c-1.04,0.78-1.62-0.29-2.38-0.61C111.42,226.96,111.22,225.96,111.02,224.95z"/>
		<path class="st25" d="M143.4,200.97c-0.03-0.6-0.25-1.07-0.85-1.31c0.45-0.43,0.9-0.86,1.35-1.29c0.23,0.67,0.46,1.33,0.69,2
			c0,0,0,0,0,0C144.33,200.84,144.06,201.3,143.4,200.97z"/>
		<path class="st7" d="M147.24,180.8c-0.85,0.4-1.42-0.23-2.34-0.49C145.97,179.85,146.66,179.9,147.24,180.8z"/>
		<path class="st4" d="M151.04,186.97c-0.21,0.28-0.44,0.59-0.67,0.9c-0.1-0.22-0.34-0.5-0.27-0.64c0.16-0.32,0.46-0.56,0.71-0.84
			C150.88,186.56,150.95,186.73,151.04,186.97z"/>
		<path class="st2" d="M127.86,220.31c-3.76,1.07-7.5,1.86-11.05-0.65c1.77-1.65,3.87-1.63,6.06-1.14
			c-0.28,0.91-1.34,0.09-1.95,1.12c2.37,1.14,4.65,0.01,6.88-0.06C127.83,219.82,127.84,220.06,127.86,220.31z"/>
		<path class="st3" d="M139.2,202.78c-0.36,1.67-1.89,1.38-3,1.8c-2.23-1.41-0.25-1.76,0.6-2.4c0.19-0.02,0.39-0.04,0.58-0.06
			C138.04,202.21,138.74,202.15,139.2,202.78z"/>
		<path class="st25" d="M136.8,202.18c-0.42,0.74-2.01,1.19-0.6,2.4c0,0.2,0,0.4,0,0.6c-0.38,0-0.76,0-1.15,0
			C135.03,203.83,134.01,201.89,136.8,202.18z"/>
		<path class="st25" d="M139.2,202.78c-0.67-0.03-1.41,0.1-1.82-0.65c0.54-0.41,1.11-0.71,1.82-0.56
			C139.25,201.97,139.87,202.37,139.2,202.78z"/>
		<path class="st30" d="M135.09,104.84c0.4-3.37,0.8-6.74,1.2-10.14c-1.53-0.23-1.96,1.22-3.02,1.36c-1.63,0.08-1.8,1.88-2.96,2.52
			l0.04-0.03c-1.47,0.81-2.6,0.77-2.77-1.23c-0.09-1.05-1.01-1.62-1.27-2.55c-0.02-1.88-0.94-3.36-2.09-4.74c-1-0.8-2-1.6-3-2.4
			c-0.19-1.59,2.69-2.36,1.15-4.31c-0.05-0.34,0.1-0.52,0.44-0.55c0.45-0.13,0.74-0.89,1.26-0.51c0.96,0.71,1.24,0.81,2.42,0.16
			c0.39-0.22,0.96-0.31,1.03,0.02c0.34,1.64,1.2-0.12,1.69,0.31c0.85,0.55,1.05,1.35,0.92,2.28c-0.04,0.19-0.12,0.36-0.2,0.53
			c-0.31,0.67-1.67,0.96-0.73,2.08c0.96,1.13,1.44-0.42,2.19-0.37c0.41-0.1,0.82-0.09,1.22,0.06c0.73,0.32,0.98,1.26,1.81,1.47
			c1.37-0.58,0.18-2.17,1.2-2.84c0.06-0.21,0.19-0.28,0.39-0.22c1.32-0.4,1.05,1.21,1.89,1.46c0.57-0.37,0.31-1.06,0.53-1.59
			c0.35-0.83,0.97-1.27,1.84-1.23c1.03,0.04,1.23,0.83,1.31,1.67c0.1,1.08,0.2,2.18,0.14,3.26c-0.24,4.25,1.46,8.42,0.56,12.71
			c-0.12,0.57,1.36,0.87,0.52,1.78C140.37,105.16,137.79,105.44,135.09,104.84z"/>
		<path class="st7" d="M142.8,103.8c-0.5-0.56-0.35-2.06-0.68-3.62c-0.98-4.68-0.57-9.43-1.13-14.12c-0.07-0.56,0.02-1.33-0.89-1.17
			c-0.54,0.1-1.26,0.3-1.06,1.12c0.29,1.19-0.38,2.09-0.81,3.29c-1.36-0.91-1.29-2.58-2.23-3.57c1.71-1.48,3.64-3.77,5.66-3.12
			c1.31,0.42,0.32,3.58,0.54,5.51c0.47,4.23,0.28,8.52,1.08,12.73c0.03,0.97,0.07,1.94,0.1,2.92
			C143.19,103.78,142.99,103.79,142.8,103.8z"/>
		<path class="st7" d="M133.88,86.46c0.21-0.2,0.42-0.4,0.62-0.6c0.37,0.03,0.74,0.06,1.11,0.09c0.02,0.3-0.04,0.62,0.06,0.89
			c0.39,1.16,0.93,2.29-0.78,2.92c-2.02,0.74-1.52-1.31-2.25-1.99C132.09,86.43,133.4,86.84,133.88,86.46z"/>
		<path class="st17" d="M143.2,78.11c1.41-0.25,2.14,0.27,1.98,1.78C144.52,79.29,143.86,78.7,143.2,78.11z"/>
		<path class="st13" d="M125.1,74.53c-0.75,0.72-1.73,0.87-2.69,1.07C122.97,74.4,123.99,74.35,125.1,74.53z"/>
		<path class="st10" d="M124.21,90.02c2.88,0.49,2.33,2.77,2.46,4.71c0.17,0.39,0.05,0.6-0.38,0.63c-0.89-0.79-0.61-1.96-0.96-2.92
			c-1.12-0.46-1.2,0.88-1.93,1.1c-0.52,0.18-0.56,0.58-0.5,1.04c-0.1,0.53-0.27,1-0.95,0.98c0,0-0.2-0.19-0.2-0.19
			C122.69,93.64,122.44,91.37,124.21,90.02z"/>
		<path class="st3" d="M128.9,82.83c-0.77,1.89-1.33,0.81-1.65-0.29c-1.09,0.6-0.21,1.65-1.01,2.18c-0.35-0.47-0.7-0.92-1.07-1.42
			c-0.89,0.91,0.78,1.81-0.14,2.76c-1-0.71-1.06-1.73-1.02-2.82c0.05-1.2-0.78-0.37-1.2-0.49c1.28-1.73,2.56-3.46,3.85-5.19
			C128.62,78.8,128.84,80.78,128.9,82.83z"/>
		<path class="st31" d="M126.29,95.36c0.13-0.21,0.25-0.42,0.38-0.63c0.46,0.77,1.4,1.17,1.33,2.35c-0.11,1.72,1.2,1.55,2.35,1.45
			c-0.26,0.31-0.53,0.63-0.79,0.94c-1.63,1.31-1.85-0.15-2.3-1.17C127.66,97.08,126.35,96.43,126.29,95.36z"/>
		<path class="st31" d="M130.3,98.57c0.11-1.21,1.94-1.74,1.29-3.27c-0.05-0.12,0.31-0.59,0.48-0.6c0.88-0.02,0.43,1.2,1.19,1.35
			C132.5,97.16,131.6,98.09,130.3,98.57z"/>
		<path class="st2" d="M137.27,226.66c-0.15,0.07-0.3,0.11-0.46,0.12c-0.69-1.4-1.83-2.8,0-4.2
			C137.92,223.82,137.23,225.28,137.27,226.66z"/>
		<path class="st2" d="M135.66,217.08c0.26-1.17,0.52-2.35,0.78-3.52C136.77,214.9,137.14,216.23,135.66,217.08z"/>
		<path class="st2" d="M134,223.17c0-0.4,0-0.8,0-1.2c0.44-0.05,0.74-1.03,1.02-0.55C135.48,222.25,134.72,222.79,134,223.17z"/>
		<path class="st9" d="M143.4,200.97c0.4-0.2,0.8-0.4,1.2-0.59c0.43,0.71,1.15,0.58,1.81,0.6c-0.43,0.56-0.86,1.13-1.29,1.69
			c-0.57,0.22-1.13,0.44-1.7,0.65c-0.21-0.38-0.41-0.76-0.62-1.14C143.87,202.21,143.7,201.62,143.4,200.97z"/>
		<path class="st41" d="M132.7,228.14c-0.07,0.34-0.14,0.69-0.2,1.03c-0.41,0.26-0.79,0.61-1.24,0.74
			c-0.35,0.11-0.51-0.42-0.35-0.58C131.4,228.82,131.46,227.56,132.7,228.14z"/>
		<path class="st15" d="M119.41,230.97c0.48-0.67,1.15-0.75,1.82-0.42c0.13,0.06,0,0.67-0.01,1.03
			C120.55,231.55,119.84,231.67,119.41,230.97z"/>
		<path class="st34" d="M126.63,222.78c-0.23,0.08-0.57,0.27-0.94,0.3c-0.29,0.03-0.66-0.2-0.37-0.53c0.22-0.26,0.64-0.42,1-0.49
			C126.6,222.02,126.91,222.19,126.63,222.78z"/>
		<path class="st3" d="M129.61,85.21c0.88,0.68,0.45,2.24,1.77,2.64c-0.64,0.58-1.29,1.16-2.11,1.91
			C129.29,88.1,125.28,86.47,129.61,85.21z"/>
	</g>
</g>
</svg>
