<?xml version="1.0" encoding="utf-8"?>
<!-- Generator: Adobe Illustrator 26.0.0, SVG Export Plug-In . SVG Version: 6.00 Build 0)  -->
<svg version="1.1" xmlns="http://www.w3.org/2000/svg" xmlns:xlink="http://www.w3.org/1999/xlink" x="0px" y="0px"
	 viewBox="0 0 80 80" style="enable-background:new 0 0 80 80;" xml:space="preserve">
<style type="text/css">
	.st0{fill:#1B676B;stroke:#00A19A;stroke-miterlimit:10;}
	.st1{fill:#0F0F0F;}
	.st2{fill:#101010;}
	.st3{fill:#2A2A2A;}
	.st4{fill:#2C2C2C;}
	.st5{fill:#303030;}
	.st6{fill:#111111;}
	.st7{fill:#292929;}
	.st8{fill:#131313;}
	.st9{fill:#171717;}
	.st10{fill:#141414;}
	.st11{fill:#222222;}
	.st12{fill:#252525;}
	.st13{fill:#212121;}
	.st14{fill:#1B1B1B;}
	.st15{fill:#181818;}
	.st16{fill:#1C1C1C;}
	.st17{fill:#161616;}
	.st18{fill:#1A1A1A;}
	.st19{fill:#242424;}
	.st20{fill:#1F1F1F;}
	.st21{fill:#1D1D1D;}
	.st22{fill:#191919;}
	.st23{fill:#1E1E1E;}
	.st24{fill:#313131;}
	.st25{fill:#2D2D2D;}
	.st26{fill:#080808;}
	.st27{fill:#070707;}
	.st28{fill:#2F2F2F;}
	.st29{fill:#040404;}
	.st30{fill:#020202;}
	.st31{fill:#0A0A0A;}
	.st32{fill:#0D0D0D;}
	.st33{fill:#0B0B0B;}
	.st34{fill:#030303;}
	.st35{fill:#090909;}
	.st36{fill:#282828;}
	.st37{fill:#2B2B2B;}
	.st38{fill:#202020;}
	.st39{fill:#333333;}
	.st40{fill:#151515;}
	.st41{fill:#0C0C0C;}
	.st42{fill:#050505;}
	.st43{fill:#060606;}
	.st44{fill:#010101;}
	.st45{fill:#262626;}
	.st46{fill:#343434;}
	.st47{fill:#0E0E0E;}
	.st48{stroke:#000000;stroke-miterlimit:10;}
</style>
<g id="Capa_1">
	<path class="st0" d="M35.64,39.22c0-16.45,10.79-30.49,25.98-36.07c-3.85-1.16-7.96-1.79-12.21-1.79C27.02,1.36,8.88,18.66,8.88,40
		c0,21.34,18.14,38.64,40.52,38.64c5.13,0,10.02-0.92,14.54-2.57C47.53,71.13,35.64,56.5,35.64,39.22z"/>
</g>
<g id="Capa_2">
	<path class="st1" d="M15.19,37.14c-0.07,0-0.14,0.01-0.2-0.04c0.01-0.02,0.03-0.03,0.05-0.03c-0.04,0-0.09-0.01-0.12,0.02
		c-0.13-0.01-0.26-0.03-0.39-0.09c0.1-0.3,0.1-0.3,0.46-0.29c-0.19,0-0.24-0.03-0.23-0.18c0.11-0.03,0.22,0,0.32,0.03
		c0.43,0.14,0.88,0.15,1.33,0.21c0.29,0.04,0.58-0.04,0.87-0.07c0.11,0.03,0.21,0.02,0.31-0.01c0.07-0.01,0.14-0.01,0.2-0.04
		c0.15-0.04,0.31-0.07,0.45-0.14c0.14-0.04,0.28-0.07,0.41-0.15c0.43-0.16,0.81-0.42,1.18-0.69c0.46-0.33,0.81-0.77,1.12-1.24
		c0.13-0.16,0.19-0.37,0.31-0.54c0.04-0.06,0.06-0.14,0.1-0.2c0.05-0.09,0.07-0.18,0.1-0.27c0.06-0.12,0.09-0.25,0.1-0.38
		c0-0.02,0-0.04,0.01-0.07c0.03-0.07,0.06-0.14,0.08-0.21c0.03-0.11,0.02-0.23-0.01-0.34c-0.02-0.12,0.02-0.24,0.03-0.36
		c0.03-0.5-0.18-0.91-0.41-1.31c-0.05-0.08-0.12-0.15-0.09-0.26c0.09-0.08,0.18-0.15,0.19-0.29c0.01-0.09,0.07-0.14,0.15-0.16
		c0.12-0.02,0.15-0.08,0.1-0.21c-0.04-0.12-0.17-0.27,0.05-0.35c-0.01-0.01-0.02,0-0.02,0c-0.05-0.01-0.12,0.02-0.1-0.08
		c0.15,0,0.31-0.02,0.46,0.05c0.16,0.28,0.17,0.61,0.28,0.91c0.05,0.22,0.11,0.44,0.18,0.66c0.05,0.34,0.21,0.64,0.24,0.98
		c0,0.03,0.01,0.06,0,0.09c-0.03,0.15-0.06,0.3-0.09,0.44c-0.03-0.02-0.02-0.06-0.04-0.08c0.02,0.05-0.01,0.11,0.03,0.16
		c-0.11,0.83-0.49,1.53-0.97,2.18c-0.12,0.17-0.24,0.35-0.41,0.47c-0.06,0-0.09,0.03-0.09,0.09c-0.84,0.86-1.82,1.44-2.97,1.71
		c-0.05,0.01-0.1,0.02-0.15,0.03c-0.09-0.03-0.18-0.01-0.23-0.02c0.01,0,0.06-0.02,0.1,0.03c-0.25,0.07-0.5,0.1-0.75,0.09
		c-0.25-0.03-0.49-0.04-0.74,0c-0.36,0.01-0.72-0.01-1.08-0.09c0.02-0.03,0.05-0.03,0.08-0.03c-0.02,0.03,0.04,0.02,0.05,0.03
		C15.33,37.11,15.26,37.1,15.19,37.14z"/>
	<path class="st1" d="M35.48,33.47c-0.13,0.89-0.43,1.69-1.03,2.35c-0.68,0.74-1.52,1.08-2.44,1.27c-0.08,0.02-0.15,0.03-0.23,0.05
		c-0.04,0.03-0.08,0.02-0.12,0.02c-0.03-0.01-0.06-0.02-0.08-0.03c-0.03-0.01,0.01-0.01-0.02-0.01c-0.02,0,0.01,0.02,0.01,0.03
		c0,0.02-0.01,0.03-0.03,0.03c-0.41,0.02-0.82,0.09-1.24,0.06c-0.17-0.04-0.34-0.04-0.51,0c-0.15,0.01-0.29,0.02-0.43-0.04
		c0.06-0.04,0.11-0.04,0.14-0.03c-0.06,0.01-0.16-0.02-0.26,0.02c-0.11,0.02-0.22,0-0.32-0.05c0-0.1,0.07-0.05,0.12-0.07
		c0.02-0.01,0,0,0,0c-0.19-0.03-0.03-0.29-0.2-0.34c-0.06-0.02-0.1-0.06-0.02-0.12c0.19-0.08,0.36,0.04,0.54,0.07
		c0.74,0.14,1.47,0.09,2.2-0.07c0.14,0.04,0.28,0,0.41-0.05c0.16-0.03,0.3-0.1,0.44-0.16c0.08-0.04,0.17-0.05,0.25-0.08
		c0.08-0.03,0.15-0.07,0.23-0.11c0.14-0.07,0.28-0.14,0.42-0.23c0.12-0.08,0.26-0.14,0.36-0.25c0.3-0.23,0.5-0.55,0.77-0.8
		c0.06-0.01,0.07-0.05,0.06-0.11c0-0.06,0.02-0.11,0.05-0.15c0.06-0.11,0.09-0.23,0.14-0.34c0.1-0.26,0.18-0.53,0.21-0.81
		c0-0.03,0.01-0.05,0.01-0.08c0.06-0.26,0.02-0.53,0.03-0.79c0.01-0.13-0.02-0.26,0.03-0.38c0.08-0.1,0.11-0.21,0.11-0.33
		c0-0.1,0-0.19,0.06-0.27c0.29-0.11,0.41-0.03,0.44,0.27c0.01,0.06,0.01,0.11,0.02,0.17c0.02,0.11-0.01,0.23,0.08,0.32
		c0.01,0.03,0.01,0.07-0.01,0.1c-0.01,0.19-0.04,0.37-0.09,0.55c-0.03-0.02-0.03-0.05-0.03-0.08c0.02,0.02,0.02-0.04,0.02-0.05
		c-0.04,0.12-0.04,0.19-0.01,0.27c0.01,0.07,0,0.14-0.03,0.21c-0.02-0.01-0.02-0.03-0.03-0.05C35.46,33.39,35.46,33.43,35.48,33.47z
		"/>
	<path class="st2" d="M35.53,32.16c-0.04-0.03-0.04-0.08-0.05-0.13c-0.02-0.36-0.02-0.36-0.37-0.36c-0.01-0.01-0.02-0.02-0.02-0.03
		c-0.01-0.02-0.03-0.04-0.02-0.07c0.04-0.31-0.1-0.48-0.37-0.55c-0.12-0.13-0.16-0.31-0.25-0.46c-0.16-0.29-0.41-0.47-0.6-0.73
		c0-0.02,0.01-0.05,0.02-0.06c0.15-0.14,0.27-0.14,0.41,0.03c0.07,0.1,0.16,0.19,0.26,0.27c0.07,0.06,0.13,0.07,0.2,0
		c0.17-0.04,0.32-0.07,0.34-0.31c0.01-0.13,0.15-0.11,0.25-0.11c0.16,0,0.2,0.11,0.23,0.29c0.09-0.1,0.18-0.18,0.22-0.29
		c0.06-0.19,0.17-0.23,0.34-0.18c0.24,0.44,0.22,0.91,0.15,1.38c-0.01,0.06-0.02,0.14-0.06,0.18c-0.4,0.37-0.43,0.89-0.54,1.38
		c-0.01,0.03-0.02,0.06-0.03,0.09c0-0.03-0.01-0.07-0.01-0.1C35.52,32.35,35.61,32.22,35.53,32.16z"/>
	<path class="st3" d="M12.72,28.82c0.08-0.04,0.16-0.04,0.25-0.04c0.08,0.05,0.17,0.01,0.2,0.02c-0.01,0-0.07,0.02-0.12-0.03
		c0.09-0.05,0.19-0.04,0.29-0.04c0.03,0.02,0.06,0.02,0.09,0.02c0.17,0,0.17,0,0.18,0.08c0.01,0.14,0.07,0.31-0.15,0.33
		c-0.04,0-0.08,0.01-0.12,0.01c-0.11-0.01-0.14,0.04-0.1,0.15c0.04,0.11,0.08,0.21,0.04,0.33c-0.04,0.09-0.11,0.14-0.19,0.18
		c-0.23,0.12-0.38,0.36-0.58,0.51c-0.21,0.12-0.44,0.19-0.56,0.44c-0.06,0.13-0.18,0.15-0.29,0.16c-0.13,0.01-0.19,0.06-0.23,0.19
		c-0.05,0.15-0.17,0.27-0.24,0.42c-0.06,0.13-0.12,0.06-0.17-0.02c-0.08-0.04-0.02-0.15-0.08-0.2c0.03-0.1-0.02-0.15-0.1-0.18
		c-0.07,0-0.11-0.04-0.14-0.1c-0.03-0.06,0.01-0.09,0.04-0.13c0.19-0.09,0.41-0.12,0.56-0.3c0.1-0.12,0.21-0.21,0.24-0.39
		c0.02-0.17,0.17-0.3,0.32-0.35c0.14-0.04,0.23-0.12,0.33-0.21c0.08-0.08,0.2-0.14,0.27-0.22c0.13-0.15,0.35-0.24,0.37-0.49
		C12.79,28.89,12.73,28.87,12.72,28.82z"/>
	<path class="st4" d="M26.31,29.17c0.26-0.09,0.52-0.16,0.79-0.2c0.07,0.03,0.11,0.12,0.05,0.15c-0.14,0.07-0.13,0.17-0.11,0.29
		c0.01,0.08-0.03,0.14-0.1,0.17c-0.07,0.03-0.1,0.09-0.13,0.16c-0.27,0.19-0.55,0.37-0.82,0.56c-0.16,0.13-0.27,0.3-0.38,0.47
		c-0.09,0.13-0.18,0.25-0.27,0.38c-0.18-0.05-0.28,0.05-0.37,0.2c-0.13,0.21-0.28,0.41-0.55,0.43c-0.04,0-0.09,0.02-0.12-0.03
		c-0.02-0.26,0.07-0.49,0.17-0.72c0.22-0.17,0.5-0.28,0.51-0.64c0-0.11,0.08-0.12,0.16-0.13c0.22-0.01,0.41-0.07,0.54-0.3
		c0.08-0.14,0.27-0.19,0.36-0.36c-0.19-0.03-0.4,0.02-0.57-0.1c-0.06-0.02-0.14-0.03-0.13-0.12c0.18-0.04,0.35-0.07,0.53-0.11
		c0.06-0.01,0.14-0.06,0.16,0.03c0.02,0.08-0.08,0.09-0.13,0.11c0.17-0.06,0.35-0.06,0.52-0.11C26.38,29.27,26.28,29.29,26.31,29.17
		z"/>
	<path class="st5" d="M10.74,30.93c-0.02,0.04-0.03,0.07-0.05,0.11c-0.21-0.51-0.15-1.01,0.01-1.51c0.03-0.09,0.11-0.13,0.19-0.17
		c0.49-0.27,1.01-0.42,1.56-0.48c0.12,0.03,0.09,0.03,0.08,0.14c-0.01,0.41-0.34,0.45-0.58,0.57c-0.34,0.17-0.59,0.4-0.67,0.8
		c-0.01,0.07-0.02,0.15-0.09,0.19C11.01,30.67,10.9,30.84,10.74,30.93z"/>
	<path class="st1" d="M24.5,31.03c-0.08,0.24-0.15,0.48-0.19,0.73c0.02,0.12-0.02,0.23-0.05,0.34c-0.02,0.03-0.04,0.06-0.08,0.05
		c-0.07-0.14-0.13-0.28-0.2-0.41c-0.05-0.12-0.05-0.24-0.03-0.37c0.04-0.3,0.02-0.61,0.01-0.92c-0.01-0.24,0-0.48,0.07-0.71
		c-0.03-0.07-0.12-0.07-0.15-0.13c0.09-0.05,0.19-0.04,0.29-0.04c0.07,0.04,0.14,0.02,0.19,0.02c-0.01,0.01-0.05,0.01-0.07-0.03
		c0.21-0.02,0.41-0.11,0.62-0.1c0.03,0.2-0.08,0.36-0.1,0.55c-0.07,0.27-0.15,0.54-0.22,0.81C24.58,30.9,24.57,30.98,24.5,31.03z"/>
	<path class="st6" d="M21.54,29.41c0.03,0.09,0.13,0.03,0.19,0.08c-0.19,0.04-0.16,0.15-0.09,0.28c0.14,0.27,0.14,0.28-0.13,0.33
		c-0.09,0.02-0.12,0.07-0.11,0.15c0.02,0.18-0.08,0.25-0.23,0.24c-0.07,0.03-0.12-0.02-0.16-0.06c-0.21-0.22-0.45-0.37-0.7-0.52
		c-0.06-0.03-0.13-0.06-0.11-0.15c0.02-0.02,0.05-0.03,0.08-0.04c0.26-0.03,0.27-0.03,0.19-0.28c-0.06-0.2,0.08-0.21,0.19-0.26
		c0.27,0.06,0.54,0.12,0.8,0.18c-0.04,0.05-0.09,0.03-0.13,0.03c0.04,0,0.09,0,0.13,0C21.49,29.39,21.52,29.4,21.54,29.41
		L21.54,29.41z"/>
	<path class="st7" d="M11.01,31.52c0.04-0.01,0.08,0.1,0.1,0.03c0.06-0.2,0.26-0.31,0.27-0.52c0.01-0.14,0.08-0.15,0.18-0.15
		c0.18,0.01,0.29-0.06,0.39-0.25c0.1-0.18,0.32-0.3,0.55-0.34c0.02,0.04,0.02,0.08,0,0.12c-0.21,0.33-0.29,0.73-0.43,1.09
		c-0.16,0.09-0.29,0.19-0.26,0.42c0.01,0.05-0.03,0.1-0.07,0.11c-0.19,0.04-0.39,0.14-0.58-0.01C11.09,31.86,11.03,31.7,11.01,31.52
		z"/>
	<path class="st6" d="M36.12,29.47c-0.16,0.02-0.27,0.07-0.3,0.26c-0.02,0.13-0.22,0.16-0.21,0.32c0,0-0.04,0.02-0.06,0.01
		c-0.06-0.03-0.07-0.09-0.06-0.14c0.03-0.25-0.13-0.23-0.27-0.21c-0.05,0-0.1,0.03-0.09,0.09c0.04,0.34-0.17,0.31-0.38,0.3
		c-0.08-0.14-0.07-0.35-0.3-0.37c-0.07-0.01-0.07-0.12-0.02-0.18c0.05-0.06,0.11-0.11,0.18-0.15c0.14-0.08,0.22-0.2,0.24-0.36
		c0.03-0.03,0.04-0.08,0.09-0.06C35.35,29.08,35.78,29.16,36.12,29.47z"/>
	<path class="st4" d="M10.74,30.93c0.09-0.17,0.21-0.31,0.39-0.4c0.02-0.01,0.06-0.03,0.05-0.04c-0.05-0.25,0.17-0.39,0.21-0.6
		c0.01-0.06,0-0.15,0.07-0.17c0.14-0.03,0.25-0.09,0.38-0.19c0.1-0.08,0.27-0.17,0.4-0.21c0.18-0.05,0.2-0.17,0.24-0.29
		c0.02-0.05,0.14-0.15-0.03-0.18c0.06-0.04,0.13-0.05,0.2-0.04c0.07,0.05,0.16-0.01,0.23,0.05c0.01,0.05,0.05,0.15,0.04,0.16
		c-0.19,0.12-0.23,0.41-0.47,0.48c-0.14,0.04-0.2,0.19-0.3,0.28c-0.04,0.03-0.06,0.1-0.12,0.1c-0.29,0.02-0.44,0.19-0.44,0.5
		c0,0.14-0.14,0.13-0.2,0.21C11.21,30.82,11,30.93,10.74,30.93z"/>
	<path class="st8" d="M14.72,36.55c0.07,0.14,0.2,0.14,0.33,0.19c-0.04,0-0.09,0.02-0.13,0.01c-0.18-0.05-0.3-0.03-0.31,0.2
		c0,0.02-0.06,0.04-0.09,0.05c-0.42-0.07-0.82-0.23-1.19-0.45c-0.03-0.14,0.04-0.3-0.15-0.39c-0.1-0.04-0.02-0.15,0.02-0.23
		c0.03-0.04,0.01-0.11,0.07-0.13c0.27,0.1,0.47,0.33,0.75,0.4c0.22,0.08,0.41,0.23,0.64,0.27C14.71,36.47,14.74,36.5,14.72,36.55z"
		/>
	<path class="st7" d="M26.77,29.71c0.01-0.03,0.01-0.08,0.03-0.09c0.2-0.1,0.21-0.25,0.14-0.45c-0.02-0.06,0.03-0.07,0.09-0.06
		c0.16,0.03,0.09-0.07,0.06-0.14c0.21-0.08,0.43-0.11,0.65-0.13c0.02,0.02,0.04,0.02,0.06,0.02c0.02,0,0.03,0.01,0.05,0
		c-0.02,0-0.03-0.01-0.03-0.03c0.06-0.04,0.13-0.04,0.2-0.04c0.04,0.03,0.09,0.02,0.13,0.02c0.01,0,0.03,0.01,0.04-0.01
		c-0.02,0.01-0.04,0-0.05-0.02c0.06-0.04,0.13-0.04,0.2-0.03c0.03,0.02,0.06,0.05,0.09,0.07c0.25,0.12,0.26,0.2,0.07,0.43
		c-0.02,0.01-0.04,0.01-0.06,0.01c-0.11-0.05-0.24-0.06-0.36-0.09c0.07,0.03,0.11,0.06,0.07,0.14c-0.22,0.12-0.47,0.14-0.7,0.23
		c-0.19,0.07-0.39,0.14-0.58,0.21C26.84,29.75,26.8,29.74,26.77,29.71z"/>
	<path class="st9" d="M33.91,28.79c0.09-0.01,0.17-0.01,0.25,0.04c-0.03,0.08-0.14,0.02-0.16,0.11c-0.28-0.01-0.44,0.17-0.56,0.4
		c-0.09,0.15-0.22,0.15-0.36,0.15c-0.05,0-0.09-0.01-0.14-0.02c-0.08-0.03-0.16-0.03-0.24-0.05c-0.17-0.08-0.37-0.07-0.53-0.16
		c0.03-0.22,0.2-0.16,0.32-0.16c0.09,0,0.17,0.02,0.23-0.06c0.05-0.07,0.08-0.15-0.05-0.16c-0.06,0.03-0.1,0.07-0.16,0.1
		c-0.07,0.02-0.13,0.02-0.2,0c-0.07-0.03-0.13-0.09-0.16-0.16c-0.01-0.02-0.01-0.04-0.02-0.06c-0.2-0.03-0.42,0.07-0.61-0.1
		c0.24-0.04,0.47-0.05,0.71-0.02c0.08-0.02,0.17-0.01,0.25,0.01c0.16,0.06,0.33-0.01,0.49,0.04c0.15-0.01,0.31-0.01,0.45,0.04
		c-0.01,0.03-0.05,0.03-0.07,0.03c0.05-0.01,0.1,0.02,0.15-0.03c0.12-0.01,0.23-0.01,0.34,0.04c-0.04,0.05-0.08,0.03-0.09,0.03
		C33.77,28.8,33.84,28.83,33.91,28.79z"/>
	<path class="st7" d="M24.18,32.15c0.01-0.02,0.03-0.03,0.04-0.05c0.02-0.02,0.05-0.06,0.07-0.05c0.26,0.11,0.44-0.07,0.64-0.19
		c0.08-0.05,0.15-0.07,0.23,0c0.07,0.13-0.02,0.28,0.03,0.41c0.02,0.12,0.02,0.23,0.02,0.35c0,0.04,0,0.08-0.01,0.12
		c-0.02,0.14-0.07,0.19-0.19,0.09c-0.12-0.1-0.16-0.04-0.25,0.08c-0.13,0.16-0.1,0.4-0.27,0.53c-0.12-0.25-0.19-0.52-0.22-0.8
		c0.04-0.05,0.01-0.11,0.03-0.16c-0.02,0.02,0,0.06-0.04,0.08C24.24,32.42,24.21,32.29,24.18,32.15z"/>
	<path class="st10" d="M33.08,29.42c0.28,0.08,0.38-0.17,0.45-0.33c0.09-0.22,0.22-0.19,0.38-0.18c0.04,0,0.07,0.02,0.1-0.02
		c0.07-0.06,0.16,0.01,0.23-0.05c0.08,0,0.16,0,0.24,0.04c0.01,0.07,0.01,0.15,0.06,0.21c0.08,0.11,0.1,0.22,0,0.32
		c-0.1,0.11-0.18,0.24-0.36,0.13c-0.1-0.07-0.19,0.02-0.23,0.13c-0.02,0.05,0,0.11-0.06,0.14l0,0
		C33.57,29.74,33.31,29.62,33.08,29.42z"/>
	<path class="st11" d="M11.38,33.39c-0.05-0.18-0.08-0.37-0.08-0.55c0.02-0.02,0.03-0.04,0.04-0.06c0.02-0.1,0.09-0.13,0.17-0.14
		c0.09-0.01,0.17-0.02,0.21-0.12c0.02-0.04,0.05-0.09,0.1-0.08c0.07,0.01,0.08,0.07,0.09,0.13c0.02,0.11,0.01,0.23,0.01,0.34
		c0,0.09-0.01,0.18,0.04,0.26c0.08,0.14,0.04,0.31,0.08,0.46c0.02,0.09,0.02,0.17,0,0.26c-0.12,0.21-0.15,0.22-0.32,0.08
		c-0.08-0.07-0.16-0.01-0.24-0.04c-0.06-0.14-0.09-0.29-0.09-0.45c0.01-0.02,0.02-0.04,0.02-0.07c0-0.02,0.01-0.03,0-0.05
		C11.4,33.37,11.4,33.39,11.38,33.39z"/>
	<path class="st7" d="M13.24,29.66c0.01-0.14-0.05-0.26-0.09-0.39c-0.04-0.11-0.03-0.2,0.12-0.16c0.02,0.01,0.04,0.01,0.07,0.01
		c0.09,0,0.2-0.01,0.25-0.09c0.05-0.09-0.11-0.09-0.12-0.18c0.04-0.02,0.08-0.03,0.12-0.05c-0.09-0.05-0.18,0.02-0.25-0.07
		c0.04,0,0.07,0,0.11-0.01c0.1-0.04,0.21,0.01,0.3-0.04c0.12-0.02,0.25-0.04,0.37-0.06c0.08-0.07,0.16-0.01,0.24-0.02
		c0.08,0.03,0.17,0.02,0.25,0.03c0.07,0,0.12,0.03,0.14,0.1c0.01,0.05,0.01,0.1-0.03,0.13c-0.05,0.05-0.1,0.01-0.14-0.02
		c-0.14-0.09-0.23-0.03-0.17,0.13c0.05,0.15-0.1,0.18-0.09,0.29c-0.02,0.04-0.06,0.07-0.1,0.08c-0.04,0.02-0.09,0.02-0.13,0.02
		c-0.14-0.01-0.13-0.15-0.17-0.25c-0.15,0.07-0.2,0.2-0.24,0.35c-0.01,0.02-0.02,0.04-0.04,0.06C13.5,29.61,13.39,29.69,13.24,29.66
		z"/>
	<path class="st11" d="M15.61,28.59c0.05,0,0.09,0,0.14,0c0.22,0.04,0.43,0.04,0.65,0c0.32-0.01,0.63-0.02,0.95,0.04
		c-0.11,0.12-0.24,0.06-0.37,0.08c-0.1,0.01-0.2-0.02-0.29,0.02c-0.09,0.28-0.34,0.23-0.55,0.26c0.06,0.13,0.25,0.02,0.27,0.18
		c-0.17,0.13-0.36,0.06-0.54,0.06c-0.15-0.05-0.3-0.03-0.46-0.03c-0.11-0.01-0.21,0.06-0.32,0.01c-0.08-0.24,0.18-0.6,0.42-0.58
		C15.54,28.63,15.59,28.67,15.61,28.59z"/>
	<path class="st12" d="M11.9,33.18c-0.11-0.22,0.01-0.47-0.1-0.78c-0.03,0.27-0.12,0.36-0.33,0.29c-0.09-0.03-0.07,0.11-0.14,0.14
		c-0.03-0.07-0.02-0.13-0.01-0.19c-0.03,0.01,0.01,0.09-0.04,0.11c-0.05-0.24-0.09-0.49-0.14-0.73c0.01-0.02,0.03-0.08,0.04-0.06
		c0.07,0.14,0.16,0.07,0.26,0.07c0.25,0,0.37-0.1,0.32-0.37c-0.02-0.1,0.04-0.16,0.14-0.13c0.07,0.02,0.1-0.03,0.14-0.06
		c0.11,0.16-0.01,0.32,0,0.47c-0.01,0.05-0.03,0.11-0.03,0.16c0,0.3-0.07,0.6-0.05,0.9C11.96,33.07,11.95,33.14,11.9,33.18z"/>
	<path class="st13" d="M29.32,28.64c0.07-0.02,0.14-0.03,0.21-0.01c0.2,0,0.41-0.09,0.6,0.05c0.02,0.01,0.07-0.03,0.11-0.03
		c0.05,0,0.09,0.01,0.14,0.01c0.35-0.01,0.44,0.14,0.29,0.49c-0.2,0.1-0.4,0.04-0.61,0.05c-0.1,0.01-0.2,0-0.29,0.02
		c-0.07,0.02-0.14,0.02-0.2,0c-0.09-0.04-0.19-0.02-0.26-0.1c-0.05-0.29,0.03-0.47,0.43-0.41C29.62,28.64,29.45,28.81,29.32,28.64z"
		/>
	<path class="st10" d="M27.7,36.75c-0.23-0.08-0.45-0.19-0.66-0.34c0.01-0.05,0.19,0,0.06-0.14c-0.08-0.08-0.1-0.21-0.22-0.28
		c-0.16-0.1-0.1-0.22,0.02-0.33c0.11-0.05,0.18,0.03,0.26,0.08c0.26,0.26,0.59,0.37,0.89,0.55c0.07,0.04,0.16,0.06,0.19,0.16
		c0.01,0.09-0.04,0.14-0.12,0.14C27.96,36.59,27.84,36.69,27.7,36.75z"/>
	<path class="st8" d="M33.86,29.81c-0.01-0.31,0.08-0.37,0.4-0.28c0.12,0.04,0.17-0.12,0.24-0.19c0.07-0.06,0.07-0.14-0.01-0.2
		c-0.1-0.08-0.11-0.17-0.03-0.26c0.12,0.07,0.29-0.02,0.37,0.15c0.08,0.16,0.06,0.27-0.1,0.35c-0.04,0.02-0.09,0.04-0.12,0.07
		c-0.05,0.08-0.2,0.08-0.18,0.19c0.02,0.12,0.14,0.05,0.22,0.07c0.07,0.02,0.09,0.06,0.09,0.12c0,0.09,0,0.18,0,0.27
		c-0.01,0.15-0.06,0.21-0.18,0.09c-0.13-0.14-0.29-0.26-0.4-0.43C34.07,29.61,33.97,29.82,33.86,29.81z"/>
	<path class="st14" d="M16.62,28.69c0.13-0.11,0.28-0.02,0.42-0.05c0.1-0.02,0.2-0.01,0.3-0.01c0.2,0,0.4-0.01,0.6,0.05
		c-0.02,0.03-0.05,0.03-0.08,0.03c0.02-0.03-0.04-0.02-0.05-0.03c0.11,0.04,0.18,0.04,0.26,0.01c0.11-0.01,0.23-0.01,0.34,0.04
		c-0.02,0.03-0.05,0.03-0.07,0.03c0.02,0.03,0.04-0.01,0.06,0c0.03,0.01,0.07,0,0.11,0.02c-0.1,0.09-0.09,0.24-0.26,0.34
		c0.18,0,0.3-0.01,0.42,0c0.05,0.01,0.12,0.01,0.14,0.07c0.02,0.09-0.07,0.08-0.12,0.11c-0.03,0.01-0.06,0.02-0.09,0.03
		c-0.41-0.03-0.83-0.04-1.23-0.16c-0.07-0.14-0.07-0.14,0.06-0.4c-0.19-0.03-0.38,0.01-0.57,0C16.76,28.76,16.67,28.79,16.62,28.69z
		"/>
	<path class="st12" d="M15.61,28.59c0.02,0.04,0.04,0.08,0.07,0.13c-0.32-0.08-0.46,0.03-0.63,0.45c-0.07,0.08-0.18,0.07-0.27,0.1
		c-0.1,0.02-0.2,0.01-0.29,0.04c-0.06,0.01-0.13,0.01-0.18-0.05c-0.05-0.04-0.09-0.08-0.15-0.12c0.07-0.05,0.13,0.04,0.19,0.01
		c0.05-0.03,0.01-0.07,0.01-0.11c0.01-0.1-0.12-0.21,0-0.31c0.06-0.05,0.23,0.01,0.34,0.11c0.04-0.09,0.03-0.15-0.08-0.17
		c-0.07-0.01-0.16,0.02-0.22-0.05c0.09-0.06,0.21,0,0.3-0.05C15,28.59,15.3,28.59,15.61,28.59z"/>
	<path class="st6" d="M27.7,36.75c0.09-0.15,0.21-0.23,0.38-0.21c0.08,0.01,0.12,0.01,0.13-0.08c0.21-0.02,0.42-0.03,0.56,0.2
		c0.13,0.04,0.23,0.09,0.2,0.27c-0.02,0.09,0.04,0.14,0.17,0.12c-0.1,0.07-0.18,0.02-0.23,0.09C28.49,37.07,28.08,36.94,27.7,36.75z
		"/>
	<path class="st10" d="M20.66,29.18c-0.12,0.12-0.26,0.23-0.02,0.38c0.02,0.01,0.02,0.1,0,0.11c-0.08,0.05-0.14,0.13-0.24,0.12
		c-0.07,0-0.14-0.02-0.2-0.03c-0.18,0.04-0.32-0.02-0.43-0.17c0.01-0.07,0.07-0.14,0.02-0.22c-0.07-0.13-0.03-0.24,0.04-0.35
		C20.11,29.01,20.38,29.1,20.66,29.18z"/>
	<path class="st15" d="M18.62,29.27c0.03-0.06,0.09-0.04,0.19-0.09c-0.25,0-0.44,0-0.66,0c0.11-0.16,0.18-0.32,0.33-0.4
		c-0.02-0.01-0.02-0.02-0.02-0.03c0.01-0.01,0.01-0.02,0.02-0.02c0.08,0,0.17-0.01,0.25,0.04c-0.04,0.05-0.08,0.03-0.09,0.03
		c0.03-0.01,0.1,0.02,0.17-0.02c0.26,0.02,0.51,0.06,0.76,0.14c-0.13,0.16-0.3,0.27-0.36,0.48c-0.05,0.04-0.1,0.09-0.17,0.07
		c-0.1-0.13-0.27-0.1-0.39-0.18C18.63,29.29,18.62,29.28,18.62,29.27z"/>
	<path class="st12" d="M22.7,32.12c-0.11-0.36-0.25-0.71-0.28-1.09c0.1-0.42,0.09-0.85,0.01-1.27c-0.01-0.05-0.04-0.11,0-0.16
		c0.16-0.05,0.25-0.05,0.3,0.18c0.1,0.51,0.02,1.03,0.09,1.55c0.01,0.09-0.01,0.18,0.01,0.27c0.02,0.06,0.04,0.12,0.05,0.18
		C22.81,31.88,22.76,32,22.7,32.12z"/>
	<path class="st16" d="M32.22,28.63c-0.22,0-0.44,0-0.66,0c0,0.01,0,0.03,0,0.04c0.23,0,0.45,0,0.69,0
		c-0.02,0.03-0.02,0.05-0.03,0.05c-0.02,0.01-0.05,0.01-0.07,0.01c-0.06,0.07-0.14,0.05-0.23,0.09c0.01,0.09,0.12,0.17,0.06,0.28
		c-0.06,0.09-0.16,0.09-0.24,0.12c-0.24,0.03-0.47-0.02-0.7-0.08c-0.13-0.29-0.08-0.44,0.17-0.51c0.04-0.01,0.07-0.02,0.11-0.04
		C31.62,28.59,31.92,28.57,32.22,28.63z"/>
	<path class="st17" d="M26.91,35.67c-0.06,0.13-0.18,0.26,0.1,0.31c0.17,0.03,0.1,0.26,0.17,0.39c0.03,0.05-0.09,0.02-0.14,0.04
		c-0.25-0.13-0.48-0.29-0.69-0.47c0.01-0.25,0.04-0.5,0.04-0.75C26.65,35.25,26.8,35.44,26.91,35.67z"/>
	<path class="st18" d="M26.4,35.19c0.05,0.26,0.09,0.51-0.05,0.75c-0.22-0.17-0.43-0.34-0.61-0.55c0.02-0.03,0.04-0.06,0.04-0.1
		c0.02-0.28,0.11-0.38,0.39-0.42c0.08,0.02,0.12,0.09,0.17,0.14C26.37,35.06,26.43,35.11,26.4,35.19z"/>
	<path class="st19" d="M24.78,34.07c-0.11-0.15-0.18-0.31-0.23-0.49c-0.03-0.25,0.18-0.35,0.33-0.38c0.17-0.04,0.27-0.09,0.29-0.27
		c0-0.02,0.03-0.04,0.05-0.05c0.15,0.1,0.11,0.29,0.16,0.44c0.01,0.05,0.01,0.1,0,0.15c-0.02,0.07-0.1,0.11-0.08,0.19
		c0.01,0.02,0,0.05-0.01,0.07c-0.01,0.04-0.04,0.1-0.07,0.09C25,33.76,25,34.13,24.78,34.07z"/>
	<path class="st16" d="M12.17,35.49c-0.26-0.25-0.39-0.59-0.51-0.93c-0.02-0.05-0.04-0.1,0.04-0.1c0.03,0,0.03,0.04,0.02,0.06
		c0.05-0.29,0.29-0.07,0.41-0.18c0.11,0.01,0.12,0.13,0.18,0.2c0.03,0.07,0.06,0.14,0.05,0.22c-0.02,0.15-0.01,0.31-0.03,0.46
		C12.31,35.33,12.3,35.44,12.17,35.49z"/>
	<path class="st9" d="M13.24,35.82c0,0.03,0.05,0.07,0,0.1c-0.1,0.06-0.19,0.13-0.17,0.28c0,0.05-0.02,0.13-0.11,0.11
		c-0.29-0.2-0.54-0.43-0.75-0.73c0.18-0.04,0.38-0.02,0.5-0.21c0.05-0.02,0.09,0,0.13,0.01C12.99,35.52,13.17,35.62,13.24,35.82z"/>
	<path class="st20" d="M25.43,35.03c-0.19-0.18-0.33-0.4-0.46-0.63c0.03-0.19,0.09-0.34,0.32-0.25c0.18,0.07,0.21-0.11,0.29-0.2
		c0.15,0.06,0.18,0.22,0.22,0.35C25.88,34.66,25.58,34.81,25.43,35.03z"/>
	<path class="st14" d="M23.58,31.46c-0.12,0.01-0.24,0.01-0.35,0.02c-0.18,0.02-0.23-0.08-0.23-0.25c0.01-0.49,0.01-0.97-0.02-1.46
		c-0.04-0.1-0.2-0.01-0.24-0.16c0.09-0.04,0.17-0.03,0.26-0.01c0.19,0,0.38,0.01,0.57,0.01c-0.03,0.15-0.18,0.08-0.25,0.15
		c-0.04,0.35-0.02,0.7,0.01,1.05c0.01,0.17,0.01,0.34,0.07,0.5c0.04,0.06,0.12,0.04,0.17,0.08c0.01,0.01,0.02,0.03,0.01,0.04
		C23.58,31.46,23.58,31.46,23.58,31.46z"/>
	<path class="st12" d="M29.32,28.64c0.14,0.11,0.31,0,0.47,0.07c-0.4,0.07-0.44,0.11-0.47,0.42c-0.09,0.1-0.23,0.05-0.33,0.1
		c-0.17-0.01-0.34,0.09-0.5,0c0.07-0.14,0.27-0.3-0.06-0.36c-0.03-0.01-0.05-0.08-0.08-0.12c0.05-0.03,0.09-0.02,0.13,0.04
		c0.07-0.06,0.16-0.06,0.24-0.09c0.06,0,0.11-0.01,0.17-0.01c0.12-0.05,0.26,0.01,0.38-0.04C29.29,28.64,29.31,28.64,29.32,28.64z"
		/>
	<path class="st6" d="M24.09,29.66c0.01,0.04,0.05,0.09,0.04,0.11c-0.19,0.45-0.05,0.92-0.08,1.38c-0.01,0.2-0.1,0.39-0.06,0.59
		c-0.11-0.09-0.22-0.17-0.33-0.26c0.11-0.05,0.04-0.15,0.06-0.22c0.05-0.2,0.05-0.41,0.03-0.6c-0.05-0.34,0.11-0.62,0.2-0.92
		c0.01-0.03,0.02-0.05,0.04-0.07C24.01,29.64,24.05,29.63,24.09,29.66z"/>
	<path class="st11" d="M23,29.61c-0.07,0-0.14,0.01-0.22,0.01c0.08,0.08,0.17,0.02,0.24,0.05c0.01,0,0.01,0.01,0.01,0.02
		c0,0.01-0.01,0.01-0.01,0.02c-0.02,0.02-0.06,0.04-0.06,0.07c0.05,0.52-0.05,1.05-0.02,1.57c0.01,0.12,0.09,0.25-0.07,0.33
		c-0.03,0.02-0.06,0.01-0.08-0.01c-0.01-0.01-0.03-0.02-0.03-0.04c0.02-0.47-0.12-0.93-0.04-1.4c0.04-0.2-0.11-0.38-0.08-0.59
		c0.01-0.06-0.15-0.01-0.22-0.03c0.04-0.13,0.12-0.06,0.2-0.05C22.74,29.56,22.88,29.56,23,29.61z"/>
	<path class="st17" d="M23.72,31.32c0.17,0.14-0.01,0.12-0.06,0.16c-0.02-0.01-0.05-0.01-0.07-0.02c0-0.01,0-0.03,0-0.04
		c-0.04-0.03-0.11-0.02-0.13-0.08c-0.04-0.25-0.08-0.49-0.08-0.74c0.01-0.3,0-0.59-0.07-0.88c0.07-0.1,0.2,0,0.28-0.09
		c0.08,0,0.15,0,0.23-0.01c0.05,0.06,0.13,0,0.19,0.05c0,0.02,0,0.03,0,0.05c-0.25,0.05-0.3,0.23-0.3,0.47
		C23.69,30.56,23.67,30.94,23.72,31.32z"/>
	<path class="st11" d="M25.57,33.96c-0.01,0.2-0.1,0.31-0.29,0.26c-0.14-0.04-0.23-0.06-0.23,0.14c0,0.01-0.05,0.03-0.07,0.04
		c-0.04-0.13-0.17-0.19-0.19-0.33c0.02-0.07,0.17,0.02,0.13-0.11c-0.05-0.17,0.05-0.14,0.14-0.15c0.12-0.01,0.28,0,0.16-0.22
		c-0.07-0.15,0.09-0.07,0.12-0.13c0.02-0.02,0.04-0.02,0.07,0C25.5,33.62,25.62,33.76,25.57,33.96z"/>
	<path class="st21" d="M25.43,35.03c0.03-0.15,0.05-0.32,0.25-0.34c0.06-0.01,0.07-0.05,0.05-0.1c-0.05-0.1,0.02-0.19,0.03-0.28
		c0.1-0.02,0.12,0.08,0.17,0.13c0.09,0.15,0.22,0.27,0.25,0.45c-0.19,0.07-0.38,0.16-0.35,0.43c0.01,0.06-0.04,0.05-0.08,0.06
		C25.61,35.29,25.52,35.16,25.43,35.03z"/>
	<path class="st20" d="M22.79,31.67c0.08-0.05,0.1-0.06,0.1-0.2c0.01-0.46-0.11-0.94,0.06-1.39c0.06-0.16-0.11-0.2-0.14-0.31
		c0.05-0.09,0.14-0.03,0.21-0.05c0.08,0.49,0.05,0.99,0.04,1.49c0,0.16,0.03,0.24,0.17,0.28c-0.12,0.09-0.27,0.14-0.35,0.28
		C22.84,31.73,22.82,31.7,22.79,31.67z"/>
	<path class="st7" d="M22.61,29.56c-0.07,0.02-0.14-0.02-0.2,0.05c0.15,0.33,0.16,0.68,0.12,1.03c-0.01,0.1-0.03,0.21-0.03,0.31
		c0,0.08-0.03,0.1-0.1,0.07c-0.11-0.2-0.14-0.42-0.18-0.64c0-0.24,0.05-0.49-0.01-0.73c-0.01-0.06,0.02-0.11,0.05-0.15
		C22.39,29.51,22.51,29.51,22.61,29.56z"/>
	<path class="st12" d="M25.2,32.89c-0.05,0.24-0.08,0.24-0.33,0.36c-0.13,0.06-0.28,0.15-0.32,0.34c-0.04-0.03-0.05-0.08-0.05-0.14
		c0.05-0.09,0.06-0.18,0.06-0.28c0-0.08-0.01-0.17,0.1-0.18c0.05-0.01,0.07-0.05,0.08-0.1c0.06-0.25,0.12-0.27,0.32-0.1
		c0.02,0.02,0.05,0.04,0.08,0.06c0.05-0.06,0.02-0.14,0.03-0.2C25.3,32.7,25.26,32.79,25.2,32.89z"/>
	<path class="st17" d="M19.17,29.37c0.04-0.24,0.18-0.37,0.39-0.45c0.09,0.02,0.21-0.02,0.27,0.1c0,0.15-0.05,0.3,0.05,0.44
		c0.05,0.07-0.04,0.1-0.1,0.11C19.54,29.63,19.34,29.56,19.17,29.37z"/>
	<path class="st20" d="M12.13,34.35c-0.01,0.08-0.06,0.1-0.13,0.1c-0.1,0-0.23-0.12-0.26,0.1c-0.01,0.05-0.05-0.17-0.08,0
		c-0.1-0.2-0.16-0.41-0.19-0.63c0.12-0.07,0.23-0.2,0.31,0.06c0.04,0.1,0.14-0.01,0.2-0.06c0.1-0.01,0.1,0.09,0.13,0.15
		C12.15,34.16,12.21,34.26,12.13,34.35z"/>
	<path class="st22" d="M12.73,35.38c-0.09,0.22-0.26,0.29-0.52,0.2c-0.05-0.01-0.03-0.06-0.04-0.09c0.14-0.16,0.09-0.37,0.1-0.56
		c0.01-0.07,0.01-0.13,0.04-0.18c0.07-0.02,0.09,0.04,0.12,0.08c0.06,0.12,0.14,0.23,0.23,0.34C12.69,35.24,12.76,35.29,12.73,35.38
		z"/>
	<path class="st23" d="M31.27,28.64c-0.29,0.05-0.23,0.29-0.23,0.49c-0.12,0.1-0.25,0.1-0.37,0c0-0.07,0-0.15,0-0.22
		c0-0.16-0.04-0.26-0.22-0.18c-0.08,0.03-0.17,0.01-0.24-0.04c-0.02,0.01-0.04,0.01-0.05-0.01c-0.01-0.04,0.02-0.06,0.05-0.08
		c0.22,0,0.43,0,0.65,0C30.99,28.65,31.14,28.57,31.27,28.64z"/>
	<path class="st24" d="M24.78,30c0-0.19,0.06-0.37,0.14-0.54c0.13-0.05,0.28-0.08,0.42-0.09c0.05,0.03,0.09,0.06,0.14,0.09
		c0.02-0.01,0.05,0,0.05,0.02c-0.03,0.18-0.29,0.46-0.46,0.45c-0.1,0-0.16,0.04-0.19,0.13c-0.02,0.04-0.04,0.1-0.1,0.06
		C24.74,30.11,24.75,30.05,24.78,30z"/>
	<path class="st25" d="M22.28,29.51c0.02,0.3,0.09,0.6-0.05,0.88c-0.1-0.3-0.19-0.61-0.23-0.93C22.1,29.46,22.19,29.47,22.28,29.51z
		"/>
	<path class="st17" d="M12.96,36.31c0.05-0.04,0.08-0.09,0.06-0.17c-0.05-0.21,0.07-0.23,0.22-0.23c-0.02,0.11-0.13,0.21,0.09,0.27
		c0.14,0.04,0.06,0.23,0,0.36C13.2,36.49,13.07,36.41,12.96,36.31z"/>
	<path class="st5" d="M26.31,29.17c0.04,0.12,0.15,0.09,0.24,0.12c-0.28,0.14-0.57,0.16-0.86,0.14c0.08-0.1,0.22-0.02,0.3-0.13
		c-0.03-0.05-0.08-0.02-0.12-0.04C26,29.17,26.18,29.28,26.31,29.17z"/>
	<path class="st12" d="M30.2,28.59c-0.01,0.03-0.05,0.06,0,0.09c-0.1,0.12-0.15-0.03-0.22-0.04c-0.15-0.02-0.3-0.01-0.45-0.01
		C29.75,28.57,29.98,28.59,30.2,28.59z"/>
	<path class="st26" d="M16.39,37.24c0.25-0.07,0.49-0.07,0.74,0C16.89,37.26,16.64,37.25,16.39,37.24z"/>
	<path class="st15" d="M16.39,28.59c-0.22,0.08-0.43,0.08-0.65,0C15.96,28.59,16.18,28.59,16.39,28.59z"/>
	<path class="st27" d="M29.79,37.24c0.17-0.07,0.34-0.08,0.51,0C30.13,37.26,29.96,37.26,29.79,37.24z"/>
	<path class="st4" d="M10.82,31.14c0.07-0.11,0.09-0.01,0.13,0.03c0.06,0.06,0.05,0.11-0.02,0.15
		C10.91,31.25,10.8,31.24,10.82,31.14z"/>
	<path class="st22" d="M32.96,28.68c-0.16-0.02-0.33,0.05-0.49-0.04C32.64,28.64,32.8,28.63,32.96,28.68z"/>
	<path class="st10" d="M31.27,28.64c-0.14-0.02-0.29,0.05-0.42-0.05c0.15,0,0.31,0,0.46,0C31.3,28.61,31.28,28.62,31.27,28.64z"/>
	<path class="st28" d="M29.28,28.64c-0.12,0.09-0.26,0.03-0.38,0.04C29.02,28.63,29.15,28.64,29.28,28.64z"/>
	<path class="st29" d="M29.23,37.19c0.1-0.08,0.21-0.04,0.33-0.01c-0.07,0.01-0.13,0.01-0.2,0.02
		C29.31,37.19,29.27,37.19,29.23,37.19z"/>
	<path class="st13" d="M13.04,28.78c0.07,0.01,0.13,0.01,0.2,0.02c-0.1,0.03-0.19,0.07-0.28-0.01
		C12.99,28.78,13.02,28.78,13.04,28.78z"/>
	<path class="st28" d="M28.72,28.69c-0.07,0.05-0.15,0.09-0.24,0.09C28.53,28.66,28.63,28.69,28.72,28.69z"/>
	<path class="st29" d="M17.88,37.14c-0.05-0.02-0.11,0.02-0.15-0.04c0.1-0.01,0.2-0.04,0.28,0.03
		C17.97,37.14,17.93,37.14,17.88,37.14z"/>
	<path class="st26" d="M34.23,28.83c-0.07,0.08-0.15,0.03-0.23,0.05c0.02-0.11,0.11-0.01,0.16-0.06
		C34.18,28.83,34.21,28.83,34.23,28.83z"/>
	<path class="st30" d="M24.3,29.56c0.03,0.01,0.07,0.01,0.15,0.03c-0.12,0.03-0.2,0.05-0.27-0.02
		C24.22,29.57,24.26,29.56,24.3,29.56z"/>
	<path class="st31" d="M33.91,28.79c-0.07,0.08-0.15,0.03-0.24,0.05c0.05-0.08,0.11-0.04,0.16-0.06
		C33.86,28.78,33.88,28.78,33.91,28.79z"/>
	<path class="st32" d="M18.8,28.78c-0.07,0.07-0.15,0.05-0.23,0.04c0.04-0.06,0.1-0.02,0.15-0.04
		C18.75,28.78,18.78,28.78,18.8,28.78z"/>
	<path class="st33" d="M18.06,28.69c-0.07,0.08-0.15,0.03-0.24,0.05c0.03-0.07,0.08-0.04,0.11-0.06
		C17.98,28.68,18.02,28.68,18.06,28.69z"/>
	<path class="st30" d="M15.19,37.14c0.07-0.08,0.15-0.03,0.24-0.05c-0.03,0.07-0.08,0.04-0.11,0.06
		C15.27,37.15,15.23,37.14,15.19,37.14z"/>
	<path class="st3" d="M13.75,28.69c-0.09,0.08-0.2,0.03-0.3,0.04C13.54,28.68,13.65,28.69,13.75,28.69z"/>
	<path class="st30" d="M35.53,33.18c-0.06-0.07-0.04-0.16-0.03-0.24c0.05,0.03,0.02,0.08,0.04,0.11
		C35.54,33.09,35.53,33.14,35.53,33.18z"/>
	<path class="st34" d="M23.99,29.66c-0.06-0.01-0.14,0.02-0.19-0.05c0.03,0,0.05,0,0.08-0.01c0.07,0.02,0.15-0.01,0.2,0.06
		C24.05,29.66,24.02,29.66,23.99,29.66z"/>
	<path class="st32" d="M18.48,28.74c0,0.02,0,0.03,0,0.05c-0.06,0-0.12,0-0.18,0c0.02-0.07,0.07-0.03,0.1-0.05
		C18.42,28.73,18.45,28.73,18.48,28.74z"/>
	<path class="st29" d="M21.54,29.41c-0.06,0-0.12,0-0.19,0c0.02-0.07,0.07-0.03,0.1-0.05C21.5,29.35,21.53,29.37,21.54,29.41z"/>
	<path class="st30" d="M22.6,32.64c-0.06-0.05-0.04-0.12-0.01-0.19c0.01,0.04,0.02,0.07,0.02,0.11
		C22.61,32.59,22.6,32.62,22.6,32.64z"/>
	<path class="st21" d="M24.27,32.56c0.01-0.04,0.01-0.07,0.03-0.15c0.03,0.11,0.05,0.17-0.02,0.23
		C24.27,32.62,24.27,32.59,24.27,32.56z"/>
	<path class="st30" d="M35.48,33.47c-0.06-0.05-0.04-0.12-0.01-0.19c0.01,0.04,0.02,0.07,0.02,0.11
		C35.49,33.42,35.49,33.45,35.48,33.47z"/>
	<path class="st17" d="M11.38,33.39c0.01-0.04,0.01-0.07,0.03-0.15c0.03,0.11,0.05,0.17-0.01,0.23
		C11.39,33.45,11.38,33.42,11.38,33.39z"/>
	<path class="st33" d="M21.13,35.39c-0.05-0.03-0.03-0.06,0-0.09c0.03-0.03,0.06-0.06,0.09,0C21.19,35.33,21.16,35.36,21.13,35.39z"
		/>
	<path class="st14" d="M27.83,28.82c0.04,0.01,0.07,0.01,0.14,0.03c-0.1,0.03-0.16,0.05-0.22-0.02
		C27.77,28.83,27.8,28.83,27.83,28.82z"/>
	<path class="st10" d="M11.29,32.76c0.01-0.04,0.01-0.07,0.02-0.12c0.05,0.07,0.02,0.14,0.03,0.21c-0.01,0-0.03,0-0.04,0
		C11.3,32.81,11.29,32.78,11.29,32.76z"/>
	<path class="st29" d="M14.91,37.09c0.05-0.06,0.11-0.05,0.19-0.03c-0.03,0.05-0.08,0.02-0.11,0.04
		C14.96,37.1,14.94,37.09,14.91,37.09z"/>
	<path class="st20" d="M12.87,28.88c-0.08-0.01-0.17,0.03-0.23-0.05c0.03,0,0.05-0.01,0.08-0.01
		C12.77,28.84,12.83,28.82,12.87,28.88z"/>
	<path class="st14" d="M28.15,28.77c0.02,0.01,0.05,0.01,0.06,0.03c0.01,0.03-0.02,0.03-0.04,0.03c-0.05,0-0.11,0.01-0.14-0.04
		C28.07,28.78,28.11,28.78,28.15,28.77z"/>
	<path class="st35" d="M33.49,28.73c-0.05,0.07-0.12,0.04-0.18,0.02c0.04-0.01,0.07-0.02,0.11-0.03
		C33.44,28.73,33.47,28.73,33.49,28.73z"/>
	<path d="M19.17,29.37c0.2,0.09,0.39,0.17,0.6,0.19c0.11,0.13,0.28,0.13,0.42,0.2c0.34,0.21,0.69,0.43,0.97,0.73
		c0.08,0.19,0.21,0.35,0.31,0.53c0.24,0.46,0.29,0.92,0.2,1.43c0.05,0.1,0,0.19-0.01,0.29c-0.03,0.08-0.04,0.17-0.08,0.24
		c0,0.02,0,0.03,0,0.05c-0.02,0.14-0.05,0.27-0.12,0.39c-0.03,0.09-0.05,0.17-0.08,0.25c-0.05,0.06-0.07,0.14-0.1,0.21
		c-0.13,0.17-0.19,0.38-0.32,0.54c-0.3,0.46-0.65,0.86-1.07,1.2c-0.38,0.33-0.8,0.58-1.26,0.77c-0.12,0.06-0.24,0.12-0.38,0.14
		c-0.14,0.09-0.3,0.11-0.46,0.14c-0.07,0.02-0.13,0.05-0.2,0.05c-0.09-0.02-0.17,0.1-0.27,0.03c-0.89,0.23-1.74-0.01-2.6-0.2
		c-0.27-0.04-0.49-0.21-0.74-0.29c-0.07-0.24-0.02-0.34,0.21-0.36c0.22-0.02,0.45-0.01,0.67-0.01c0.56,0,1.11,0,1.67,0
		c0.32,0,0.34-0.02,0.35-0.36c0-0.18,0.01-0.34,0.16-0.46c0.04-0.14,0.03-0.29,0.07-0.43c0.12-0.28,0.19-0.58,0.34-0.85
		c0.06-0.12,0.09-0.24,0.11-0.37c0.07-0.21,0.17-0.41,0.25-0.61c0.01-0.07,0.03-0.13,0.05-0.2c0.02-0.08,0.05-0.15,0.07-0.23
		c0.05-0.11,0.08-0.24,0.11-0.36c0.05-0.13,0.12-0.25,0.15-0.38c0.05-0.12,0.09-0.23,0.13-0.35c0.02-0.05,0.03-0.11,0.05-0.16
		c0.02-0.08,0.04-0.16,0.06-0.24c0.13-0.22,0.18-0.48,0.28-0.71c0.06-0.16,0.12-0.32,0.17-0.49c0.01-0.05,0.01-0.09,0.03-0.14
		c0.03-0.06,0.06-0.1,0.12-0.11C19.08,29.43,19.13,29.4,19.17,29.37z"/>
	<path class="st24" d="M19.87,35.58c0.4-0.34,0.75-0.75,1.07-1.18c0.03,0.01,0.04,0.02,0.05,0.05c-0.22,0.44-0.57,0.78-0.91,1.11
		c-0.06,0.06-0.14,0.1-0.2,0.16C19.83,35.67,19.84,35.63,19.87,35.58z"/>
	<path class="st5" d="M19.87,35.58c0,0.05,0,0.09,0,0.14c-0.38,0.27-0.75,0.56-1.2,0.69c-0.05,0.02-0.06,0-0.05-0.05
		C19.06,36.15,19.49,35.9,19.87,35.58z"/>
	<path class="st5" d="M20.98,34.45c-0.02-0.02-0.03-0.03-0.05-0.05c0.11-0.18,0.21-0.36,0.32-0.54c0.05-0.01,0.07,0,0.05,0.05
		C21.19,34.09,21.16,34.32,20.98,34.45z"/>
	<path class="st36" d="M21.45,33.43c0.03-0.14,0.06-0.27,0.14-0.39c0.04,0.15,0.01,0.28-0.09,0.39
		C21.48,33.44,21.46,33.44,21.45,33.43z"/>
	<path class="st37" d="M18.62,36.36c0.02,0.02,0.03,0.03,0.05,0.05c-0.12,0.1-0.27,0.14-0.42,0.15c-0.01-0.01-0.02-0.02-0.01-0.03
		c0-0.01,0.01-0.02,0.01-0.02C18.37,36.46,18.49,36.41,18.62,36.36z"/>
	<path class="st36" d="M18.25,36.51c0,0.02,0,0.03,0,0.05c-0.13,0.12-0.3,0.13-0.46,0.15c-0.01-0.01-0.02-0.02-0.01-0.03
		c0-0.01,0.01-0.02,0.01-0.02C17.94,36.61,18.09,36.56,18.25,36.51z"/>
	<path class="st12" d="M21.45,33.43c0.01,0,0.03,0,0.04,0c0,0.11-0.03,0.21-0.09,0.29c-0.03-0.01-0.04-0.02-0.05-0.05
		C21.37,33.58,21.38,33.49,21.45,33.43z"/>
	<path class="st38" d="M21.63,32.74c0.01-0.1,0.03-0.2,0.04-0.29c0.07,0.11,0.07,0.23,0,0.34C21.66,32.78,21.64,32.76,21.63,32.74z"
		/>
	<path class="st25" d="M21.35,33.67c0.02,0.02,0.03,0.03,0.05,0.05c-0.03,0.07-0.06,0.13-0.09,0.2c-0.02-0.02-0.04-0.04-0.05-0.05
		C21.27,33.79,21.29,33.72,21.35,33.67z"/>
	<path class="st37" d="M21.63,32.74c0.01,0.02,0.03,0.03,0.04,0.05c0,0.08-0.01,0.16-0.09,0.19C21.6,32.9,21.62,32.82,21.63,32.74z"
		/>
	<path class="st22" d="M17.32,36.75c0.09-0.02,0.19-0.03,0.28-0.05c0.01,0.01,0.02,0.02,0.01,0.03c0,0.01-0.01,0.02-0.01,0.02
		C17.51,36.75,17.41,36.86,17.32,36.75z"/>
	<path class="st6" d="M18.27,36.97c-0.08,0.03-0.13,0.08-0.22,0.06C18.11,36.96,18.17,36.93,18.27,36.97z"/>
	<path class="st19" d="M17.6,36.75c0-0.02,0-0.03,0-0.05c0.06-0.02,0.12-0.03,0.19-0.05c0,0.02,0,0.03,0,0.05
		C17.73,36.77,17.66,36.74,17.6,36.75z"/>
	<path class="st10" d="M22.46,33.03c-0.01,0.01-0.02,0.05-0.05,0.06c-0.03,0.02-0.04-0.01-0.04-0.04c0.01-0.03,0.02-0.06,0.04-0.08
		C22.45,32.96,22.46,32.99,22.46,33.03z"/>
	<path d="M28.77,36.65c-0.17-0.13-0.37-0.12-0.56-0.2c-0.29-0.16-0.57-0.32-0.86-0.48c-0.08-0.05-0.19-0.08-0.21-0.2
		c-0.05-0.22,0.09-0.29,0.24-0.34c0.1-0.03,0.2-0.02,0.3-0.02c0.86,0,1.71,0,2.57,0c0.51,0,0.51,0.02,0.71-0.56
		c0.02-0.05,0.03-0.11,0.04-0.17c0.07-0.21,0.17-0.4,0.21-0.62c0.09-0.23,0.21-0.46,0.28-0.7c0.06-0.21,0.2-0.39,0.23-0.61
		c0-0.02,0-0.05,0-0.07c0.01-0.06,0.02-0.11,0.05-0.16c0.06-0.06,0.08-0.15,0.1-0.23c0.01-0.03,0.03-0.06,0.05-0.08
		c0.12-0.11,0.18-0.24,0.13-0.41c0.02-0.15,0.09-0.28,0.14-0.42c0.04-0.08,0.06-0.16,0.09-0.25c0.02-0.05,0.04-0.1,0.06-0.15
		c0.02-0.04,0.03-0.08,0.04-0.12c0.02-0.05,0.03-0.1,0.05-0.15c0.03-0.13,0.09-0.25,0.13-0.37c0.02-0.06,0.04-0.12,0.06-0.19
		c0.03-0.07,0.06-0.14,0.08-0.21c0.02-0.05,0.03-0.11,0.05-0.16c0.05-0.13,0.06-0.27,0.18-0.36c0.05,0,0.09,0,0.14,0
		c0.27,0.11,0.54,0.24,0.79,0.39c0.37,0.32,0.68,0.69,0.83,1.17c0.2,0.27,0.22,0.59,0.25,0.9c0.02,0.19-0.03,0.37-0.02,0.56
		c0,0.19,0,0.38,0,0.57c0,0.15-0.01,0.31,0,0.46c0,0.01,0,0.03,0,0.04c-0.11,0.26-0.12,0.56-0.25,0.82
		c-0.05,0.1-0.09,0.22-0.14,0.32c-0.23,0.45-0.57,0.8-0.94,1.13c-0.1,0.08-0.22,0.13-0.33,0.21c-0.12,0.09-0.27,0.13-0.39,0.23
		c-0.09,0.04-0.18,0.08-0.27,0.12c-0.07,0.04-0.15,0.03-0.21,0.08c-0.16,0.06-0.31,0.14-0.48,0.17c-0.11,0.02-0.21,0.1-0.34,0.06
		c-0.7,0.18-1.39,0.25-2.11,0.12C29.25,36.73,29.02,36.62,28.77,36.65z"/>
	<path class="st2" d="M34.88,32.45c0-0.2,0-0.39,0-0.59c0.05-0.11,0-0.34,0.23-0.2c0,0.14,0,0.29,0,0.43c0,0.11-0.03,0.17-0.14,0.16
		c-0.05,0.06-0.01,0.13-0.04,0.2C34.92,32.47,34.9,32.46,34.88,32.45z"/>
	<path class="st24" d="M33.58,35.77c0.19-0.22,0.41-0.4,0.6-0.63c0.13-0.16,0.2-0.35,0.33-0.49c0.03,0.01,0.04,0.02,0.05,0.05
		c-0.02,0.05-0.03,0.1-0.05,0.15c0,0.04-0.01,0.07-0.05,0.09c-0.26,0.28-0.48,0.6-0.79,0.83C33.64,35.8,33.61,35.8,33.58,35.77z"/>
	<path class="st3" d="M34.66,34.36c0.05-0.26,0.17-0.5,0.19-0.77c0-0.05,0.05-0.06,0.08-0.07c-0.03,0.29-0.09,0.58-0.23,0.83
		C34.68,34.37,34.67,34.37,34.66,34.36z"/>
	<path class="st23" d="M34.93,33.48c-0.09-0.14-0.03-0.3-0.04-0.44c0.05-0.12,0-0.26,0.03-0.38c0.02-0.02,0.04-0.03,0.06-0.01
		C34.96,32.92,35.03,33.21,34.93,33.48z"/>
	<path class="st4" d="M32.89,36.21c0.1-0.13,0.25-0.16,0.38-0.24c0.05-0.02,0.06,0,0.04,0.05c-0.12,0.11-0.28,0.16-0.42,0.24
		c-0.02-0.01-0.02-0.02-0.02-0.03C32.88,36.21,32.88,36.21,32.89,36.21z"/>
	<path class="st37" d="M33.31,36.02c-0.01-0.02-0.03-0.03-0.04-0.05c0.09-0.09,0.2-0.16,0.31-0.2c0.03,0,0.07,0,0.1,0
		C33.57,35.89,33.44,35.95,33.31,36.02z"/>
	<path class="st13" d="M31.92,36.56c0.17-0.05,0.34-0.1,0.51-0.15c0.01,0.01,0.02,0.02,0.01,0.03c0,0.01-0.01,0.02-0.01,0.02
		c-0.15,0.05-0.29,0.16-0.46,0.15C31.92,36.62,31.91,36.6,31.92,36.56z"/>
	<path class="st39" d="M34.66,34.36c0.01,0,0.03,0,0.04,0c-0.03,0.12-0.04,0.25-0.14,0.34c-0.02-0.02-0.03-0.03-0.05-0.05
		C34.54,34.54,34.58,34.44,34.66,34.36z"/>
	<path class="st14" d="M31.92,36.56c0.02,0.02,0.03,0.03,0.05,0.05c-0.12,0.05-0.23,0.15-0.37,0.05
		C31.7,36.62,31.81,36.59,31.92,36.56z"/>
	<path class="st40" d="M35.53,32.16c0.13,0.04,0.05,0.17,0.09,0.25C35.39,32.4,35.58,32.23,35.53,32.16z"/>
	<path class="st7" d="M32.89,36.21c0,0.02,0,0.04,0,0.05c-0.08,0.03-0.15,0.07-0.23,0.1c-0.05,0.02-0.06,0-0.05-0.05
		C32.71,36.28,32.8,36.24,32.89,36.21z"/>
	<path class="st9" d="M34.98,32.64l-0.02,0l-0.02,0c-0.03-0.07-0.03-0.13,0-0.2c0.01-0.07-0.02-0.14,0.05-0.2
		C34.98,32.38,34.98,32.51,34.98,32.64z"/>
	<path class="st19" d="M32.61,36.31c0.02,0.02,0.03,0.03,0.05,0.05c-0.06,0.08-0.16,0.04-0.23,0.09c0-0.02,0-0.03,0-0.05
		C32.47,36.34,32.56,36.35,32.61,36.31z"/>
	<path class="st41" d="M34.46,34.94c0.02-0.03,0.03-0.06,0.05-0.09c0.04,0.02,0.05,0.06,0.02,0.09
		C34.51,34.97,34.49,34.97,34.46,34.94z"/>
	<path class="st1" d="M35.12,31.67c-0.16-0.05-0.18,0.1-0.23,0.2c0-0.31-0.12-0.59-0.19-0.88C35.12,31.14,35.12,31.14,35.12,31.67z"
		/>
	<path class="st42" d="M11.99,31.96c-0.03-0.17,0.05-0.32,0.05-0.49c0.11-0.41,0.24-0.81,0.47-1.17c0.2-0.27,0.46-0.47,0.74-0.64
		c0.12-0.05,0.25-0.1,0.37-0.14c0.04-0.01,0.06,0.01,0.06,0.05c-0.04,0.09-0.14,0.1-0.21,0.14c-0.08,0.03-0.14,0.08-0.21,0.13
		c-0.1,0.05-0.19,0.11-0.27,0.2c-0.15,0.14-0.3,0.28-0.41,0.46c-0.08,0.1-0.13,0.22-0.18,0.34c-0.03,0.07-0.05,0.14-0.09,0.21
		c-0.04,0.08-0.06,0.17-0.09,0.26c-0.07,0.23-0.05,0.47-0.17,0.69C12.01,32.02,11.98,32.02,11.99,31.96z"/>
	<path class="st28" d="M24.78,30c0,0.03,0.01,0.06,0.01,0.09c0.02-0.21,0.12-0.29,0.31-0.2c0.03,0.01,0.1,0,0.1-0.01
		c0.01-0.2,0.26-0.22,0.27-0.42c0.12-0.07,0.2,0.14,0.33,0.06c0.01-0.01,0.03,0.01,0.04,0.01c0.1,0.02,0.26-0.1,0.3,0.05
		c0.02,0.07-0.14,0.21-0.24,0.27c-0.13,0.08-0.22,0.18-0.3,0.32c-0.11,0.17-0.31,0.13-0.48,0.15c-0.1,0.01-0.15,0.05-0.1,0.11
		c0.11,0.15,0.04,0.18-0.08,0.25c-0.11,0.06-0.21,0.16-0.26,0.3c-0.04,0.13-0.1,0.12-0.19,0.05C24.57,30.68,24.66,30.34,24.78,30z"
		/>
	<path class="st3" d="M25.15,31.86c-0.09,0-0.19-0.01-0.23,0.11c-0.02,0.08-0.08,0.09-0.14,0.08c-0.1,0-0.19,0-0.24,0.13
		c-0.04,0.09-0.14,0.1-0.16-0.01c-0.03-0.12-0.09-0.08-0.15-0.07c0.01-0.12,0.03-0.24,0.09-0.34c0.32-0.07,0.52-0.3,0.68-0.58
		c0.07-0.12,0.19-0.24,0.33-0.05c0.05,0.19-0.08,0.35-0.09,0.54C25.21,31.73,25.21,31.81,25.15,31.86z"/>
	<path class="st29" d="M26.77,29.71c0.03,0,0.06,0,0.09,0c0.04-0.03,0.08-0.03,0.11,0.02c0,0.02,0,0.04-0.01,0.06
		c-0.1,0.14-0.28,0.14-0.4,0.24c-0.08,0.05-0.15,0.11-0.23,0.16c-0.12,0.06-0.2,0.2-0.36,0.2c-0.05-0.04-0.08-0.08-0.04-0.15
		C26.22,30.07,26.5,29.89,26.77,29.71z"/>
	<path class="st43" d="M25.2,31.67c-0.01-0.19,0.08-0.36,0.14-0.54c0-0.18,0.16-0.26,0.23-0.39c0.05-0.02,0.08,0,0.11,0.04
		c0.01,0.02,0.01,0.04,0,0.07c-0.04,0.08-0.1,0.14-0.13,0.23c-0.14,0.21-0.17,0.48-0.31,0.7C25.17,31.76,25.17,31.72,25.2,31.67z"/>
	<path class="st43" d="M25.66,30.79c-0.03-0.02-0.06-0.03-0.09-0.05c0.09-0.19,0.23-0.33,0.37-0.48c0.02,0.05,0.03,0.09,0.05,0.14
		c0.03,0.08-0.03,0.12-0.07,0.17C25.83,30.64,25.78,30.75,25.66,30.79z"/>
	<path class="st44" d="M17.13,35.09c-0.24,0.14-0.19,0.38-0.18,0.6c0.01,0.23-0.07,0.29-0.28,0.29c-0.8-0.01-1.6,0-2.4-0.01
		c-0.21,0-0.33,0.05-0.29,0.3c-0.27-0.11-0.49-0.3-0.74-0.44c-0.14-0.13-0.28-0.26-0.42-0.39c-0.04-0.15,0.07-0.14,0.15-0.12
		c0.13,0.03,0.22-0.01,0.31-0.11c0.12-0.14,0.27-0.13,0.43-0.13c0.86,0,1.71,0,2.57,0c0.19,0,0.39,0,0.58-0.03
		C16.95,35.01,17.05,35.01,17.13,35.09z"/>
	<path class="st27" d="M26.96,29.76c-0.02-0.04-0.06-0.05-0.09-0.05c0.33-0.21,0.71-0.27,1.08-0.39c0.07-0.02,0.15-0.04,0.22-0.05
		c0.06-0.02,0.09,0.01,0.11,0.06c-0.01,0.06-0.05,0.08-0.09,0.09c-0.08,0.02-0.15,0.05-0.23,0.06c-0.11,0.03-0.22,0.06-0.33,0.09
		c-0.15,0.03-0.28,0.1-0.43,0.16C27.12,29.77,27.04,29.83,26.96,29.76z"/>
	<path class="st1" d="M28.49,29.22c0.17-0.03,0.34-0.06,0.51-0.05c0.01,0.03,0.01,0.05-0.01,0.07c-0.22,0.08-0.44,0.16-0.68,0.09
		c-0.02-0.12,0.03-0.15,0.14-0.11C28.46,29.22,28.47,29.22,28.49,29.22z"/>
	<path class="st19" d="M28.44,29.22c-0.07,0-0.11,0.03-0.14,0.1c-0.02,0.02-0.03,0.02-0.05,0c-0.03-0.02-0.06-0.03-0.09-0.05
		c-0.03-0.04-0.06-0.08-0.11-0.15C28.2,29.15,28.35,29.05,28.44,29.22z"/>
	<path class="st4" d="M27.61,29.52c0.11-0.03,0.22-0.06,0.32-0.1c0.14,0.1,0.27-0.02,0.41-0.03c0.93-0.11,1.85-0.02,2.78-0.05
		c0.4-0.01,0.8,0,1.2,0c0.12,0,0.24,0,0.36,0.07c0.06,0.03,0.02-0.03,0.03-0.05c0.08,0.01,0.17-0.03,0.23,0.05
		c-0.05,0.13-0.09,0.26-0.14,0.39c-0.13-0.04-0.26-0.03-0.39-0.03c-1.2-0.01-2.41,0.01-3.61-0.01c-0.24,0-0.48-0.01-0.72,0
		C27.89,29.78,27.69,29.76,27.61,29.52z"/>
	<path class="st5" d="M32.71,29.37c0.03,0.06,0.1,0.03,0.15,0.09c-0.19,0.04-0.35-0.04-0.52-0.04c-1.05,0.01-2.11,0-3.16,0.01
		c-0.25,0-0.51-0.12-0.76,0.04c-0.03,0.02-0.1-0.03-0.15-0.04c-0.05,0.03-0.09,0.03-0.09-0.05c0.04,0,0.07-0.01,0.09-0.05
		c0.02,0,0.03,0,0.05,0c0.23-0.03,0.46-0.07,0.69-0.1c0.1-0.08,0.22-0.07,0.34-0.07c0.13,0.01,0.26,0.09,0.4,0.02
		c0.3-0.11,0.62-0.02,0.93-0.05c0.12,0,0.25,0,0.37,0c0.25,0.02,0.49,0.03,0.74,0.05c0.13-0.04,0.26-0.05,0.37,0.05
		C32.34,29.25,32.54,29.25,32.71,29.37z"/>
	<path class="st18" d="M32.15,29.22c-0.12-0.02-0.25-0.03-0.37-0.05c0.14-0.07,0.31-0.13,0.06-0.29c-0.08-0.05-0.06-0.14,0.06-0.14
		c0.08,0,0.17,0,0.25,0c0,0.02,0,0.03,0,0.05c0.03,0.07,0.08,0.11,0.14,0.15c0.08,0,0.15,0,0.23,0c0.04-0.04,0.1-0.05,0.14-0.1
		c0.01-0.08,0.07-0.14,0.11-0.06c0.04,0.08,0.13,0.21,0.03,0.28c-0.08,0.06-0.16,0.19-0.31,0.09
		C32.39,29.08,32.26,29.16,32.15,29.22z"/>
	<path class="st22" d="M32.29,28.93c-0.1,0.01-0.15-0.04-0.14-0.15C32.21,28.81,32.26,28.86,32.29,28.93z"/>
	<path class="st22" d="M32.66,28.83c0,0.1-0.07,0.1-0.14,0.1C32.55,28.86,32.59,28.83,32.66,28.83z"/>
	<path class="st32" d="M31.78,32.69c0,0.02,0,0.03,0,0.05c-0.08,0.29-0.26,0.37-0.54,0.37c-1.63-0.01-3.27,0-4.9,0
		c-0.18,0-0.33,0.01-0.5,0.12c-0.13,0.08-0.33,0.1-0.5,0.1c-0.09-0.13-0.04-0.31-0.14-0.44c-0.01-0.08,0.03-0.18-0.05-0.24
		c0-0.13,0-0.26,0-0.39c0.02-0.01,0.04-0.01,0.07,0c0.05,0.05,0.09,0.12,0.12,0.19c0.01,0.03,0.02,0.05,0.02,0.08
		c0.1,0.22,0.29,0.13,0.42,0.1c0.19-0.04,0.38-0.06,0.57-0.06c1.67,0,3.35,0,5.02,0C31.52,32.57,31.68,32.53,31.78,32.69z"/>
	<path class="st8" d="M25.2,32.25c-0.02,0-0.03,0-0.05,0c-0.12-0.13,0.05-0.26,0-0.39c0.01-0.07-0.02-0.14,0.05-0.2
		c0,0.04,0.01,0.08,0.05,0.1c0.09-0.08,0.2-0.08,0.31-0.08c2.03,0,4.07,0,6.1,0c0.15,0,0.29,0.02,0.41,0.12
		c0.06,0.14,0.02,0.24-0.12,0.3c-0.12,0.04-0.25,0.02-0.37,0.02c-1.54,0-3.07,0.02-4.61-0.01c-0.54-0.01-1.05,0.09-1.57,0.16
		C25.33,32.29,25.26,32.29,25.2,32.25z"/>
	<path class="st31" d="M17.88,32.84c-0.09,0.2-0.19,0.39-0.28,0.59c-0.08,0.08-0.19,0.07-0.28,0.07c-0.24,0-0.48,0-0.72,0
		c-0.14,0-0.26,0.02-0.38,0.12c-0.14,0.12-0.63,0.1-0.77-0.01c-0.21-0.15-0.48-0.16-0.68-0.01c-0.18,0.14-0.64,0.13-0.83-0.01
		c-0.19-0.14-0.42-0.16-0.58-0.03c-0.23,0.18-0.47,0.17-0.7,0.11c-0.22-0.06-0.44-0.05-0.66-0.04c-0.1-0.13,0.01-0.31-0.09-0.44
		c-0.02-0.38,0.04-0.75,0.05-1.12c0.12,0.02,0.1,0.13,0.11,0.21c0.03,0.32-0.02,0.63-0.06,0.98c0.04-0.13-0.01-0.25,0.05-0.36
		c0.29,0.11,0.6,0.07,0.91,0.07c1.43,0,2.85,0,4.28,0c0.16,0,0.32,0.02,0.45-0.12C17.74,32.78,17.81,32.79,17.88,32.84z"/>
	<path class="st26" d="M11.99,33.62c0.01-0.04,0.02-0.08,0.02-0.12c0.16,0.11,0.34-0.08,0.5,0.04c0.21,0.15,0.45,0.05,0.67,0.07
		c0.15-0.32,0.42-0.14,0.64-0.18c0.05-0.01,0.1-0.01,0.14,0.05c0.09,0.12,0.63,0.24,0.69,0.13c0.17-0.31,0.42-0.13,0.63-0.17
		c0.04-0.01,0.12,0,0.13,0.02c0.16,0.34,0.45,0.1,0.67,0.17c0.02,0.01,0.06,0,0.06-0.02c0.1-0.29,0.33-0.16,0.51-0.17
		c0.31-0.02,0.62,0,0.93,0c0.02,0.14-0.02,0.27-0.09,0.39c-0.05,0.09-0.12,0.15-0.23,0.11c-0.14-0.05-0.29-0.03-0.44-0.03
		c-1.32,0-2.64,0-3.95,0c-0.28,0-0.55,0.03-0.8,0.17c-0.03-0.05-0.06-0.1-0.09-0.15C11.99,33.82,11.99,33.72,11.99,33.62z"/>
	<path class="st45" d="M13.61,29.47c-0.02-0.21,0.17-0.29,0.24-0.44c0.02-0.03,0.04-0.04,0.08-0.03c0.04,0.02,0.04,0.06,0.05,0.1
		c0.02,0.08-0.05,0.2,0.09,0.23c0.01,0.07-0.04,0.08-0.08,0.11C13.87,29.45,13.75,29.56,13.61,29.47z"/>
	<path class="st41" d="M13.61,29.47c0.12-0.03,0.25-0.07,0.37-0.1c0.02,0.02,0.02,0.04,0.02,0.06c-0.01,0.05-0.05,0.07-0.09,0.09
		c-0.08,0.02-0.16,0.08-0.25,0.04c-0.02-0.02-0.03-0.03-0.05-0.05C13.61,29.5,13.61,29.48,13.61,29.47z"/>
	<path class="st31" d="M14.31,29.27c0.06,0,0.12,0,0.19,0c0.01,0.02,0.01,0.04,0,0.06c-0.02,0.02-0.03,0.03-0.06,0.04
		c-0.07,0.03-0.15,0.06-0.22,0.01c-0.01-0.02-0.01-0.04,0-0.06C14.24,29.28,14.27,29.27,14.31,29.27z"/>
	<path class="st29" d="M14.21,29.32c0,0.02,0,0.03,0,0.05c0.01,0.05-0.02,0.07-0.06,0.09c-0.06,0.02-0.12,0.01-0.17-0.04
		c0-0.02,0-0.03,0-0.05c0.04,0,0.07-0.01,0.09-0.05C14.12,29.32,14.17,29.32,14.21,29.32z"/>
	<path class="st23" d="M16.62,28.69c0.24,0.05,0.48-0.02,0.71,0c0.06,0,0.14-0.04,0.17,0.03c0.03,0.07-0.04,0.13-0.09,0.18
		c-0.06,0.06-0.11,0.13-0.1,0.23c-0.31,0.12-0.62,0.12-0.93,0c-0.08,0-0.15,0-0.23,0c-0.08,0-0.15-0.01-0.13-0.12
		c0.01-0.1,0.07-0.15,0.16-0.11c0.11,0.05,0.19-0.03,0.29-0.02C16.6,28.88,16.57,28.75,16.62,28.69z"/>
	<path class="st24" d="M16.39,29.13c0.31,0,0.62,0,0.93,0c0.43,0.05,0.87,0.1,1.3,0.15c0,0,0,0,0,0c-0.03,0.14-0.14,0.12-0.22,0.12
		c-0.67-0.03-1.34,0.07-2-0.01c-0.42-0.06-0.82-0.03-1.23,0.01c-0.1,0.01-0.2,0.02-0.27-0.09c0.17-0.15,0.39-0.08,0.57-0.14
		c0.12,0,0.24-0.03,0.36,0.02C16.02,29.15,16.21,29.23,16.39,29.13z"/>
	<path class="st9" d="M15.47,29.17c-0.18,0.07-0.37,0.06-0.56,0.1c-0.04,0.04-0.08,0.04-0.13,0.02c-0.02-0.02-0.02-0.04-0.01-0.07
		c0.09-0.06,0.18-0.05,0.28-0.05c0.11-0.02,0.22-0.03,0.32-0.05C15.4,29.16,15.44,29.14,15.47,29.17z"/>
	<path class="st17" d="M15.47,29.17c-0.04,0-0.07-0.01-0.09-0.05c0.15,0.02,0.32-0.05,0.46,0.05
		C15.71,29.17,15.59,29.17,15.47,29.17z"/>
	<path class="st41" d="M17.88,32.84c-0.05,0-0.12,0-0.13,0.02c-0.1,0.28-0.33,0.17-0.51,0.18c-1.64,0.01-3.27,0-4.91,0
		c-0.1,0-0.21,0.03-0.3-0.16c0,0.18,0,0.29,0,0.4c-0.01,0-0.03,0-0.04,0c0-0.32,0-0.64,0-0.96c0-0.09,0.03-0.18-0.04-0.25
		c0-0.04,0.01-0.08,0.04-0.1c0.02,0.02,0.03,0.03,0.05,0.05c0.02,0.02,0.04,0.04,0.05,0.06c0.08,0.22,0.07,0.45,0.02,0.68
		c0,0,0.07-0.15,0.07-0.15c0.11-0.04,0.23-0.03,0.34-0.03c1.67,0,3.33,0,5,0c0.14,0,0.28-0.03,0.4,0.08
		C17.89,32.71,17.87,32.77,17.88,32.84z"/>
	<path class="st17" d="M29.37,29.18c-0.13-0.03-0.25,0.05-0.37,0.04c0-0.02,0-0.03,0-0.05c0.1-0.09,0.22-0.03,0.32-0.05
		c0.08,0.01,0.17-0.03,0.23,0.05C29.49,29.21,29.43,29.21,29.37,29.18z"/>
	<path class="st46" d="M29.37,29.18c0.06,0,0.12,0,0.18,0c0.06,0,0.12,0,0.19,0C29.62,29.27,29.49,29.24,29.37,29.18z"/>
	<path class="st30" d="M31.08,34.65c-0.01,0.23-0.13,0.42-0.2,0.64c-0.05,0.18-0.22,0.19-0.39,0.19c-0.98,0-1.96,0-2.94,0
		c-0.22,0-0.36,0.07-0.41,0.3c-0.08-0.03-0.15-0.07-0.23-0.1c-0.17-0.16-0.34-0.33-0.51-0.49c-0.03-0.05-0.06-0.1-0.09-0.15
		c0.08-0.18,0.24-0.14,0.38-0.15c0.14-0.01,0.29,0,0.45-0.01c-0.13-0.03-0.25-0.01-0.36-0.02c-0.18-0.01-0.28-0.13-0.37-0.26
		c-0.07-0.09-0.02-0.17,0.07-0.21c0.11-0.05,0.22-0.06,0.34-0.06c1.32,0,2.64,0,3.95,0C31.04,34.33,31.06,34.36,31.08,34.65z"/>
	<path class="st32" d="M14.77,29.22c0,0.02,0,0.03,0,0.05c-0.08,0.09-0.17,0.13-0.28,0.05c0-0.02,0-0.03,0-0.05
		C14.57,29.19,14.68,29.24,14.77,29.22z"/>
	<path class="st28" d="M14.49,29.32c0.09-0.02,0.18-0.03,0.28-0.05c0.05,0,0.09,0,0.14,0c0.29,0.12,0.57-0.03,0.86-0.02
		c0.16,0,0.33-0.07,0.48,0.05c0.04,0.03,0.12,0.02,0.18,0.02c0.31,0,0.62,0.03,0.92-0.01c0.35-0.04,0.7,0.01,1.05,0.01
		c0.07,0,0.16,0.03,0.22-0.05c0.14,0.06,0.36-0.07,0.42,0.19c-0.03,0.03-0.06,0.07-0.09,0.1c-1.31,0.05-2.62,0.01-3.93,0.02
		c-0.12,0-0.23,0-0.34-0.05c-0.09-0.05-0.21-0.07-0.22-0.21C14.46,29.32,14.48,29.32,14.49,29.32z"/>
	<path class="st42" d="M31.08,34.65c-0.03-0.25-0.19-0.25-0.37-0.25c-1.27,0.01-2.55,0-3.82,0c-0.05,0-0.11,0-0.16,0
		c-0.11,0.01-0.23,0.01-0.31,0.11c-0.02,0.03,0.27,0.28,0.33,0.28c0.14,0,0.28,0,0.42,0c0.08,0,0.17-0.01,0.15,0.12
		c-0.02,0.11-0.1,0.06-0.17,0.06c-0.28,0.01-0.57-0.07-0.84,0.07c-0.05-0.05-0.09-0.1-0.14-0.15c-0.11-0.14-0.21-0.27-0.28-0.44
		c0.03-0.16,0.12-0.24,0.26-0.26c0.14-0.02,0.24-0.07,0.32-0.19c0.11-0.17,0.29-0.16,0.46-0.16c1.19,0,2.37,0,3.56,0
		c0.15,0,0.31-0.01,0.46,0.01c0.14,0.01,0.26,0.06,0.31,0.21C31.25,34.27,31.15,34.46,31.08,34.65z"/>
	<path class="st35" d="M25.34,33.33c0.12-0.05,0.19-0.3,0.38-0.11c0.03,0.03,0.11,0.01,0.11-0.04c0.03-0.19,0.16-0.14,0.27-0.14
		c1.7,0,3.41-0.01,5.11,0c0.26,0,0.45-0.05,0.57-0.3c-0.02,0.24-0.18,0.41-0.23,0.64c-0.16,0.24-0.38,0.28-0.65,0.28
		c-1.52-0.01-3.04,0-4.55,0c-0.1,0-0.21-0.02-0.3,0.01c-0.27,0.1-0.48,0.01-0.67-0.19c-0.01,0-0.03,0-0.04,0
		C25.34,33.42,25.34,33.38,25.34,33.33z"/>
	<path class="st34" d="M17.13,35.09c-1.19,0.1-2.38,0.03-3.57,0.05c-0.1,0-0.18,0.01-0.24,0.11c-0.09,0.15-0.19,0.26-0.37,0.11
		c-0.06-0.05-0.12-0.02-0.13,0.07c-0.03-0.02-0.06-0.03-0.09-0.05c-0.03-0.07-0.1-0.11-0.09-0.19c-0.07-0.15,0.03-0.21,0.13-0.25
		c0.1-0.04,0.21-0.05,0.32-0.05c-0.23-0.02-0.45-0.03-0.68-0.04c-0.03-0.03-0.06-0.07-0.09-0.1c-0.02-0.06-0.03-0.13-0.05-0.19
		c-0.04-0.06-0.06-0.13-0.08-0.2c-0.05-0.1-0.02-0.17,0.07-0.22c0.09-0.05,0.21-0.11,0.27,0.01c0.09,0.2,0.25,0.19,0.41,0.19
		c1.23,0,2.46,0,3.68,0c0.08,0,0.15,0,0.23,0c0.29,0.01,0.31,0.02,0.33,0.32C17.13,34.79,17.13,34.94,17.13,35.09z"/>
	<path class="st43" d="M17.18,34.65c-0.03-0.24-0.19-0.25-0.37-0.25c-1.35,0.01-2.69,0-4.04,0c-0.14,0-0.29,0.04-0.27-0.2
		c0.01-0.07-0.06-0.12-0.1-0.06c-0.06,0.07-0.24,0-0.19,0.18c0.02,0.08,0.04,0.16,0.06,0.23c-0.1-0.03-0.07-0.15-0.14-0.2
		c-0.02-0.1-0.03-0.19-0.05-0.29c0-0.16,0.07-0.24,0.22-0.18c0.15,0.07,0.25-0.08,0.39-0.08c1.47,0.01,2.95,0.01,4.42,0
		c0.13,0,0.26,0.17,0.39,0.01C17.4,34.09,17.29,34.37,17.18,34.65z"/>
	<path class="st27" d="M25.38,33.48c0.14-0.06,0.18,0.11,0.28,0.14c0.05,0.01,0.1,0.08,0.15,0.04c0.2-0.15,0.42-0.08,0.63-0.08
		c1.38-0.01,2.76,0,4.15,0c0.33,0,0.68,0.07,0.96-0.19c-0.07,0.24-0.17,0.46-0.28,0.68c-0.13-0.12-0.28-0.15-0.45-0.15
		c-1.31,0.01-2.62,0-3.93,0c-0.19,0-0.38-0.02-0.42,0.26c-0.01,0.06-0.07,0.09-0.13,0.08c-0.2-0.04-0.34,0.05-0.46,0.2
		c-0.05-0.05-0.09-0.1-0.14-0.15c-0.06-0.11-0.09-0.25-0.18-0.34C25.51,33.8,25.45,33.64,25.38,33.48z"/>
	<path class="st15" d="M23.3,29.71c0.11,0.12,0.15,0.26,0.14,0.42c-0.03,0.41,0.05,0.83,0.05,1.24c-0.04,0.05-0.1,0-0.13,0.04
		c-0.07-0.33-0.1-0.66-0.1-0.99c0-0.19,0.03-0.39-0.04-0.58C23.19,29.78,23.22,29.72,23.3,29.71z"/>
	<path class="st32" d="M23.35,31.42c0.03-0.06,0.09-0.04,0.13-0.04c0.04,0,0.07,0.01,0.09,0.05C23.5,31.42,23.43,31.42,23.35,31.42z
		"/>
	<path class="st8" d="M23.72,31.32c-0.07-0.04-0.09-0.1-0.09-0.18c0.01-0.45,0.02-0.9,0.02-1.34c0-0.09,0.04-0.09,0.1-0.09
		c0.08,0,0.17,0,0.25,0c-0.01,0.16,0,0.32-0.16,0.42c-0.05,0.04-0.03,0.12-0.03,0.18c0,0.26,0,0.52,0,0.78
		C23.81,31.19,23.81,31.28,23.72,31.32z"/>
	<path class="st42" d="M12.41,34.84c0.26-0.11,0.52-0.03,0.78-0.03c0.05,0,0.06,0.07,0.04,0.12c-0.03,0.08-0.1,0.05-0.16,0.04
		c-0.18-0.02-0.38-0.07-0.43,0.21C12.52,35.11,12.45,34.99,12.41,34.84z"/>
	<path class="st8" d="M12.04,32.06c0-0.02,0-0.03,0-0.05c0.02-0.25,0.07-0.49,0.14-0.73c0.03-0.04,0.06-0.1,0.11-0.02
		c0.01,0.04,0.01,0.08,0,0.12c-0.02,0.14,0.06,0.19,0.17,0.21c0.08,0.01,0.17,0.01,0.25,0.01c1.52,0,3.03,0,4.55,0
		c0.15,0,0.31,0,0.46-0.06c0.2-0.08,0.36,0.04,0.52,0.13c-0.01,0.15-0.11,0.25-0.14,0.39c-0.12,0.09-0.26,0.08-0.4,0.08
		c-1.58,0-3.16,0-4.74,0c-0.16,0-0.32,0-0.47,0.08C12.31,32.32,12.18,32.15,12.04,32.06z"/>
	<path class="st11" d="M12.54,30.49c0.08-0.22,0.25-0.35,0.42-0.49c0.14,0.19,0.33,0.22,0.54,0.22c1.62,0,3.25,0,4.87,0
		c0.13,0,0.26-0.07,0.39-0.02c-0.07,0.25-0.15,0.51-0.28,0.73c-0.03,0.01-0.05,0.01-0.07-0.02c-0.07-0.18-0.22-0.15-0.36-0.15
		c-0.83,0-1.65,0-2.48,0c-0.78,0-1.56-0.02-2.34,0.01C12.97,30.79,12.72,30.73,12.54,30.49z"/>
	<path class="st9" d="M18.25,31.67c-0.06,0.04-0.11,0.1-0.18-0.01c-0.07-0.12-0.2-0.12-0.29-0.07c-0.15,0.1-0.3,0.08-0.45,0.08
		c-1.59,0-3.18,0-4.77,0c-0.1,0-0.2,0.01-0.29-0.06c-0.12-0.1-0.14-0.18-0.01-0.28c0.09-0.15,0.24-0.13,0.37-0.13
		c1.09,0,2.19,0,3.28,0c0.68,0,1.35,0,2.03,0c0.15,0,0.31-0.01,0.43,0.13C18.34,31.44,18.29,31.55,18.25,31.67z"/>
	<path class="st47" d="M17.92,32.64c-1.93,0-3.86,0-5.79,0c-0.04-0.08-0.02-0.16-0.02-0.24c-0.01-0.1,0.05-0.16,0.13-0.16
		c0.3-0.01,0.59-0.08,0.89-0.08c1.41,0.01,2.82,0,4.23,0.01c0.22,0,0.45-0.01,0.6,0.22C17.95,32.48,17.94,32.56,17.92,32.64z"/>
	<path class="st12" d="M18.76,30.2c-0.12,0.08-0.25,0.1-0.4,0.1c-1.59,0-3.18,0-4.77,0c-0.13,0-0.26-0.02-0.39-0.03
		c-0.18-0.01-0.25-0.08-0.24-0.27c0.06-0.11,0.16-0.17,0.27-0.2c0.03-0.02,0.07-0.04,0.09-0.02c0.19,0.26,0.47,0.03,0.69,0.15
		c0.05,0.03,0.1-0.01,0.15-0.04c0.06-0.04,0.14-0.07,0.2-0.04c0.34,0.14,0.66-0.09,1-0.02c0.33,0.08,0.68,0.04,1.02,0.04
		c0.35,0,0.7,0,1.04,0c0.34,0,0.68-0.01,1.02,0c0.17,0,0.32-0.03,0.43-0.18c0.03-0.01,0.05-0.01,0.07,0
		C18.88,29.87,18.82,30.04,18.76,30.2z"/>
	<path class="st37" d="M18.94,29.71c-0.02,0-0.03,0-0.05,0c-0.16,0.1-0.33,0.12-0.51,0.12c-0.83,0-1.66,0-2.5,0
		c-0.34,0-0.68-0.04-1.01-0.06c-0.31-0.01-0.61,0.02-0.92,0.02c-0.16,0-0.31-0.04-0.46-0.05c-0.04,0-0.07-0.03-0.07-0.08
		c0.08-0.03,0.15-0.07,0.23-0.1c0.08-0.03,0.16-0.06,0.24-0.09c0.1,0.03,0.19,0.01,0.27-0.05c0.02-0.02,0.03-0.03,0.05-0.05
		c0.08-0.02,0.15-0.03,0.23-0.05c0.16,0.14,0.34,0.2,0.55,0.2c1.28-0.02,2.56,0.02,3.84-0.02c0.06,0,0.08,0.03,0.11,0.07
		C18.94,29.62,18.94,29.66,18.94,29.71z"/>
	<path class="st6" d="M17.97,32.4c-0.03,0-0.07,0.08-0.08,0.04c-0.05-0.22-0.22-0.18-0.35-0.18c-1.63-0.01-3.25-0.01-4.88,0
		c-0.14,0-0.28,0.02-0.41,0.05c-0.2,0.04-0.08,0.22-0.11,0.34c0,0.05,0,0.09,0,0.14c-0.05-0.24-0.03-0.49-0.09-0.72
		c0.12-0.09,0.18,0.06,0.26,0.09c0.09,0.03,0.14,0.08,0.21-0.03c0.06-0.11,0.17-0.06,0.25-0.06c1.78,0,3.57,0,5.35,0
		C18.04,32.16,18.08,32.32,17.97,32.4z"/>
	<path class="st18" d="M18.38,31.32c-0.22-0.06-0.44-0.05-0.66-0.05c-1.71,0-3.42,0-5.14,0c-0.11,0-0.22-0.02-0.32,0.05
		c0-0.03,0-0.07,0-0.1c-0.03-0.06-0.03-0.12,0.01-0.17c0.06-0.08,0.15-0.07,0.24-0.07c1.88,0.03,3.76,0.02,5.64,0
		c0.14,0,0.24,0.03,0.28,0.19C18.42,31.23,18.4,31.28,18.38,31.32z"/>
	<path class="st16" d="M18.43,31.18c-0.06-0.08-0.11-0.17-0.24-0.11c-0.05,0.03-0.12,0.01-0.18,0.01c-1.75,0-3.51,0-5.26,0
		c-0.16,0-0.32-0.09-0.47,0c-0.01-0.01-0.02-0.02-0.01-0.03c0-0.01,0.01-0.02,0.01-0.02c0.03-0.07,0.06-0.13,0.09-0.2
		c0.06-0.03,0.12-0.07,0.19-0.06c0.68,0.08,1.37,0.03,2.05,0.03c1.13,0.01,2.26,0,3.4,0c0.15,0,0.31-0.02,0.43,0.12
		c0.02,0,0.03,0,0.05,0C18.46,31.01,18.45,31.1,18.43,31.18z"/>
	<path class="st17" d="M32.06,31.81c-0.02,0.02-0.05,0.03-0.07,0.05c-0.07-0.16-0.21-0.1-0.32-0.1c-2.14,0-4.28,0-6.42,0
		c0.02-0.28,0.11-0.52,0.28-0.73c0.05,0.01,0.08,0.04,0.11,0.07c0.09,0.08,0.19,0.09,0.3,0.09c1.98,0.01,3.95,0,5.93,0
		c0.06,0,0.12,0,0.18-0.02c0.16-0.04,0.21,0.04,0.2,0.19c-0.05,0.15-0.09,0.29-0.14,0.44C32.09,31.84,32.07,31.84,32.06,31.81z"/>
	<path class="st2" d="M25.29,32.25c0.05-0.07,0.13-0.04,0.19-0.05c0.14-0.02,0.3,0.06,0.41-0.12c0.02-0.04,0.14-0.02,0.22-0.02
		c1.95,0,3.9,0,5.85,0c0.05,0.07,0.04,0.13,0,0.2c-0.02,0.02-0.03,0.03-0.05,0.05c-0.05,0.07-0.03,0.21-0.16,0.22
		c-0.62,0.02-1.23,0.01-1.85,0.01c-1.2,0-2.41,0-3.61,0c-0.19,0-0.37,0.01-0.54-0.1c-0.07-0.05-0.15-0.03-0.22,0.01
		c-0.08,0.04-0.16,0.08-0.24,0.01c0-0.02,0-0.03,0-0.05C25.26,32.35,25.25,32.3,25.29,32.25z"/>
	<path class="st13" d="M25.89,30.54c0.03-0.05,0.06-0.1,0.09-0.14c0.11-0.08,0.22-0.16,0.32-0.24c0.29,0.17,0.6,0.11,0.9,0.11
		c1.64,0.01,3.28,0.01,4.92,0.01c0.16,0,0.33-0.02,0.47,0.08c-0.05,0.13-0.09,0.26-0.14,0.39c-1.58,0.04-3.17,0.02-4.76,0.03
		c-0.48,0-0.96-0.04-1.45-0.02C26.14,30.76,25.91,30.82,25.89,30.54z"/>
	<path class="st23" d="M25.89,30.54c0.14,0.16,0.44,0.2,0.56,0.06c0.04-0.04,0.09-0.08,0.11-0.03c0.09,0.19,0.24,0.11,0.36,0.11
		c1.51,0,3.02,0,4.53,0.01c0.26,0,0.52-0.08,0.78-0.05c0.1,0.01,0.18,0.02,0.24,0.1c-0.02,0.05-0.03,0.1-0.05,0.15
		C32.35,31,32.23,31,32.11,31c-1.75,0-3.5,0-5.25,0c-0.09,0-0.17-0.01-0.25-0.04c-0.23-0.01-0.45,0.01-0.68-0.02
		c-0.09-0.01-0.22,0.03-0.27-0.11c0-0.02,0-0.03,0-0.05C25.72,30.69,25.8,30.61,25.89,30.54z"/>
	<path class="st7" d="M27.61,29.52c0.19,0.18,0.42,0.19,0.67,0.18c0.69-0.02,1.39,0.01,2.08,0.01c0.76,0,1.51,0.01,2.27-0.01
		c0.11,0,0.12,0.06,0.17,0.11c-0.02,0.05-0.03,0.1-0.05,0.15c-0.09,0.08-0.2,0.07-0.31,0.07c-0.86,0-1.73,0.03-2.59-0.01
		c-0.53-0.02-1.06-0.02-1.6-0.03c-0.13,0-0.25,0.01-0.34,0.12c-0.06,0.04-0.12,0.05-0.19,0.03c-0.16-0.17-0.4-0.1-0.57-0.21
		c-0.04-0.02-0.08-0.04-0.12-0.06c-0.04-0.02-0.08-0.04-0.07-0.1c0,0,0,0,0,0C27.18,29.68,27.39,29.6,27.61,29.52z"/>
	<path class="st47" d="M25.29,32.45c0.08,0.01,0.14-0.03,0.21-0.09c0.09-0.08,0.22-0.1,0.3-0.02c0.11,0.13,0.23,0.11,0.36,0.11
		c1.79,0,3.57,0,5.36,0c0.11,0,0.22-0.02,0.31,0.05c0.01,0.01,0.02,0.02,0.01,0.03c0,0.01-0.01,0.02-0.01,0.02
		c-0.05,0.04-0.04,0.09-0.05,0.15c-0.08-0.05-0.18-0.05-0.27-0.05c-1.8,0-3.61,0-5.41,0c-0.11,0-0.22-0.03-0.29,0.1
		c-0.03,0.05-0.08,0.04-0.12,0c-0.04-0.04-0.1-0.07-0.15-0.05C25.21,32.89,25.31,32.6,25.29,32.45z"/>
	<path class="st18" d="M32.24,31.37c-0.05-0.06-0.06-0.2-0.19-0.1c-0.03,0.02-0.09,0-0.14,0c-1.97,0-3.95,0-5.92,0
		c-0.12,0-0.23-0.03-0.34-0.05c-0.08-0.02-0.08-0.08-0.09-0.15c0.16-0.11,0.35-0.07,0.52-0.07c1.96,0.01,3.92,0,5.88,0.01
		c0.13,0,0.27-0.01,0.36,0.11C32.32,31.22,32.3,31.3,32.24,31.37z"/>
	<path class="st19" d="M27.7,30.1c0.06,0,0.12,0,0.19,0c0.06-0.04,0.13-0.03,0.2-0.03c1.37,0.01,2.73,0,4.1,0
		c0.16,0,0.32,0,0.48,0.08c0,0.07-0.02,0.14-0.05,0.2c-0.28,0-0.55,0-0.83,0c-1.55,0-3.1-0.01-4.65,0.01
		c-0.21,0-0.43-0.13-0.65,0.02c-0.05,0.03-0.16-0.1-0.18-0.21c0.08-0.05,0.15-0.1,0.23-0.15C26.93,30.07,27.31,30.06,27.7,30.1z"/>
	<path class="st12" d="M32.66,30.15c-0.12,0.1-0.24-0.01-0.35-0.01c-1.38,0.01-2.75,0.01-4.13,0.01c-0.1,0-0.2,0.01-0.29-0.05
		c-0.01-0.18,0.11-0.21,0.23-0.19c0.3,0.04,0.59-0.02,0.89,0c1.25,0.08,2.5,0.04,3.74,0.05C32.75,30.03,32.72,30.1,32.66,30.15z"/>
	<path class="st16" d="M32.33,31.13c-0.17-0.04-0.35-0.05-0.53-0.05c-1.89,0-3.78,0-5.67,0c-0.19,0-0.38,0.04-0.57,0
		c-0.02-0.02-0.03-0.03-0.05-0.05c0.01-0.1,0.07-0.15,0.14-0.2c0.31,0.09,0.62,0.04,0.93,0.05c0.09,0.09,0.2,0.07,0.3,0.07
		c1.76,0,3.52,0,5.29,0c0.07,0,0.14-0.02,0.2,0.02C32.37,31.03,32.35,31.08,32.33,31.13z"/>
	<path class="st16" d="M32.38,30.98c-1.85,0-3.7,0-5.54,0c-0.09,0-0.21,0.07-0.25-0.09c0.13,0.04,0.25,0.05,0.39,0.05
		c1.68,0,3.36,0,5.04,0c0.14,0,0.28,0,0.41-0.05C32.43,30.92,32.42,30.96,32.38,30.98z"/>
	<path class="st29" d="M31.96,32.25c0-0.07,0-0.13,0-0.2c0.07-0.06,0.1-0.15,0.09-0.24c0.02,0,0.03,0,0.05,0
		C32.22,32.02,32.08,32.13,31.96,32.25z"/>
	<path class="st1" d="M34.93,32.45c0,0.07,0,0.13,0,0.2c-0.02,0.13,0.04,0.27-0.05,0.39c0-0.2,0-0.39,0-0.59
		C34.9,32.45,34.92,32.45,34.93,32.45z"/>
	<path class="st32" d="M31.83,32.55c0-0.02,0-0.03,0-0.05c0.01-0.08,0.03-0.15,0.09-0.2C31.92,32.4,31.9,32.48,31.83,32.55z"/>
	<path class="st23" d="M18.43,30.93c-0.13-0.04-0.25-0.05-0.39-0.05c-1.73,0-3.47,0-5.2,0c-0.16,0-0.33-0.03-0.49-0.05
		c0.04-0.13,0.07-0.26,0.18-0.34c0.17-0.06,0.21,0.17,0.37,0.18c0.18,0.01,0.36,0.02,0.54,0.02c1.58,0,3.17,0,4.75-0.01
		C18.39,30.68,18.46,30.74,18.43,30.93z"/>
	<path class="st7" d="M13.43,29.67c0.3,0.1,0.61,0.06,0.92,0.05c0.43-0.02,0.85-0.01,1.28,0.04c0.1,0.01,0.2,0.01,0.3,0.01
		c0.86,0,1.71,0,2.57,0c0.11,0,0.23,0.04,0.31-0.09c0.02-0.04,0.05,0.04,0.09,0.05c-0.05,0.21-0.19,0.25-0.38,0.25
		c-0.92-0.01-1.83,0-2.75-0.01c-0.28,0-0.57-0.04-0.85-0.06c-0.18-0.01-0.16,0.22-0.29,0.2c-0.1-0.02-0.09-0.26-0.27-0.17
		c-0.02,0.01-0.06-0.02-0.07-0.01c-0.15,0.19-0.35,0.02-0.48,0.06c-0.24,0.08-0.38,0.09-0.5-0.15c-0.01-0.01-0.04-0.01-0.07-0.02
		C13.28,29.73,13.36,29.7,13.43,29.67z"/>
	<path class="st9" d="M12.27,31.03c0,0.02,0,0.03,0,0.05c0,0.05,0,0.1,0,0.15c-0.03,0.02-0.06,0.03-0.09,0.05
		C12.2,31.19,12.21,31.1,12.27,31.03z"/>
	<path class="st45" d="M27.7,30.1c-0.39,0.06-0.79,0.09-1.16-0.1c0.12-0.12,0.29-0.13,0.42-0.24c0.02,0.04,0.05,0.04,0.09,0.05
		c0.03,0.02,0.03,0.1,0.09,0.05c0.13,0.06,0.26,0.11,0.4,0.1C27.65,29.95,27.71,29.98,27.7,30.1z"/>
	<path class="st25" d="M28.16,29.37c0.02,0.04,0.05,0.05,0.09,0.05c-0.11,0.19-0.22,0.1-0.32,0C28.01,29.4,28.09,29.39,28.16,29.37z
		"/>
	<path class="st47" d="M25.29,32.25c0,0.05,0,0.1,0,0.15c-0.06-0.03-0.09-0.08-0.09-0.15C25.23,32.2,25.26,32.25,25.29,32.25z"/>
	<path class="st28" d="M14.17,29.42c-0.07,0.16-0.17,0.1-0.27,0.05c0.03-0.02,0.06-0.03,0.09-0.05
		C14.04,29.42,14.11,29.42,14.17,29.42z"/>
	<path class="st19" d="M27.14,29.86c-0.01,0.03-0.01,0.09-0.06,0.07c-0.05-0.02-0.03-0.08-0.04-0.12
		C27.08,29.83,27.11,29.84,27.14,29.86z"/>
</g>
<g id="Capa_3">
	<path class="st48" d="M11.37,45.24c7.66,0,15.33,0,22.99,0C33.87,51.45,28.56,56.18,22.51,56C16.72,55.82,11.84,51.18,11.37,45.24z
		"/>
</g>
</svg>
