<?xml version="1.0" encoding="utf-8"?>
<!-- Generator: Adobe Illustrator 26.0.0, SVG Export Plug-In . SVG Version: 6.00 Build 0)  -->
<svg version="1.1" xmlns="http://www.w3.org/2000/svg" xmlns:xlink="http://www.w3.org/1999/xlink" x="0px" y="0px"
	 viewBox="0 0 80 80" style="enable-background:new 0 0 80 80;" xml:space="preserve">
<style type="text/css">
	.st0{fill:#1B672B;}
	.st1{fill:#1B674B;}
	.st2{fill:#1B6760;}
	.st3{fill:#1B676B;}
	.st4{fill:#0F0F0F;}
	.st5{fill:#101010;}
	.st6{fill:#2A2A2A;}
	.st7{fill:#2C2C2C;}
	.st8{fill:#303030;}
	.st9{fill:#111111;}
	.st10{fill:#292929;}
	.st11{fill:#131313;}
	.st12{fill:#171717;}
	.st13{fill:#141414;}
	.st14{fill:#222222;}
	.st15{fill:#252525;}
	.st16{fill:#212121;}
	.st17{fill:#1B1B1B;}
	.st18{fill:#181818;}
	.st19{fill:#1C1C1C;}
	.st20{fill:#161616;}
	.st21{fill:#1A1A1A;}
	.st22{fill:#242424;}
	.st23{fill:#1F1F1F;}
	.st24{fill:#1D1D1D;}
	.st25{fill:#191919;}
	.st26{fill:#1E1E1E;}
	.st27{fill:#313131;}
	.st28{fill:#2D2D2D;}
	.st29{fill:#080808;}
	.st30{fill:#070707;}
	.st31{fill:#2F2F2F;}
	.st32{fill:#040404;}
	.st33{fill:#020202;}
	.st34{fill:#0A0A0A;}
	.st35{fill:#0D0D0D;}
	.st36{fill:#0B0B0B;}
	.st37{fill:#030303;}
	.st38{fill:#090909;}
	.st39{fill:#282828;}
	.st40{fill:#2B2B2B;}
	.st41{fill:#202020;}
	.st42{fill:#333333;}
	.st43{fill:#151515;}
	.st44{fill:#0C0C0C;}
	.st45{fill:#050505;}
	.st46{fill:#060606;}
	.st47{fill:#010101;}
	.st48{fill:#262626;}
	.st49{fill:#343434;}
	.st50{fill:#0E0E0E;}
	.st51{stroke:#000000;stroke-miterlimit:10;}
</style>
<g id="Capa_4">
	<path class="st0" d="M19,9.31l-0.03-1.85c-0.02-0.89,0.95-1.48,1.71-1.03c1.95,1.14,3.18,1.14,3.99,0.78
		c1.92-0.85,1.58-3.72,3.66-4.49c1.75-0.66,2.65,1.15,5.12,0.84c2.7-0.35,2.88-2.68,5.33-3.03c2.69-0.38,3.26,2.32,6.69,2.72
		c3.72,0.43,5.19-2.51,7.83-1.46c2.06,0.82,1.55,2.75,4.07,4.07c2.4,1.25,3.68-0.06,5.54,1.25c1.86,1.32,0.94,2.9,2.82,4.91
		c2.33,2.48,4.85,1.25,6.27,3.45c1.36,2.11-0.39,4.15,1.15,5.85c1.32,1.46,3.12,0.51,3.97,1.78c1.23,1.82-2.12,4.36-1.25,7.73
		c0.65,2.51,2.82,2.27,3.34,4.7c0.65,3.01-2.46,4.39-1.88,7.73c0.43,2.47,2.28,2.63,2.19,4.49c-0.14,2.88-4.63,3.23-5.33,6.58
		c-0.59,2.82,2.19,4.45,1.25,6.27c-1.14,2.2-5.61,0.49-7.42,3.03c-1.45,2.04,0.7,4.2-0.73,6.27c-1.52,2.2-4.49,0.53-8.25,2.92
		c-3.06,1.95-2.29,3.81-4.7,4.81c-3.66,1.5-5.99-2.54-10.86-1.57c-3.69,0.74-3.77,3.33-6.79,3.34c-4,0.01-5.03-4.55-8.98-4.49
		c-3.35,0.05-4.28,3.36-6.79,2.82c-2.64-0.56-1.99-4.3-5.95-7.63c-2.98-2.5-5.21-1.95-6.37-4.18c-1.26-2.4,1.7-4.22,0.73-6.79
		c-1.07-2.85-4.9-2.12-6.06-4.91c-1.16-2.8,2.24-4.62,1.57-8.57c-0.66-3.84-4.26-4.26-4.18-7.21c0.09-3.29,4.58-3.72,5.33-7.83
		c0.61-3.35-2.09-4.58-1.15-7.21c1.19-3.32,5.98-2.7,7.1-6.06c0.87-2.61-1.48-4.61-0.42-6.16c0.59-0.87,2.15-1.46,6.11-0.72
		C18.34,10.59,19.01,10.04,19,9.31z"/>
</g>
<g id="Capa_3">
	<circle class="st1" cx="38.37" cy="39.92" r="34.1"/>
</g>
<g id="Capa_2">
	<circle class="st2" cx="39.37" cy="40.35" r="32.55"/>
</g>
<g id="Capa_1">
	<circle class="st3" cx="39.5" cy="40.12" r="30.15"/>
</g>
<g id="Capa_5">
	<g>
		<path class="st4" d="M24.61,38.89c-0.13,0.01-0.26,0.02-0.38-0.06c0.02-0.03,0.05-0.04,0.09-0.05c-0.08-0.01-0.16-0.02-0.23,0.03
			c-0.25-0.02-0.49-0.05-0.73-0.14c0.19-0.47,0.19-0.47,0.86-0.46c-0.36,0-0.44-0.05-0.44-0.28c0.21-0.04,0.41-0.01,0.6,0.04
			c0.81,0.22,1.65,0.23,2.48,0.33c0.55,0.07,1.09-0.06,1.64-0.11c0.2,0.05,0.39,0.03,0.59-0.01c0.13-0.01,0.26-0.02,0.38-0.05
			c0.29-0.06,0.58-0.11,0.85-0.22c0.26-0.06,0.53-0.11,0.77-0.23c0.81-0.25,1.52-0.65,2.21-1.08c0.86-0.52,1.51-1.2,2.1-1.93
			c0.25-0.25,0.36-0.57,0.58-0.84c0.08-0.1,0.12-0.21,0.19-0.31c0.09-0.13,0.12-0.28,0.18-0.42c0.11-0.19,0.18-0.39,0.18-0.6
			c0-0.03,0.01-0.07,0.02-0.1c0.06-0.11,0.12-0.21,0.15-0.33c0.06-0.18,0.03-0.35-0.02-0.53c-0.04-0.19,0.04-0.37,0.05-0.56
			c0.06-0.77-0.34-1.41-0.77-2.04c-0.09-0.13-0.23-0.24-0.17-0.41c0.17-0.12,0.34-0.23,0.36-0.45c0.01-0.14,0.13-0.22,0.29-0.24
			c0.23-0.03,0.28-0.13,0.19-0.32c-0.08-0.19-0.32-0.42,0.1-0.54c-0.01-0.01-0.03,0-0.04-0.01c-0.09-0.01-0.23,0.04-0.18-0.12
			c0.29,0.01,0.59-0.04,0.86,0.09c0.3,0.44,0.33,0.95,0.53,1.42c0.1,0.34,0.21,0.68,0.33,1.02c0.1,0.52,0.39,1,0.45,1.53
			c0.01,0.05,0.03,0.1,0,0.15c-0.06,0.23-0.11,0.46-0.17,0.69c-0.06-0.02-0.03-0.09-0.07-0.12c0.03,0.08-0.02,0.18,0.05,0.25
			c-0.22,1.29-0.92,2.39-1.83,3.39c-0.23,0.26-0.45,0.54-0.76,0.73c-0.11,0-0.16,0.05-0.16,0.14c-1.57,1.34-3.42,2.24-5.56,2.66
			c-0.1,0.02-0.19,0.04-0.29,0.05c-0.16-0.05-0.33-0.02-0.43-0.02c0.03-0.01,0.11-0.02,0.19,0.04c-0.46,0.11-0.93,0.16-1.4,0.14
			c-0.46-0.05-0.93-0.05-1.39,0c-0.68,0.01-1.36-0.02-2.03-0.13c0.04-0.05,0.09-0.05,0.15-0.05c-0.03,0.04,0.08,0.04,0.1,0.04
			C24.88,38.84,24.74,38.84,24.61,38.89z"/>
		<path class="st4" d="M62.66,33.19c-0.24,1.38-0.8,2.63-1.94,3.66c-1.27,1.15-2.85,1.68-4.58,1.97c-0.14,0.02-0.28,0.05-0.42,0.08
			c-0.07,0.04-0.15,0.03-0.23,0.03c-0.05-0.01-0.1-0.03-0.16-0.05c-0.05-0.02,0.02-0.01-0.04-0.01c-0.03,0,0.02,0.03,0.02,0.04
			c0,0.03-0.02,0.04-0.06,0.04c-0.77,0.03-1.54,0.14-2.32,0.09c-0.32-0.06-0.64-0.05-0.95,0c-0.27,0.01-0.55,0.03-0.81-0.06
			c0.1-0.07,0.21-0.07,0.26-0.05c-0.12,0.02-0.3-0.04-0.49,0.03c-0.21,0.04-0.41,0-0.61-0.08c0.01-0.15,0.14-0.08,0.22-0.1
			c0.03-0.01,0.01,0.01-0.01,0c-0.36-0.05-0.05-0.45-0.37-0.52c-0.11-0.02-0.18-0.1-0.04-0.18c0.36-0.12,0.68,0.06,1.01,0.11
			c1.39,0.22,2.76,0.14,4.12-0.11c0.27,0.06,0.52-0.01,0.77-0.07c0.29-0.04,0.56-0.16,0.83-0.25c0.15-0.06,0.31-0.08,0.46-0.13
			c0.15-0.05,0.29-0.11,0.43-0.18c0.26-0.11,0.53-0.22,0.78-0.36c0.23-0.13,0.48-0.22,0.68-0.39c0.56-0.35,0.94-0.85,1.45-1.25
			c0.11-0.02,0.13-0.08,0.11-0.17c0-0.09,0.04-0.17,0.09-0.24c0.12-0.17,0.17-0.36,0.26-0.54c0.2-0.41,0.34-0.82,0.39-1.27
			c0-0.04,0.01-0.08,0.02-0.12c0.11-0.41,0.03-0.82,0.05-1.23c0.01-0.2-0.03-0.4,0.06-0.59c0.14-0.15,0.2-0.32,0.2-0.52
			c0-0.15-0.01-0.3,0.12-0.43c0.54-0.16,0.76-0.05,0.82,0.42c0.01,0.09,0.02,0.17,0.03,0.26c0.03,0.17-0.02,0.35,0.14,0.49
			c0.01,0.05,0.01,0.1-0.03,0.15c-0.02,0.29-0.07,0.57-0.16,0.85c-0.06-0.03-0.05-0.08-0.05-0.13c0.05,0.03,0.04-0.07,0.04-0.08
			c-0.07,0.18-0.07,0.3-0.02,0.41c0.01,0.11,0.01,0.22-0.06,0.33c-0.03-0.01-0.05-0.04-0.05-0.07
			C62.63,33.06,62.62,33.13,62.66,33.19z"/>
		<path class="st5" d="M62.76,31.14c-0.08-0.05-0.08-0.12-0.09-0.2c-0.04-0.56-0.04-0.56-0.69-0.56c-0.02-0.01-0.03-0.03-0.05-0.04
			c-0.02-0.03-0.05-0.07-0.04-0.1c0.08-0.48-0.19-0.74-0.7-0.85c-0.23-0.2-0.31-0.48-0.47-0.72c-0.29-0.44-0.77-0.73-1.12-1.13
			c0-0.04,0.02-0.07,0.04-0.1c0.28-0.21,0.51-0.22,0.77,0.05c0.14,0.15,0.3,0.3,0.49,0.42c0.14,0.09,0.25,0.12,0.38,0
			c0.31-0.06,0.61-0.1,0.64-0.48c0.01-0.2,0.28-0.17,0.47-0.18c0.3,0,0.38,0.18,0.43,0.45c0.17-0.16,0.34-0.27,0.41-0.45
			c0.11-0.29,0.33-0.36,0.64-0.28c0.46,0.68,0.41,1.41,0.28,2.15c-0.02,0.1-0.04,0.22-0.12,0.28c-0.75,0.57-0.8,1.39-1.02,2.15
			c-0.01,0.05-0.04,0.09-0.06,0.14c-0.01-0.05-0.01-0.11-0.02-0.16C62.74,31.44,62.91,31.24,62.76,31.14z"/>
		<path class="st6" d="M19.97,25.96c0.15-0.07,0.31-0.07,0.47-0.06c0.15,0.07,0.31,0.02,0.38,0.03c-0.02,0-0.13,0.03-0.23-0.04
			c0.17-0.08,0.36-0.07,0.54-0.06c0.05,0.04,0.11,0.04,0.16,0.03c0.32,0,0.32,0,0.33,0.13c0.02,0.22,0.14,0.48-0.29,0.51
			c-0.07,0-0.14,0.02-0.22,0.02c-0.21-0.01-0.26,0.07-0.19,0.23c0.07,0.16,0.15,0.33,0.08,0.52c-0.07,0.13-0.21,0.21-0.35,0.27
			c-0.43,0.19-0.7,0.55-1.1,0.79c-0.38,0.19-0.83,0.3-1.05,0.69c-0.11,0.2-0.33,0.24-0.55,0.25c-0.24,0.01-0.36,0.1-0.44,0.29
			c-0.09,0.24-0.32,0.42-0.45,0.65c-0.12,0.2-0.23,0.1-0.32-0.03c-0.15-0.07-0.05-0.23-0.15-0.31c0.05-0.15-0.04-0.23-0.19-0.28
			c-0.13,0-0.21-0.06-0.26-0.16c-0.05-0.09,0.02-0.15,0.08-0.2c0.36-0.14,0.77-0.18,1.06-0.47c0.19-0.19,0.4-0.32,0.45-0.61
			c0.04-0.27,0.31-0.47,0.6-0.54c0.25-0.07,0.43-0.18,0.61-0.33c0.15-0.13,0.38-0.22,0.5-0.33c0.25-0.24,0.66-0.38,0.69-0.77
			C20.11,26.07,20.01,26.04,19.97,25.96z"/>
		<path class="st7" d="M45.46,26.49c0.48-0.14,0.97-0.25,1.48-0.31c0.13,0.05,0.2,0.18,0.09,0.23c-0.27,0.11-0.24,0.27-0.2,0.46
			c0.02,0.13-0.06,0.22-0.19,0.26c-0.14,0.04-0.19,0.14-0.24,0.24c-0.51,0.29-1.02,0.58-1.54,0.87c-0.29,0.2-0.51,0.46-0.72,0.73
			c-0.16,0.2-0.33,0.39-0.5,0.58c-0.34-0.08-0.53,0.08-0.7,0.31c-0.24,0.33-0.52,0.64-1.02,0.67c-0.08,0.01-0.17,0.04-0.23-0.05
			c-0.03-0.4,0.13-0.76,0.32-1.12c0.42-0.26,0.95-0.43,0.96-0.99c0.01-0.17,0.15-0.19,0.31-0.2c0.42-0.01,0.77-0.11,1.02-0.46
			c0.15-0.22,0.5-0.29,0.67-0.56c-0.36-0.04-0.75,0.04-1.07-0.16c-0.11-0.03-0.25-0.04-0.24-0.19c0.33-0.06,0.67-0.11,1-0.17
			c0.11-0.01,0.26-0.09,0.29,0.04c0.03,0.12-0.15,0.14-0.24,0.18c0.31-0.1,0.67-0.09,0.97-0.17C45.6,26.66,45.4,26.68,45.46,26.49z"
			/>
		<path class="st8" d="M16.26,29.24c-0.03,0.06-0.06,0.11-0.1,0.17c-0.4-0.79-0.27-1.57,0.01-2.35c0.05-0.14,0.21-0.2,0.35-0.27
			c0.91-0.42,1.89-0.65,2.92-0.75c0.23,0.05,0.16,0.05,0.16,0.22c-0.02,0.63-0.64,0.69-1.1,0.89c-0.63,0.27-1.11,0.63-1.26,1.25
			c-0.03,0.11-0.04,0.23-0.16,0.29C16.77,28.83,16.57,29.09,16.26,29.24z"/>
		<path class="st4" d="M42.08,29.39c-0.14,0.37-0.28,0.75-0.35,1.14c0.04,0.19-0.03,0.36-0.1,0.53c-0.03,0.05-0.07,0.09-0.15,0.07
			c-0.12-0.21-0.25-0.43-0.37-0.64c-0.09-0.19-0.09-0.37-0.06-0.58c0.08-0.47,0.04-0.96,0.03-1.43c-0.01-0.37,0-0.74,0.12-1.1
			c-0.06-0.11-0.22-0.1-0.28-0.21c0.18-0.07,0.36-0.06,0.55-0.06c0.13,0.06,0.27,0.03,0.36,0.03c-0.03,0.01-0.08,0.01-0.13-0.05
			c0.39-0.03,0.76-0.16,1.16-0.15c0.06,0.31-0.15,0.57-0.18,0.86c-0.13,0.42-0.27,0.84-0.41,1.26
			C42.23,29.18,42.2,29.31,42.08,29.39z"/>
		<path class="st9" d="M36.52,26.87c0.07,0.14,0.24,0.04,0.35,0.13c-0.37,0.06-0.3,0.24-0.18,0.43c0.26,0.42,0.26,0.44-0.24,0.51
			c-0.17,0.03-0.22,0.1-0.21,0.23c0.03,0.29-0.14,0.38-0.44,0.38c-0.13,0.04-0.22-0.03-0.3-0.1c-0.39-0.34-0.85-0.58-1.32-0.81
			c-0.1-0.05-0.25-0.09-0.21-0.24c0.04-0.03,0.1-0.05,0.16-0.06c0.5-0.05,0.51-0.05,0.36-0.43c-0.12-0.31,0.16-0.32,0.35-0.4
			c0.5,0.09,1.01,0.19,1.51,0.28c-0.07,0.08-0.17,0.04-0.25,0.05c0.08,0,0.16,0,0.25,0C36.42,26.85,36.48,26.85,36.52,26.87
			L36.52,26.87z"/>
		<path class="st10" d="M16.76,30.16c0.08-0.01,0.16,0.16,0.2,0.05c0.11-0.3,0.48-0.48,0.51-0.81c0.02-0.22,0.15-0.24,0.34-0.23
			c0.34,0.01,0.54-0.09,0.73-0.38c0.19-0.29,0.6-0.47,1.02-0.53c0.03,0.06,0.04,0.13,0,0.18c-0.39,0.52-0.54,1.13-0.81,1.69
			c-0.3,0.14-0.55,0.3-0.5,0.65c0.01,0.07-0.05,0.16-0.14,0.18c-0.36,0.07-0.73,0.22-1.09-0.02C16.92,30.68,16.81,30.43,16.76,30.16
			z"/>
		<path class="st9" d="M63.86,26.96c-0.29,0.03-0.51,0.11-0.57,0.41c-0.04,0.2-0.41,0.25-0.39,0.5c0,0.01-0.08,0.03-0.11,0.02
			c-0.11-0.04-0.13-0.14-0.12-0.22c0.06-0.39-0.24-0.35-0.52-0.33c-0.1,0.01-0.19,0.05-0.17,0.13c0.08,0.53-0.32,0.48-0.71,0.47
			c-0.15-0.22-0.13-0.55-0.56-0.58c-0.14-0.01-0.14-0.18-0.04-0.28c0.09-0.1,0.21-0.18,0.34-0.24c0.26-0.13,0.41-0.31,0.44-0.57
			c0.05-0.04,0.08-0.12,0.16-0.1C62.41,26.35,63.22,26.47,63.86,26.96z"/>
		<path class="st7" d="M16.26,29.24c0.18-0.26,0.4-0.48,0.72-0.62c0.04-0.02,0.11-0.04,0.1-0.06c-0.1-0.39,0.33-0.6,0.39-0.93
			c0.02-0.1,0-0.23,0.13-0.26c0.27-0.05,0.47-0.14,0.71-0.29c0.19-0.12,0.5-0.26,0.75-0.32c0.33-0.08,0.37-0.26,0.45-0.46
			c0.03-0.08,0.25-0.24-0.06-0.27c0.12-0.07,0.25-0.07,0.38-0.06c0.13,0.09,0.3-0.02,0.43,0.07c0.03,0.08,0.1,0.23,0.07,0.24
			c-0.36,0.19-0.44,0.64-0.89,0.75c-0.27,0.06-0.37,0.3-0.57,0.44c-0.07,0.05-0.1,0.15-0.22,0.16c-0.55,0.03-0.83,0.29-0.83,0.78
			c0,0.22-0.26,0.21-0.37,0.33C17.15,29.06,16.75,29.24,16.26,29.24z"/>
		<path class="st11" d="M23.74,37.98c0.13,0.21,0.38,0.22,0.61,0.29c-0.08,0-0.17,0.03-0.24,0.01c-0.33-0.08-0.56-0.05-0.58,0.31
			c0,0.03-0.11,0.06-0.17,0.09c-0.79-0.12-1.53-0.35-2.23-0.7c-0.06-0.21,0.07-0.47-0.29-0.61c-0.19-0.07-0.04-0.24,0.03-0.36
			c0.06-0.06,0.02-0.17,0.13-0.2c0.51,0.15,0.89,0.51,1.41,0.63c0.41,0.13,0.77,0.35,1.21,0.41C23.7,37.86,23.76,37.9,23.74,37.98z"
			/>
		<path class="st10" d="M46.33,27.34c0.02-0.05,0.02-0.12,0.05-0.14c0.37-0.16,0.4-0.39,0.26-0.7c-0.04-0.09,0.06-0.11,0.16-0.09
			c0.3,0.04,0.16-0.11,0.12-0.22c0.4-0.12,0.81-0.18,1.23-0.21c0.03,0.02,0.07,0.03,0.12,0.03c0.03,0,0.06,0.01,0.09-0.01
			c-0.03,0-0.05-0.02-0.06-0.04c0.12-0.07,0.25-0.06,0.38-0.06c0.08,0.05,0.16,0.03,0.25,0.03c0.03,0,0.06,0.01,0.08-0.02
			c-0.05,0.02-0.07,0-0.1-0.03c0.12-0.07,0.25-0.06,0.38-0.05c0.06,0.03,0.11,0.08,0.17,0.1c0.47,0.19,0.5,0.31,0.13,0.66
			c-0.04,0.01-0.08,0.02-0.12,0.02c-0.21-0.09-0.44-0.1-0.67-0.14c0.13,0.04,0.22,0.1,0.13,0.22c-0.41,0.19-0.87,0.22-1.3,0.35
			c-0.36,0.11-0.73,0.22-1.1,0.33C46.45,27.39,46.39,27.38,46.33,27.34z"/>
		<path class="st12" d="M59.72,25.9c0.16-0.01,0.32-0.01,0.47,0.06c-0.05,0.12-0.25,0.04-0.3,0.17c-0.53-0.02-0.82,0.27-1.05,0.62
			c-0.16,0.24-0.42,0.23-0.68,0.23c-0.09,0-0.17-0.01-0.25-0.03c-0.15-0.04-0.3-0.04-0.45-0.08c-0.32-0.12-0.69-0.11-1-0.25
			c0.05-0.35,0.37-0.25,0.6-0.25c0.16,0,0.32,0.04,0.43-0.1c0.09-0.11,0.15-0.23-0.09-0.25c-0.11,0.04-0.19,0.12-0.31,0.15
			c-0.13,0.03-0.25,0.03-0.38,0c-0.14-0.05-0.23-0.14-0.31-0.25c-0.01-0.03-0.02-0.06-0.03-0.09c-0.38-0.04-0.79,0.11-1.14-0.15
			c0.44-0.07,0.89-0.08,1.33-0.03c0.16-0.04,0.32-0.02,0.47,0.01c0.3,0.09,0.62-0.02,0.92,0.07c0.29-0.01,0.57-0.01,0.85,0.07
			c-0.03,0.05-0.09,0.04-0.13,0.05c0.09-0.01,0.2,0.02,0.28-0.04c0.22-0.01,0.43-0.02,0.64,0.06c-0.07,0.07-0.15,0.05-0.18,0.05
			C59.46,25.92,59.59,25.97,59.72,25.9z"/>
		<path class="st10" d="M41.48,31.14c0.03-0.02,0.06-0.05,0.08-0.07c0.04-0.03,0.09-0.09,0.14-0.08c0.49,0.17,0.83-0.1,1.19-0.3
			c0.15-0.08,0.29-0.11,0.44,0c0.14,0.2-0.04,0.43,0.06,0.64c0.04,0.18,0.03,0.36,0.03,0.54c0,0.06,0,0.12-0.01,0.19
			c-0.03,0.22-0.13,0.3-0.36,0.15c-0.23-0.15-0.29-0.06-0.47,0.12c-0.25,0.25-0.19,0.63-0.51,0.83c-0.22-0.39-0.36-0.81-0.41-1.25
			c0.07-0.08,0.02-0.17,0.05-0.25c-0.04,0.04-0.01,0.1-0.07,0.12C41.58,31.56,41.53,31.35,41.48,31.14z"/>
		<path class="st13" d="M58.15,26.88c0.52,0.13,0.72-0.26,0.85-0.51c0.17-0.35,0.42-0.3,0.71-0.28c0.07,0,0.14,0.02,0.18-0.04
			c0.13-0.09,0.3,0.01,0.43-0.07c0.15-0.01,0.31-0.01,0.44,0.07c0.03,0.11,0.02,0.23,0.1,0.32c0.15,0.17,0.18,0.34,0,0.5
			c-0.19,0.16-0.34,0.38-0.68,0.2c-0.19-0.1-0.36,0.04-0.43,0.2c-0.04,0.08-0.01,0.18-0.12,0.22l0,0
			C59.09,27.39,58.59,27.2,58.15,26.88z"/>
		<path class="st14" d="M17.47,33.06c-0.09-0.28-0.14-0.57-0.15-0.86c0.03-0.03,0.05-0.06,0.07-0.1c0.04-0.15,0.16-0.2,0.32-0.21
			c0.17-0.01,0.31-0.04,0.39-0.19c0.03-0.07,0.09-0.14,0.19-0.13c0.12,0.01,0.15,0.11,0.17,0.19c0.03,0.17,0.01,0.35,0.02,0.53
			c0,0.14-0.02,0.28,0.07,0.41c0.15,0.22,0.07,0.48,0.16,0.71c0.03,0.14,0.04,0.27,0,0.41c-0.23,0.33-0.28,0.35-0.6,0.12
			c-0.15-0.11-0.3-0.01-0.44-0.06c-0.1-0.22-0.16-0.45-0.16-0.69c0.03-0.03,0.04-0.07,0.03-0.1c0-0.03,0.02-0.05-0.01-0.08
			C17.51,33.04,17.5,33.05,17.47,33.06z"/>
		<path class="st10" d="M20.96,27.26c0.02-0.22-0.09-0.41-0.17-0.61c-0.07-0.17-0.06-0.31,0.23-0.24c0.04,0.01,0.08,0.02,0.13,0.02
			c0.17,0,0.38-0.01,0.46-0.14c0.09-0.14-0.2-0.14-0.23-0.27c0.07-0.03,0.14-0.05,0.23-0.08c-0.16-0.07-0.34,0.03-0.46-0.1
			c0.07,0,0.14-0.01,0.21-0.01c0.18-0.07,0.39,0.01,0.57-0.06c0.23-0.03,0.46-0.06,0.7-0.09c0.14-0.11,0.31-0.01,0.46-0.03
			c0.15,0.04,0.31,0.04,0.47,0.04c0.13,0,0.23,0.04,0.26,0.16c0.02,0.08,0.02,0.16-0.06,0.21c-0.1,0.08-0.18,0.01-0.27-0.04
			c-0.27-0.13-0.42-0.05-0.32,0.2c0.1,0.23-0.18,0.28-0.18,0.45c-0.05,0.07-0.12,0.1-0.19,0.13c-0.08,0.03-0.17,0.03-0.25,0.03
			c-0.27-0.02-0.25-0.23-0.33-0.38c-0.28,0.11-0.38,0.32-0.46,0.54c-0.02,0.03-0.04,0.06-0.07,0.09
			C21.45,27.18,21.24,27.31,20.96,27.26z"/>
		<path class="st14" d="M25.39,25.59c0.09,0,0.17,0,0.26,0c0.4,0.06,0.81,0.06,1.21,0c0.59-0.01,1.19-0.03,1.77,0.06
			c-0.2,0.19-0.46,0.09-0.69,0.12c-0.18,0.02-0.37-0.04-0.55,0.03c-0.17,0.44-0.63,0.35-1.03,0.41c0.12,0.21,0.47,0.03,0.5,0.29
			c-0.32,0.2-0.67,0.09-1.01,0.09c-0.28-0.09-0.57-0.05-0.86-0.05c-0.2-0.02-0.4,0.09-0.6,0.02c-0.14-0.38,0.35-0.94,0.79-0.91
			C25.27,25.65,25.36,25.71,25.39,25.59z"/>
		<path class="st15" d="M18.44,32.74c-0.21-0.35,0.01-0.74-0.18-1.21c-0.06,0.42-0.23,0.57-0.61,0.46
			c-0.16-0.05-0.14,0.17-0.26,0.22c-0.06-0.11-0.04-0.21-0.02-0.3c-0.06,0.02,0.01,0.13-0.07,0.17c-0.09-0.38-0.18-0.76-0.26-1.14
			c0.02-0.04,0.05-0.13,0.07-0.09c0.12,0.22,0.3,0.11,0.48,0.11c0.46,0,0.69-0.15,0.59-0.58c-0.03-0.16,0.07-0.25,0.26-0.2
			c0.13,0.04,0.18-0.05,0.26-0.09c0.2,0.25-0.02,0.49,0,0.74c-0.02,0.08-0.05,0.17-0.05,0.25c0,0.47-0.13,0.93-0.1,1.4
			C18.56,32.56,18.53,32.66,18.44,32.74z"/>
		<path class="st16" d="M51.12,25.67c0.13-0.03,0.26-0.05,0.39-0.01c0.38,0,0.76-0.14,1.12,0.08c0.03,0.02,0.13-0.05,0.2-0.05
			c0.09,0.01,0.17,0.01,0.26,0.01c0.65-0.02,0.82,0.21,0.55,0.75c-0.37,0.15-0.76,0.06-1.14,0.08c-0.18,0.01-0.37,0-0.55,0.03
			c-0.13,0.02-0.25,0.03-0.38,0.01c-0.16-0.05-0.35-0.03-0.49-0.16c-0.1-0.44,0.06-0.73,0.81-0.64
			C51.67,25.68,51.35,25.94,51.12,25.67z"/>
		<path class="st13" d="M48.07,38.29c-0.44-0.13-0.85-0.3-1.24-0.53c0.02-0.07,0.36,0.01,0.11-0.22c-0.14-0.13-0.19-0.32-0.41-0.44
			c-0.3-0.15-0.19-0.35,0.03-0.51c0.2-0.08,0.34,0.04,0.49,0.13c0.48,0.4,1.11,0.58,1.68,0.85c0.14,0.07,0.3,0.09,0.36,0.25
			c0.02,0.14-0.07,0.22-0.22,0.22C48.56,38.04,48.33,38.19,48.07,38.29z"/>
		<path class="st11" d="M59.63,27.49c-0.02-0.49,0.16-0.58,0.75-0.43c0.23,0.06,0.31-0.18,0.46-0.29c0.13-0.1,0.13-0.22-0.02-0.32
			c-0.19-0.12-0.2-0.26-0.05-0.41c0.22,0.11,0.54-0.03,0.69,0.23c0.16,0.24,0.11,0.43-0.19,0.55c-0.08,0.03-0.18,0.06-0.22,0.11
			c-0.09,0.13-0.38,0.12-0.34,0.3c0.04,0.18,0.27,0.08,0.41,0.1c0.13,0.02,0.16,0.09,0.16,0.19c0,0.14,0,0.28,0,0.42
			c-0.02,0.23-0.11,0.33-0.33,0.13c-0.25-0.22-0.54-0.4-0.75-0.67C60.02,27.18,59.83,27.51,59.63,27.49z"/>
		<path class="st17" d="M27.3,25.74c0.24-0.17,0.52-0.04,0.78-0.07c0.18-0.02,0.37-0.01,0.56-0.02c0.38,0,0.76-0.01,1.12,0.08
			c-0.04,0.05-0.09,0.05-0.15,0.05c0.03-0.04-0.08-0.04-0.1-0.04c0.21,0.06,0.35,0.07,0.48,0.01c0.21-0.01,0.43-0.01,0.63,0.06
			c-0.03,0.05-0.09,0.04-0.14,0.05c0.03,0.04,0.07-0.01,0.11,0c0.06,0.01,0.14,0,0.2,0.03c-0.18,0.13-0.17,0.38-0.48,0.52
			c0.33,0,0.57-0.02,0.8,0c0.1,0.01,0.23,0.01,0.26,0.11c0.03,0.14-0.13,0.13-0.23,0.17c-0.05,0.02-0.11,0.03-0.17,0.04
			c-0.77-0.05-1.55-0.06-2.31-0.25c-0.13-0.22-0.13-0.22,0.12-0.63c-0.36-0.05-0.72,0.01-1.07,0C27.56,25.86,27.39,25.91,27.3,25.74
			z"/>
		<path class="st15" d="M25.39,25.59c0.04,0.06,0.08,0.13,0.14,0.2c-0.6-0.13-0.87,0.04-1.18,0.7c-0.14,0.13-0.34,0.1-0.51,0.16
			c-0.18,0.03-0.37,0.01-0.55,0.07c-0.12,0.01-0.24,0.02-0.33-0.07c-0.09-0.06-0.18-0.12-0.28-0.19c0.13-0.08,0.24,0.06,0.35,0.02
			c0.09-0.05,0.02-0.11,0.03-0.16c0.03-0.16-0.22-0.33,0.01-0.48c0.12-0.08,0.43,0.01,0.63,0.16c0.08-0.15,0.06-0.24-0.15-0.26
			c-0.14-0.01-0.29,0.04-0.41-0.07c0.17-0.1,0.39,0,0.56-0.07C24.26,25.6,24.83,25.6,25.39,25.59z"/>
		<path class="st9" d="M48.07,38.29c0.16-0.24,0.4-0.36,0.72-0.33c0.14,0.01,0.22,0.01,0.24-0.13c0.4-0.03,0.79-0.04,1.04,0.31
			c0.24,0.06,0.44,0.14,0.38,0.42c-0.03,0.13,0.07,0.22,0.32,0.19c-0.19,0.1-0.34,0.03-0.44,0.13
			C49.55,38.78,48.79,38.59,48.07,38.29z"/>
		<path class="st13" d="M34.86,26.51c-0.22,0.18-0.49,0.36-0.04,0.59c0.03,0.01,0.03,0.15,0,0.17c-0.14,0.08-0.27,0.2-0.45,0.19
			c-0.13,0-0.26-0.03-0.38-0.05c-0.33,0.06-0.6-0.02-0.8-0.26c0.02-0.11,0.13-0.22,0.04-0.35c-0.13-0.2-0.05-0.38,0.07-0.55
			C33.84,26.25,34.35,26.39,34.86,26.51z"/>
		<path class="st18" d="M31.04,26.65c0.05-0.09,0.17-0.06,0.35-0.14c-0.46,0-0.83,0-1.24,0c0.21-0.25,0.34-0.49,0.63-0.62
			c-0.03-0.02-0.04-0.03-0.03-0.05c0.01-0.02,0.02-0.02,0.03-0.02c0.16-0.01,0.32-0.02,0.46,0.06c-0.07,0.07-0.15,0.05-0.18,0.05
			c0.06-0.01,0.2,0.04,0.32-0.03c0.48,0.03,0.95,0.09,1.42,0.21c-0.24,0.24-0.56,0.42-0.67,0.75c-0.09,0.07-0.18,0.15-0.32,0.11
			c-0.19-0.2-0.5-0.16-0.73-0.28C31.06,26.68,31.05,26.67,31.04,26.65z"/>
		<path class="st15" d="M38.7,31.08c-0.2-0.56-0.47-1.1-0.53-1.69c0.19-0.66,0.16-1.32,0.01-1.98c-0.02-0.08-0.07-0.17,0-0.25
			c0.3-0.08,0.47-0.07,0.55,0.27c0.18,0.8,0.04,1.61,0.17,2.4c0.02,0.14-0.01,0.28,0.02,0.41c0.04,0.09,0.08,0.18,0.1,0.28
			C38.91,30.71,38.8,30.9,38.7,31.08z"/>
		<path class="st19" d="M56.55,25.66c-0.41,0-0.83,0-1.24,0c0,0.02,0,0.04,0,0.06c0.42,0,0.85,0,1.29,0
			c-0.03,0.05-0.04,0.08-0.05,0.08c-0.04,0.01-0.08,0.01-0.13,0.01c-0.1,0.11-0.27,0.07-0.42,0.14c0.02,0.14,0.23,0.27,0.11,0.44
			c-0.11,0.14-0.29,0.15-0.45,0.19c-0.45,0.04-0.88-0.02-1.31-0.12c-0.24-0.45-0.15-0.69,0.31-0.8c0.07-0.01,0.14-0.03,0.2-0.07
			C55.42,25.59,55.99,25.56,56.55,25.66z"/>
		<path class="st20" d="M46.6,36.61c-0.11,0.21-0.34,0.41,0.18,0.48c0.33,0.04,0.18,0.41,0.32,0.6c0.05,0.08-0.17,0.04-0.26,0.07
			c-0.47-0.19-0.9-0.44-1.3-0.74c0.01-0.39,0.07-0.77,0.08-1.16C46.1,35.95,46.39,36.25,46.6,36.61z"/>
		<path class="st21" d="M45.64,35.85c0.09,0.4,0.17,0.79-0.1,1.17c-0.41-0.26-0.8-0.53-1.14-0.86c0.04-0.05,0.08-0.09,0.08-0.16
			c0.04-0.43,0.21-0.59,0.73-0.65c0.15,0.02,0.22,0.14,0.31,0.22C45.58,35.67,45.7,35.73,45.64,35.85z"/>
		<path class="st22" d="M42.59,34.12c-0.2-0.23-0.34-0.49-0.43-0.77c-0.05-0.4,0.33-0.55,0.61-0.6c0.33-0.06,0.5-0.14,0.54-0.42
			c0-0.03,0.05-0.06,0.09-0.07c0.29,0.16,0.21,0.45,0.31,0.68c0.02,0.08,0.03,0.15,0,0.23c-0.03,0.11-0.18,0.17-0.14,0.3
			c0.01,0.04,0.01,0.08-0.01,0.11c-0.03,0.06-0.08,0.15-0.13,0.14C43.01,33.64,43.01,34.22,42.59,34.12z"/>
		<path class="st19" d="M18.95,36.32c-0.49-0.39-0.73-0.92-0.95-1.45c-0.04-0.07-0.07-0.15,0.07-0.15c0.06,0,0.06,0.06,0.03,0.1
			c0.09-0.44,0.54-0.11,0.76-0.28c0.21,0.02,0.22,0.21,0.33,0.31c0.06,0.1,0.11,0.21,0.1,0.34c-0.05,0.24-0.03,0.48-0.06,0.71
			C19.22,36.08,19.2,36.26,18.95,36.32z"/>
		<path class="st12" d="M20.96,36.84c0.01,0.05,0.1,0.1,0,0.15c-0.19,0.1-0.35,0.21-0.32,0.44c0.01,0.08-0.03,0.21-0.2,0.17
			c-0.54-0.31-1.02-0.68-1.4-1.14c0.34-0.06,0.72-0.02,0.95-0.32c0.08-0.03,0.16-0.01,0.24,0.02
			C20.49,36.37,20.82,36.52,20.96,36.84z"/>
		<path class="st23" d="M43.81,35.62c-0.36-0.28-0.61-0.63-0.87-0.98c0.06-0.29,0.16-0.53,0.59-0.39c0.34,0.11,0.39-0.18,0.55-0.31
			c0.29,0.1,0.33,0.34,0.41,0.55C44.65,35.04,44.09,35.26,43.81,35.62z"/>
		<path class="st17" d="M40.34,30.06c-0.22,0.01-0.44,0.02-0.66,0.02c-0.33,0.03-0.43-0.13-0.43-0.39c0.02-0.76,0.01-1.51-0.03-2.26
			c-0.08-0.16-0.38-0.02-0.44-0.25c0.16-0.06,0.32-0.04,0.48-0.01c0.36,0.01,0.72,0.01,1.08,0.02c-0.06,0.23-0.34,0.12-0.47,0.23
			c-0.07,0.55-0.04,1.09,0.02,1.64c0.02,0.26,0.01,0.53,0.13,0.78c0.08,0.09,0.22,0.06,0.32,0.13c0.02,0.02,0.03,0.04,0.03,0.06
			C40.35,30.05,40.34,30.06,40.34,30.06z"/>
		<path class="st15" d="M51.12,25.67c0.27,0.17,0.59,0,0.87,0.1c-0.75,0.12-0.83,0.17-0.87,0.65c-0.17,0.16-0.43,0.07-0.62,0.15
			c-0.31-0.01-0.63,0.14-0.94-0.01c0.12-0.21,0.5-0.46-0.12-0.57c-0.06-0.01-0.09-0.12-0.14-0.18c0.1-0.04,0.18-0.02,0.23,0.06
			c0.13-0.1,0.3-0.09,0.46-0.13c0.11-0.01,0.21-0.01,0.32-0.02c0.23-0.08,0.49,0.02,0.72-0.06C51.06,25.67,51.09,25.67,51.12,25.67z
			"/>
		<path class="st9" d="M41.29,27.26c0.03,0.06,0.09,0.13,0.07,0.17c-0.36,0.7-0.1,1.43-0.14,2.14c-0.02,0.31-0.18,0.6-0.12,0.92
			c-0.21-0.14-0.42-0.27-0.63-0.41c0.21-0.07,0.07-0.23,0.11-0.34c0.1-0.31,0.1-0.63,0.05-0.93c-0.09-0.53,0.21-0.97,0.38-1.44
			c0.02-0.04,0.04-0.08,0.07-0.11C41.16,27.22,41.23,27.22,41.29,27.26z"/>
		<path class="st14" d="M39.26,27.18c-0.13,0.01-0.26,0.01-0.42,0.02c0.15,0.12,0.32,0.03,0.45,0.08c0.01,0,0.02,0.02,0.02,0.03
			c0,0.01-0.01,0.02-0.02,0.03c-0.04,0.03-0.12,0.07-0.12,0.11c0.09,0.82-0.1,1.63-0.03,2.44c0.02,0.19,0.16,0.39-0.13,0.51
			c-0.06,0.03-0.11,0.02-0.16-0.02c-0.02-0.02-0.06-0.04-0.05-0.06c0.04-0.73-0.22-1.45-0.07-2.18c0.07-0.31-0.2-0.59-0.16-0.91
			c0.01-0.09-0.27-0.02-0.42-0.05c0.07-0.21,0.23-0.1,0.37-0.08C38.78,27.1,39.03,27.1,39.26,27.18z"/>
		<path class="st20" d="M40.6,29.85c0.31,0.21-0.03,0.18-0.12,0.24c-0.05-0.01-0.09-0.02-0.14-0.03c0-0.02,0-0.04,0-0.07
			c-0.07-0.05-0.2-0.03-0.24-0.13c-0.07-0.38-0.15-0.76-0.14-1.15c0.01-0.46,0-0.92-0.14-1.37c0.13-0.16,0.38,0,0.52-0.14
			c0.15,0,0.29-0.01,0.44-0.01c0.1,0.09,0.25-0.01,0.35,0.08c0,0.03,0,0.05,0,0.08c-0.48,0.07-0.56,0.36-0.56,0.73
			C40.56,28.66,40.51,29.26,40.6,29.85z"/>
		<path class="st14" d="M44.08,33.95c-0.01,0.31-0.19,0.48-0.55,0.4c-0.26-0.06-0.44-0.09-0.44,0.22c0,0.02-0.09,0.05-0.14,0.07
			c-0.07-0.2-0.33-0.3-0.36-0.51c0.04-0.11,0.32,0.03,0.25-0.17c-0.09-0.26,0.09-0.22,0.27-0.24c0.22-0.02,0.52,0.01,0.31-0.34
			c-0.14-0.23,0.17-0.11,0.23-0.19c0.04-0.02,0.08-0.02,0.12,0C43.94,33.42,44.17,33.64,44.08,33.95z"/>
		<path class="st24" d="M43.81,35.62c0.06-0.24,0.08-0.5,0.46-0.53c0.12-0.01,0.13-0.08,0.09-0.16c-0.08-0.16,0.04-0.29,0.05-0.44
			c0.19-0.03,0.22,0.13,0.32,0.21c0.16,0.23,0.41,0.42,0.46,0.71c-0.36,0.12-0.71,0.24-0.66,0.67c0.01,0.09-0.08,0.08-0.15,0.09
			C44.16,36.02,43.99,35.82,43.81,35.62z"/>
		<path class="st23" d="M38.86,30.38c0.15-0.07,0.18-0.1,0.19-0.32c0.03-0.72-0.21-1.46,0.12-2.16c0.11-0.25-0.2-0.31-0.26-0.48
			c0.1-0.13,0.26-0.05,0.39-0.07c0.14,0.77,0.1,1.54,0.07,2.31c-0.01,0.25,0.06,0.37,0.31,0.44c-0.23,0.14-0.5,0.22-0.66,0.44
			C38.96,30.48,38.91,30.43,38.86,30.38z"/>
		<path class="st10" d="M38.53,27.1c-0.12,0.03-0.27-0.03-0.37,0.08c0.29,0.51,0.3,1.06,0.23,1.61c-0.02,0.16-0.06,0.32-0.06,0.48
			c0.01,0.13-0.05,0.16-0.18,0.11c-0.2-0.31-0.26-0.65-0.35-0.99c0-0.38,0.09-0.76-0.01-1.14c-0.02-0.09,0.04-0.17,0.1-0.24
			C38.12,27.03,38.33,27.03,38.53,27.1z"/>
		<path class="st15" d="M43.38,32.28c-0.09,0.38-0.15,0.38-0.62,0.55c-0.24,0.09-0.53,0.24-0.6,0.52c-0.08-0.05-0.1-0.13-0.1-0.21
			c0.09-0.13,0.11-0.28,0.11-0.43c-0.01-0.13-0.02-0.26,0.19-0.28c0.1-0.01,0.13-0.07,0.16-0.15c0.12-0.39,0.23-0.42,0.59-0.16
			c0.04,0.03,0.09,0.06,0.14,0.1c0.1-0.1,0.03-0.21,0.05-0.31C43.57,31.98,43.49,32.13,43.38,32.28z"/>
		<path class="st20" d="M32.08,26.81c0.07-0.37,0.34-0.58,0.72-0.7c0.18,0.02,0.38-0.03,0.5,0.15c0,0.23-0.08,0.46,0.1,0.69
			c0.09,0.11-0.08,0.15-0.19,0.17C32.76,27.22,32.39,27.11,32.08,26.81z"/>
		<path class="st23" d="M18.87,34.56c-0.01,0.13-0.11,0.16-0.24,0.15c-0.19,0-0.44-0.18-0.49,0.15c-0.01,0.07-0.1-0.26-0.14,0
			c-0.19-0.31-0.29-0.64-0.35-0.98c0.22-0.1,0.42-0.32,0.59,0.09c0.07,0.16,0.26-0.01,0.37-0.09c0.19-0.01,0.18,0.14,0.25,0.23
			C18.91,34.26,19.02,34.41,18.87,34.56z"/>
		<path class="st25" d="M20,36.16c-0.18,0.35-0.49,0.45-0.97,0.31c-0.09-0.02-0.06-0.09-0.08-0.15c0.27-0.25,0.16-0.57,0.2-0.86
			c0.01-0.1,0.02-0.2,0.07-0.29c0.13-0.03,0.17,0.07,0.23,0.13c0.12,0.19,0.27,0.36,0.43,0.53C19.93,35.94,20.06,36.02,20,36.16z"/>
		<path class="st26" d="M54.77,25.67c-0.55,0.08-0.43,0.45-0.43,0.76c-0.23,0.15-0.46,0.15-0.7,0c0-0.11,0-0.23,0-0.34
			c0-0.25-0.07-0.4-0.41-0.28c-0.15,0.05-0.31,0.02-0.46-0.06c-0.04,0.02-0.08,0.02-0.09-0.02c-0.02-0.07,0.03-0.1,0.09-0.13
			c0.41,0,0.81,0,1.22-0.01C54.23,25.69,54.51,25.57,54.77,25.67z"/>
		<path class="st27" d="M42.6,27.79c0.01-0.3,0.12-0.58,0.26-0.84c0.25-0.08,0.52-0.12,0.79-0.13c0.09,0.05,0.17,0.1,0.26,0.15
			c0.05-0.01,0.1,0,0.09,0.04c-0.05,0.28-0.55,0.71-0.86,0.71c-0.19,0-0.29,0.06-0.36,0.2c-0.03,0.06-0.08,0.16-0.18,0.09
			C42.53,27.95,42.54,27.86,42.6,27.79z"/>
		<path class="st28" d="M37.9,27.03c0.04,0.46,0.17,0.93-0.09,1.37c-0.18-0.47-0.36-0.95-0.43-1.45
			C37.56,26.95,37.74,26.96,37.9,27.03z"/>
		<path class="st20" d="M20.43,37.61c0.1-0.06,0.15-0.15,0.12-0.26c-0.09-0.32,0.12-0.36,0.41-0.35c-0.04,0.17-0.25,0.33,0.17,0.42
			c0.26,0.06,0.12,0.36,0.01,0.56C20.88,37.88,20.64,37.77,20.43,37.61z"/>
		<path class="st8" d="M45.46,26.49c0.07,0.19,0.28,0.14,0.46,0.19c-0.53,0.22-1.06,0.25-1.61,0.22c0.15-0.16,0.42-0.03,0.56-0.2
			c-0.05-0.08-0.15-0.03-0.22-0.06C44.89,26.49,45.22,26.66,45.46,26.49z"/>
		<path class="st15" d="M52.77,25.6c-0.01,0.05-0.1,0.1,0,0.14c-0.19,0.19-0.28-0.05-0.41-0.07c-0.28-0.03-0.57-0.01-0.85-0.01
			C51.92,25.56,52.34,25.6,52.77,25.6z"/>
		<path class="st29" d="M26.87,39.04c0.46-0.11,0.93-0.11,1.39,0C27.79,39.08,27.33,39.07,26.87,39.04z"/>
		<path class="st18" d="M26.87,25.59c-0.4,0.12-0.81,0.12-1.21,0C26.06,25.59,26.46,25.59,26.87,25.59z"/>
		<path class="st30" d="M51.99,39.04c0.32-0.11,0.64-0.12,0.95,0C52.62,39.07,52.3,39.08,51.99,39.04z"/>
		<path class="st7" d="M16.43,29.57c0.13-0.17,0.17-0.01,0.24,0.05c0.11,0.1,0.1,0.17-0.05,0.23
			C16.59,29.73,16.38,29.72,16.43,29.57z"/>
		<path class="st25" d="M57.94,25.74c-0.3-0.03-0.62,0.08-0.92-0.07C57.33,25.67,57.64,25.65,57.94,25.74z"/>
		<path class="st13" d="M54.77,25.67c-0.26-0.03-0.54,0.08-0.78-0.07c0.29,0,0.58,0,0.87,0.01C54.82,25.62,54.79,25.64,54.77,25.67z
			"/>
		<path class="st31" d="M51.03,25.67c-0.23,0.13-0.48,0.05-0.72,0.06C50.54,25.66,50.78,25.67,51.03,25.67z"/>
		<path class="st32" d="M50.94,38.97c0.19-0.12,0.4-0.06,0.61-0.01c-0.13,0.01-0.25,0.02-0.38,0.03
			C51.1,38.98,51.02,38.97,50.94,38.97z"/>
		<path class="st16" d="M20.59,25.88c0.12,0.01,0.25,0.02,0.37,0.03c-0.18,0.05-0.36,0.11-0.52-0.01
			C20.49,25.89,20.54,25.89,20.59,25.88z"/>
		<path class="st31" d="M49.98,25.75c-0.14,0.08-0.29,0.13-0.46,0.13C49.63,25.7,49.82,25.76,49.98,25.75z"/>
		<path class="st32" d="M29.66,38.9c-0.09-0.03-0.2,0.02-0.29-0.06c0.19-0.02,0.37-0.07,0.53,0.04
			C29.83,38.89,29.74,38.9,29.66,38.9z"/>
		<path class="st29" d="M60.33,25.97c-0.12,0.12-0.29,0.05-0.43,0.07c0.04-0.17,0.21-0.01,0.29-0.09
			C60.23,25.96,60.28,25.97,60.33,25.97z"/>
		<path class="st33" d="M41.7,27.1c0.07,0.01,0.13,0.02,0.28,0.05c-0.23,0.05-0.37,0.07-0.51-0.03C41.55,27.11,41.62,27.1,41.7,27.1
			z"/>
		<path class="st34" d="M59.72,25.9c-0.12,0.12-0.28,0.05-0.45,0.08c0.1-0.12,0.21-0.06,0.3-0.09
			C59.62,25.89,59.67,25.89,59.72,25.9z"/>
		<path class="st35" d="M31.39,25.9c-0.12,0.12-0.27,0.07-0.43,0.05c0.08-0.09,0.2-0.04,0.28-0.07
			C31.29,25.89,31.34,25.89,31.39,25.9z"/>
		<path class="st36" d="M30,25.75c-0.12,0.12-0.28,0.05-0.44,0.08c0.06-0.11,0.16-0.06,0.21-0.1C29.84,25.73,29.92,25.74,30,25.75z"
			/>
		<path class="st33" d="M24.61,38.89c0.13-0.12,0.28-0.05,0.44-0.07c-0.06,0.11-0.16,0.06-0.21,0.09
			C24.76,38.9,24.69,38.9,24.61,38.89z"/>
		<path class="st6" d="M21.91,25.75c-0.17,0.13-0.38,0.04-0.57,0.06C21.52,25.73,21.72,25.75,21.91,25.75z"/>
		<path class="st33" d="M62.75,32.74c-0.12-0.11-0.08-0.24-0.05-0.38c0.1,0.04,0.04,0.13,0.08,0.18
			C62.77,32.6,62.76,32.67,62.75,32.74z"/>
		<path class="st37" d="M41.12,27.26c-0.12-0.01-0.26,0.04-0.35-0.08c0.05,0,0.1-0.01,0.15-0.01c0.12,0.04,0.27-0.02,0.37,0.09
			C41.24,27.26,41.18,27.26,41.12,27.26z"/>
		<path class="st35" d="M30.78,25.82c0,0.02,0,0.05,0,0.07c-0.11,0-0.22,0-0.34,0c0.03-0.11,0.14-0.05,0.19-0.09
			C30.68,25.81,30.73,25.82,30.78,25.82z"/>
		<path class="st32" d="M36.53,26.88c-0.11,0-0.23,0-0.35,0c0.03-0.11,0.14-0.05,0.2-0.08C36.45,26.78,36.51,26.8,36.53,26.88z"/>
		<path class="st33" d="M38.51,31.9c-0.12-0.08-0.07-0.19-0.03-0.3c0.01,0.06,0.03,0.12,0.04,0.17
			C38.52,31.81,38.51,31.86,38.51,31.9z"/>
		<path class="st24" d="M41.63,31.77c0.01-0.06,0.02-0.12,0.05-0.23c0.06,0.16,0.09,0.27-0.03,0.36
			C41.64,31.86,41.64,31.81,41.63,31.77z"/>
		<path class="st33" d="M62.66,33.19c-0.12-0.08-0.07-0.19-0.02-0.3c0.01,0.06,0.03,0.11,0.04,0.17
			C62.68,33.11,62.67,33.15,62.66,33.19z"/>
		<path class="st20" d="M17.47,33.06c0.01-0.06,0.02-0.12,0.05-0.24c0.06,0.17,0.09,0.27-0.02,0.36
			C17.48,33.15,17.48,33.11,17.47,33.06z"/>
		<path class="st36" d="M35.76,36.17c-0.1-0.05-0.05-0.1,0-0.14c0.05-0.05,0.11-0.09,0.16,0C35.86,36.08,35.81,36.12,35.76,36.17z"
			/>
		<path class="st17" d="M48.31,25.96c0.07,0.01,0.13,0.02,0.27,0.04c-0.19,0.05-0.31,0.08-0.41-0.03
			C48.21,25.97,48.26,25.96,48.31,25.96z"/>
		<path class="st13" d="M17.3,32.07c0.01-0.06,0.03-0.11,0.05-0.19c0.09,0.11,0.04,0.22,0.05,0.32c-0.02,0-0.05,0-0.07,0
			C17.31,32.16,17.3,32.12,17.3,32.07z"/>
		<path class="st32" d="M24.09,38.81c0.1-0.09,0.22-0.08,0.35-0.05c-0.05,0.08-0.14,0.04-0.2,0.06
			C24.18,38.83,24.14,38.82,24.09,38.81z"/>
		<path class="st23" d="M20.26,26.05c-0.15-0.02-0.31,0.05-0.43-0.07c0.05-0.01,0.1-0.01,0.14-0.02
			C20.07,25.98,20.19,25.95,20.26,26.05z"/>
		<path class="st17" d="M48.91,25.88c0.04,0.01,0.1,0.02,0.11,0.04c0.02,0.05-0.04,0.04-0.07,0.04c-0.1,0-0.2,0.02-0.27-0.07
			C48.76,25.89,48.84,25.89,48.91,25.88z"/>
		<path class="st38" d="M58.94,25.82c-0.09,0.11-0.22,0.07-0.34,0.03c0.07-0.01,0.13-0.03,0.2-0.04
			C58.84,25.81,58.89,25.81,58.94,25.82z"/>
		<path d="M32.08,26.81c0.37,0.13,0.73,0.27,1.13,0.3c0.21,0.21,0.53,0.2,0.78,0.3c0.65,0.33,1.29,0.67,1.82,1.14
			c0.15,0.3,0.4,0.54,0.58,0.83c0.45,0.71,0.55,1.44,0.38,2.22c0.1,0.15,0.01,0.3-0.01,0.45c-0.05,0.13-0.07,0.26-0.16,0.38
			c0,0.03,0,0.05-0.01,0.08c-0.04,0.21-0.1,0.41-0.22,0.6c-0.05,0.13-0.1,0.26-0.16,0.39c-0.09,0.1-0.14,0.21-0.19,0.32
			c-0.24,0.26-0.35,0.6-0.61,0.85c-0.56,0.71-1.21,1.34-2,1.86c-0.72,0.51-1.51,0.9-2.36,1.2c-0.23,0.09-0.46,0.18-0.71,0.21
			c-0.27,0.13-0.56,0.17-0.86,0.22c-0.12,0.03-0.25,0.08-0.38,0.07c-0.17-0.02-0.32,0.15-0.51,0.04c-1.66,0.35-3.26-0.01-4.87-0.3
			c-0.5-0.06-0.92-0.32-1.39-0.46c-0.14-0.37-0.04-0.53,0.39-0.56c0.42-0.03,0.84-0.01,1.26-0.01c1.04,0,2.08,0,3.12,0
			c0.61,0,0.64-0.03,0.65-0.55c0-0.27,0.02-0.53,0.31-0.71c0.08-0.21,0.06-0.45,0.14-0.66c0.22-0.44,0.35-0.91,0.63-1.32
			c0.11-0.18,0.16-0.38,0.21-0.58c0.14-0.32,0.31-0.63,0.47-0.95c0.03-0.11,0.06-0.21,0.1-0.31c0.05-0.12,0.09-0.24,0.14-0.36
			c0.1-0.18,0.14-0.37,0.21-0.56c0.09-0.2,0.22-0.38,0.28-0.59c0.09-0.18,0.18-0.36,0.24-0.54c0.03-0.08,0.06-0.17,0.09-0.25
			c0.03-0.12,0.07-0.25,0.11-0.37c0.25-0.34,0.35-0.74,0.53-1.11c0.11-0.25,0.23-0.5,0.31-0.76c0.01-0.07,0.03-0.14,0.06-0.21
			c0.05-0.09,0.12-0.15,0.23-0.17C31.91,26.91,31.99,26.86,32.08,26.81z"/>
		<path class="st27" d="M33.39,36.47c0.75-0.54,1.4-1.16,2-1.83c0.05,0.01,0.08,0.03,0.09,0.08c-0.42,0.69-1.06,1.21-1.71,1.73
			c-0.12,0.09-0.25,0.16-0.38,0.24C33.31,36.61,33.32,36.54,33.39,36.47z"/>
		<path class="st8" d="M33.39,36.47c0,0.07,0,0.15,0,0.22c-0.71,0.43-1.41,0.87-2.25,1.08c-0.09,0.03-0.11-0.01-0.09-0.08
			C31.88,37.36,32.67,36.96,33.39,36.47z"/>
		<path class="st8" d="M35.47,34.72c-0.03-0.03-0.06-0.05-0.09-0.08c0.2-0.28,0.4-0.56,0.6-0.84c0.08-0.02,0.13,0,0.1,0.08
			C35.86,34.15,35.81,34.51,35.47,34.72z"/>
		<path class="st39" d="M36.35,33.12c0.06-0.21,0.11-0.43,0.25-0.61c0.07,0.23,0.02,0.44-0.17,0.61
			C36.4,33.14,36.37,33.15,36.35,33.12z"/>
		<path class="st40" d="M31.04,37.68c0.03,0.03,0.06,0.05,0.09,0.08c-0.23,0.16-0.5,0.22-0.79,0.23c-0.03-0.02-0.04-0.03-0.03-0.05
			c0.01-0.02,0.02-0.03,0.03-0.03C30.58,37.84,30.81,37.76,31.04,37.68z"/>
		<path class="st39" d="M30.34,37.91c0,0.03,0,0.05,0,0.08c-0.25,0.19-0.56,0.2-0.87,0.23c-0.02-0.02-0.03-0.03-0.02-0.05
			c0.01-0.02,0.01-0.02,0.02-0.02C29.77,38.06,30.05,37.99,30.34,37.91z"/>
		<path class="st15" d="M36.35,33.12c0.03,0,0.05,0,0.08,0c0,0.17-0.05,0.32-0.17,0.46c-0.05-0.01-0.08-0.03-0.09-0.08
			C36.21,33.36,36.22,33.22,36.35,33.12z"/>
		<path class="st41" d="M36.69,32.06c0.03-0.15,0.06-0.3,0.08-0.46c0.14,0.18,0.13,0.35,0,0.53C36.74,32.11,36.71,32.09,36.69,32.06
			z"/>
		<path class="st28" d="M36.16,33.49c0.03,0.03,0.06,0.05,0.09,0.08c-0.06,0.1-0.12,0.2-0.17,0.31c-0.03-0.03-0.07-0.06-0.1-0.08
			C36.01,33.68,36.05,33.57,36.16,33.49z"/>
		<path class="st40" d="M36.69,32.06c0.03,0.02,0.06,0.05,0.08,0.07c0,0.13-0.01,0.25-0.17,0.3C36.63,32.3,36.66,32.18,36.69,32.06z
			"/>
		<path class="st25" d="M28.61,38.29c0.17-0.03,0.35-0.05,0.52-0.08c0.03,0.02,0.04,0.03,0.03,0.05c-0.01,0.02-0.02,0.02-0.03,0.02
			C28.95,38.28,28.78,38.46,28.61,38.29z"/>
		<path class="st9" d="M30.38,38.63c-0.15,0.05-0.25,0.13-0.41,0.09C30.08,38.61,30.2,38.57,30.38,38.63z"/>
		<path class="st22" d="M29.13,38.29c0-0.02,0-0.05,0-0.07c0.12-0.02,0.23-0.05,0.35-0.07c0,0.02,0,0.05,0,0.07
			C29.38,38.32,29.25,38.28,29.13,38.29z"/>
		<path class="st13" d="M38.25,32.51c-0.02,0.02-0.04,0.07-0.09,0.09c-0.05,0.03-0.08-0.02-0.07-0.06c0.01-0.04,0.04-0.1,0.08-0.12
			C38.22,32.39,38.24,32.44,38.25,32.51z"/>
		<path d="M50.07,38.14c-0.31-0.2-0.7-0.18-1.04-0.31c-0.54-0.25-1.08-0.49-1.61-0.75c-0.16-0.07-0.35-0.13-0.39-0.32
			c-0.1-0.34,0.16-0.45,0.44-0.54c0.18-0.05,0.37-0.04,0.56-0.04c1.61,0,3.21,0,4.82,0c0.95,0,0.96,0.04,1.34-0.87
			c0.03-0.08,0.05-0.17,0.08-0.26c0.13-0.32,0.32-0.62,0.39-0.96c0.17-0.36,0.39-0.71,0.52-1.09c0.12-0.33,0.37-0.6,0.43-0.95
			c0-0.04,0-0.07,0.01-0.11c0.01-0.09,0.04-0.17,0.1-0.25c0.11-0.1,0.15-0.23,0.2-0.36c0.02-0.05,0.06-0.09,0.1-0.13
			c0.22-0.17,0.34-0.37,0.24-0.64c0.03-0.24,0.17-0.44,0.25-0.66c0.07-0.12,0.11-0.26,0.16-0.38c0.03-0.08,0.07-0.15,0.11-0.23
			c0.03-0.06,0.06-0.12,0.08-0.18c0.03-0.08,0.06-0.16,0.09-0.24c0.07-0.2,0.17-0.38,0.25-0.58c0.04-0.1,0.08-0.19,0.12-0.29
			c0.06-0.11,0.11-0.22,0.15-0.33c0.03-0.08,0.06-0.16,0.09-0.25c0.09-0.2,0.12-0.43,0.34-0.56c0.09,0,0.17,0,0.26,0
			c0.51,0.16,1.01,0.37,1.48,0.61c0.69,0.5,1.27,1.07,1.56,1.82c0.37,0.41,0.4,0.91,0.47,1.4c0.03,0.29-0.05,0.58-0.04,0.88
			c0,0.29,0,0.59,0,0.88c0.01,0.24-0.01,0.48,0,0.72c0,0.02,0,0.04,0,0.07c-0.2,0.41-0.23,0.87-0.47,1.27
			c-0.09,0.16-0.16,0.33-0.26,0.5c-0.43,0.71-1.07,1.25-1.76,1.76c-0.19,0.12-0.41,0.21-0.61,0.33c-0.23,0.14-0.5,0.21-0.72,0.36
			c-0.16,0.07-0.33,0.12-0.5,0.18c-0.13,0.06-0.28,0.05-0.4,0.13c-0.3,0.1-0.59,0.21-0.91,0.26c-0.21,0.03-0.4,0.15-0.63,0.09
			c-1.31,0.28-2.61,0.39-3.96,0.18C50.98,38.25,50.54,38.09,50.07,38.14z"/>
		<path class="st5" d="M61.54,31.6c0-0.3,0-0.61,0-0.91c0.09-0.16,0-0.52,0.43-0.3c0,0.22-0.01,0.44,0,0.67
			c0.01,0.17-0.06,0.26-0.26,0.25c-0.09,0.09-0.01,0.21-0.07,0.31C61.61,31.62,61.58,31.62,61.54,31.6z"/>
		<path class="st27" d="M59.09,36.76c0.36-0.34,0.78-0.63,1.13-0.98c0.24-0.24,0.37-0.54,0.63-0.76c0.05,0.01,0.08,0.04,0.09,0.08
			c-0.03,0.08-0.06,0.15-0.08,0.23c0,0.06-0.02,0.12-0.09,0.15c-0.48,0.44-0.9,0.93-1.47,1.3C59.22,36.81,59.16,36.81,59.09,36.76z"
			/>
		<path class="st6" d="M61.11,34.56c0.1-0.4,0.31-0.78,0.36-1.2c0.01-0.07,0.09-0.09,0.16-0.1c-0.06,0.45-0.16,0.9-0.44,1.3
			C61.17,34.59,61.14,34.59,61.11,34.56z"/>
		<path class="st26" d="M61.63,33.2c-0.17-0.22-0.05-0.46-0.08-0.69c0.09-0.19,0.01-0.4,0.05-0.59c0.03-0.04,0.07-0.04,0.12-0.02
			C61.68,32.33,61.81,32.78,61.63,33.2z"/>
		<path class="st7" d="M57.8,37.44c0.18-0.2,0.47-0.25,0.7-0.37c0.09-0.03,0.11,0.01,0.08,0.08c-0.23,0.17-0.52,0.25-0.78,0.38
			c-0.03-0.02-0.04-0.03-0.03-0.05C57.78,37.45,57.79,37.44,57.8,37.44z"/>
		<path class="st40" d="M58.59,37.15c-0.03-0.03-0.06-0.05-0.08-0.08c0.17-0.13,0.37-0.24,0.59-0.31c0.06,0,0.13,0,0.19,0
			C59.09,36.94,58.83,37.04,58.59,37.15z"/>
		<path class="st16" d="M55.98,37.99c0.32-0.08,0.64-0.15,0.95-0.23c0.02,0.02,0.03,0.03,0.03,0.05c-0.01,0.02-0.02,0.02-0.02,0.02
			c-0.29,0.09-0.55,0.25-0.87,0.23C55.98,38.09,55.96,38.05,55.98,37.99z"/>
		<path class="st42" d="M61.11,34.56c0.03,0,0.05,0,0.08,0c-0.06,0.19-0.08,0.39-0.26,0.53c-0.03-0.03-0.06-0.05-0.09-0.08
			C60.89,34.84,60.97,34.69,61.11,34.56z"/>
		<path class="st17" d="M55.98,37.99c0.03,0.02,0.06,0.05,0.09,0.07c-0.22,0.08-0.44,0.23-0.69,0.08
			C55.58,38.09,55.78,38.04,55.98,37.99z"/>
		<path class="st43" d="M62.76,31.14c0.25,0.07,0.09,0.26,0.16,0.38C62.5,31.52,62.84,31.26,62.76,31.14z"/>
		<path class="st10" d="M57.8,37.44c0,0.03,0,0.05,0.01,0.08c-0.14,0.05-0.29,0.1-0.43,0.16c-0.09,0.03-0.11-0.01-0.09-0.07
			C57.46,37.55,57.63,37.5,57.8,37.44z"/>
		<path class="st12" d="M61.72,31.9l-0.04,0l-0.04,0c-0.06-0.1-0.06-0.2,0-0.31c0.01-0.1-0.04-0.22,0.09-0.3
			C61.72,31.5,61.72,31.7,61.72,31.9z"/>
		<path class="st22" d="M57.29,37.61c0.03,0.02,0.06,0.05,0.09,0.07c-0.12,0.12-0.31,0.06-0.44,0.15c0-0.02,0-0.05,0-0.07
			C57.02,37.65,57.18,37.67,57.29,37.61z"/>
		<path class="st44" d="M60.76,35.47c0.03-0.05,0.06-0.1,0.09-0.15c0.07,0.04,0.09,0.09,0.04,0.15
			C60.85,35.51,60.8,35.52,60.76,35.47z"/>
		<path class="st4" d="M61.98,30.38c-0.3-0.07-0.33,0.16-0.43,0.3c-0.01-0.48-0.23-0.91-0.35-1.37
			C61.98,29.56,61.98,29.56,61.98,30.38z"/>
		<path class="st45" d="M18.61,30.83c-0.05-0.26,0.1-0.5,0.09-0.76c0.2-0.64,0.46-1.26,0.88-1.82c0.38-0.42,0.86-0.73,1.39-0.99
			c0.23-0.08,0.46-0.15,0.69-0.23c0.08-0.02,0.11,0.02,0.11,0.08c-0.08,0.15-0.25,0.16-0.39,0.22c-0.14,0.05-0.27,0.12-0.39,0.2
			c-0.19,0.08-0.36,0.18-0.5,0.32c-0.28,0.22-0.56,0.44-0.76,0.72c-0.14,0.16-0.25,0.34-0.34,0.53c-0.05,0.11-0.1,0.22-0.17,0.33
			c-0.08,0.13-0.12,0.27-0.16,0.4c-0.13,0.35-0.1,0.74-0.32,1.07C18.64,30.93,18.59,30.93,18.61,30.83z"/>
		<path class="st31" d="M42.6,27.79c0,0.05,0.01,0.1,0.01,0.15c0.04-0.33,0.22-0.45,0.59-0.31c0.06,0.02,0.19-0.01,0.2-0.02
			c0.03-0.31,0.49-0.35,0.51-0.65c0.23-0.11,0.38,0.21,0.61,0.09c0.02-0.01,0.05,0.01,0.08,0.02c0.2,0.03,0.49-0.16,0.56,0.08
			c0.03,0.1-0.25,0.32-0.44,0.42c-0.25,0.13-0.41,0.29-0.56,0.49c-0.2,0.27-0.59,0.21-0.9,0.24c-0.18,0.02-0.28,0.07-0.19,0.18
			c0.21,0.24,0.07,0.29-0.15,0.39c-0.21,0.1-0.4,0.25-0.48,0.46c-0.08,0.2-0.2,0.19-0.35,0.07C42.2,28.84,42.37,28.31,42.6,27.79z"
			/>
		<path class="st6" d="M43.29,30.68c-0.17,0-0.36-0.02-0.42,0.17c-0.04,0.13-0.15,0.13-0.27,0.13c-0.19,0-0.35,0.01-0.45,0.2
			c-0.07,0.15-0.26,0.15-0.3-0.01c-0.05-0.19-0.16-0.12-0.28-0.12c0.01-0.19,0.06-0.37,0.17-0.53c0.61-0.11,0.97-0.46,1.28-0.91
			c0.13-0.18,0.36-0.37,0.62-0.08c0.1,0.3-0.16,0.55-0.18,0.83C43.41,30.48,43.41,30.61,43.29,30.68z"/>
		<path class="st32" d="M46.33,27.34c0.06,0,0.11,0,0.17,0c0.08-0.05,0.15-0.04,0.2,0.03c0.01,0.04,0,0.07-0.02,0.1
			c-0.19,0.22-0.52,0.22-0.74,0.38c-0.15,0.08-0.29,0.17-0.43,0.25c-0.23,0.09-0.38,0.32-0.67,0.32c-0.09-0.06-0.15-0.13-0.07-0.23
			C45.29,27.9,45.81,27.62,46.33,27.34z"/>
		<path class="st46" d="M43.38,30.38c-0.01-0.3,0.16-0.56,0.26-0.83c0-0.29,0.3-0.4,0.44-0.61c0.09-0.04,0.15,0.01,0.2,0.07
			c0.01,0.03,0.01,0.07,0,0.1c-0.07,0.12-0.19,0.22-0.25,0.35c-0.27,0.33-0.32,0.75-0.58,1.09C43.32,30.53,43.32,30.46,43.38,30.38z
			"/>
		<path class="st46" d="M44.25,29.01c-0.06-0.03-0.12-0.05-0.18-0.08c0.17-0.3,0.44-0.52,0.7-0.75c0.03,0.07,0.06,0.15,0.09,0.22
			c0.05,0.12-0.06,0.19-0.13,0.26C44.57,28.79,44.47,28.96,44.25,29.01z"/>
		<path class="st47" d="M28.26,35.7c-0.45,0.21-0.36,0.59-0.34,0.93c0.03,0.36-0.14,0.45-0.53,0.45c-1.5-0.02-3,0-4.5-0.01
			c-0.4,0-0.61,0.08-0.55,0.46c-0.5-0.17-0.92-0.46-1.39-0.68c-0.26-0.2-0.52-0.41-0.78-0.61c-0.07-0.24,0.13-0.22,0.27-0.19
			c0.24,0.05,0.42-0.02,0.58-0.17c0.22-0.21,0.51-0.21,0.8-0.21c1.6,0,3.21,0,4.81,0c0.36,0,0.72,0.01,1.08-0.05
			C27.91,35.59,28.1,35.58,28.26,35.7z"/>
		<path class="st30" d="M46.68,27.41c-0.04-0.06-0.11-0.07-0.18-0.08c0.63-0.32,1.34-0.43,2.02-0.6c0.14-0.04,0.28-0.05,0.42-0.08
			c0.1-0.03,0.16,0.02,0.2,0.09c-0.02,0.09-0.1,0.12-0.18,0.15c-0.14,0.03-0.28,0.07-0.43,0.1c-0.2,0.05-0.41,0.09-0.62,0.14
			c-0.28,0.05-0.53,0.16-0.8,0.24C46.98,27.42,46.84,27.52,46.68,27.41z"/>
		<path class="st4" d="M49.55,26.57c0.32-0.05,0.63-0.09,0.96-0.07c0.03,0.04,0.02,0.08-0.03,0.11c-0.41,0.13-0.83,0.25-1.27,0.14
			c-0.03-0.18,0.06-0.24,0.25-0.18C49.49,26.58,49.52,26.58,49.55,26.57z"/>
		<path class="st22" d="M49.46,26.58c-0.12,0.01-0.21,0.05-0.26,0.15c-0.03,0.03-0.06,0.03-0.09,0c-0.06-0.03-0.11-0.05-0.17-0.08
			c-0.06-0.07-0.12-0.13-0.21-0.24C49.01,26.47,49.28,26.31,49.46,26.58z"/>
		<path class="st7" d="M47.9,27.04c0.2-0.05,0.4-0.1,0.61-0.15c0.27,0.16,0.51-0.03,0.76-0.05c1.74-0.17,3.48-0.03,5.21-0.07
			c0.75-0.02,1.5-0.01,2.25,0c0.23,0,0.46,0,0.67,0.11c0.1,0.05,0.03-0.05,0.06-0.07c0.15,0.02,0.32-0.05,0.44,0.08
			c-0.09,0.2-0.18,0.4-0.26,0.61c-0.24-0.07-0.48-0.04-0.73-0.04c-2.26-0.01-4.52,0.02-6.77-0.01c-0.44-0.01-0.89-0.01-1.34-0.01
			C48.44,27.44,48.06,27.41,47.9,27.04z"/>
		<path class="st8" d="M57.46,26.8c0.05,0.1,0.18,0.05,0.28,0.14c-0.35,0.07-0.66-0.07-0.97-0.07c-1.98,0.01-3.96,0-5.93,0.01
			c-0.48,0-0.96-0.19-1.43,0.06c-0.06,0.03-0.19-0.04-0.28-0.06c-0.1,0.05-0.17,0.05-0.17-0.08c0.07-0.01,0.13-0.01,0.17-0.08
			c0.03,0,0.06,0,0.09,0c0.43-0.05,0.87-0.1,1.3-0.16c0.19-0.12,0.42-0.11,0.64-0.11c0.25,0.02,0.5,0.14,0.75,0.04
			c0.57-0.17,1.16-0.03,1.74-0.08c0.23,0,0.46,0,0.7,0c0.46,0.03,0.93,0.05,1.39,0.08c0.24-0.06,0.48-0.08,0.7,0.07
			C56.77,26.62,57.14,26.63,57.46,26.8z"/>
		<path class="st21" d="M56.42,26.58c-0.23-0.02-0.46-0.05-0.7-0.07c0.26-0.11,0.57-0.2,0.11-0.46c-0.14-0.08-0.11-0.22,0.12-0.22
			c0.16,0,0.31,0,0.47,0c0,0.03,0,0.05,0,0.08c0.06,0.1,0.14,0.18,0.26,0.23c0.14,0,0.29,0,0.43,0c0.08-0.06,0.19-0.08,0.26-0.15
			c0.02-0.13,0.14-0.21,0.21-0.09c0.07,0.12,0.24,0.32,0.05,0.43c-0.15,0.09-0.29,0.3-0.58,0.15
			C56.86,26.36,56.62,26.48,56.42,26.58z"/>
		<path class="st25" d="M56.68,26.12c-0.19,0.02-0.28-0.06-0.26-0.23C56.53,25.94,56.62,26.02,56.68,26.12z"/>
		<path class="st25" d="M57.37,25.97c-0.01,0.15-0.13,0.15-0.26,0.15C57.16,26.02,57.25,25.97,57.37,25.97z"/>
		<path class="st35" d="M55.72,31.98c0,0.03,0,0.05,0,0.08c-0.15,0.45-0.49,0.58-1.01,0.58c-3.06-0.01-6.12-0.01-9.19-0.01
			c-0.33,0-0.63,0.02-0.94,0.18c-0.25,0.13-0.61,0.15-0.94,0.16c-0.17-0.2-0.07-0.49-0.26-0.69c-0.02-0.13,0.05-0.27-0.09-0.38
			c0-0.2,0-0.4,0-0.61c0.04-0.02,0.08-0.02,0.12,0c0.1,0.08,0.18,0.18,0.23,0.29c0.02,0.04,0.03,0.08,0.04,0.12
			c0.18,0.34,0.54,0.21,0.79,0.16c0.36-0.07,0.71-0.09,1.07-0.09c3.14,0,6.28,0,9.42,0C55.24,31.79,55.54,31.72,55.72,31.98z"/>
		<path class="st11" d="M43.38,31.29c-0.03,0-0.06,0-0.09,0c-0.22-0.2,0.09-0.41-0.01-0.61c0.02-0.1-0.03-0.22,0.09-0.31
			c0.01,0.06,0.02,0.12,0.09,0.15c0.17-0.13,0.37-0.12,0.58-0.12c3.81,0,7.62,0,11.43,0c0.28,0,0.55,0.04,0.78,0.19
			c0.11,0.22,0.03,0.38-0.22,0.47c-0.23,0.06-0.46,0.04-0.69,0.04c-2.88,0-5.76,0.03-8.64-0.01c-1-0.01-1.97,0.14-2.95,0.25
			C43.62,31.35,43.5,31.34,43.38,31.29z"/>
		<path class="st34" d="M29.65,32.2c-0.17,0.3-0.35,0.61-0.52,0.91c-0.15,0.12-0.35,0.11-0.53,0.11c-0.45,0-0.89,0-1.34,0
			c-0.26,0-0.5,0.02-0.72,0.19c-0.26,0.19-1.17,0.16-1.45-0.01c-0.39-0.24-0.9-0.25-1.27-0.01c-0.35,0.21-1.2,0.2-1.56-0.02
			c-0.35-0.22-0.79-0.24-1.1-0.05c-0.44,0.28-0.89,0.26-1.32,0.17c-0.42-0.09-0.82-0.08-1.23-0.07c-0.19-0.2,0.01-0.48-0.17-0.69
			c-0.04-0.59,0.07-1.16,0.09-1.75c0.23,0.03,0.19,0.2,0.2,0.32c0.05,0.49-0.05,0.98-0.11,1.52c0.08-0.21-0.02-0.38,0.09-0.55
			c0.55,0.17,1.13,0.11,1.7,0.11c2.67,0,5.35,0,8.02,0c0.3,0,0.61,0.03,0.85-0.19C29.39,32.11,29.53,32.13,29.65,32.2z"/>
		<path class="st29" d="M18.61,33.43c0.01-0.06,0.03-0.12,0.04-0.18c0.3,0.17,0.63-0.13,0.94,0.06c0.39,0.24,0.84,0.08,1.26,0.1
			c0.28-0.5,0.8-0.22,1.21-0.28c0.09-0.01,0.19-0.01,0.27,0.08c0.17,0.19,1.19,0.37,1.3,0.2c0.31-0.48,0.79-0.2,1.18-0.27
			c0.08-0.01,0.22,0,0.24,0.04c0.31,0.53,0.85,0.15,1.27,0.26c0.04,0.01,0.11-0.01,0.12-0.03c0.19-0.45,0.62-0.25,0.95-0.26
			c0.58-0.03,1.16-0.01,1.74-0.01c0.03,0.22-0.05,0.42-0.17,0.61c-0.1,0.14-0.22,0.23-0.43,0.17c-0.27-0.07-0.54-0.05-0.82-0.05
			c-2.47,0-4.94,0-7.42,0c-0.52,0-1.03,0.05-1.51,0.26c-0.06-0.08-0.11-0.15-0.17-0.23C18.61,33.73,18.61,33.58,18.61,33.43z"/>
		<path class="st48" d="M21.65,26.96c-0.03-0.32,0.31-0.46,0.46-0.69c0.03-0.05,0.08-0.07,0.14-0.05c0.08,0.02,0.08,0.09,0.09,0.15
			c0.03,0.13-0.09,0.32,0.18,0.36c0.02,0.11-0.08,0.13-0.16,0.17C22.13,26.93,21.91,27.1,21.65,26.96z"/>
		<path class="st44" d="M21.65,26.96c0.23-0.05,0.46-0.1,0.69-0.15c0.03,0.03,0.04,0.06,0.04,0.1c-0.03,0.08-0.1,0.11-0.18,0.14
			c-0.15,0.04-0.3,0.13-0.47,0.06c-0.03-0.02-0.06-0.05-0.09-0.07C21.65,27.01,21.65,26.99,21.65,26.96z"/>
		<path class="st34" d="M22.96,26.65c0.12,0,0.23,0,0.35,0c0.02,0.03,0.02,0.07,0,0.1c-0.03,0.02-0.07,0.04-0.1,0.06
			c-0.14,0.04-0.28,0.09-0.42,0.02c-0.03-0.03-0.03-0.06,0-0.1C22.82,26.67,22.89,26.66,22.96,26.65z"/>
		<path class="st32" d="M22.78,26.73c0,0.03,0,0.05,0,0.08c0.01,0.07-0.04,0.11-0.11,0.13c-0.12,0.03-0.23,0.02-0.33-0.06
			c0-0.03,0-0.05,0-0.08c0.07-0.01,0.14-0.02,0.17-0.08C22.61,26.73,22.7,26.73,22.78,26.73z"/>
		<path class="st26" d="M27.3,25.74c0.45,0.07,0.89-0.03,1.34,0c0.11,0.01,0.26-0.06,0.31,0.04c0.06,0.12-0.07,0.2-0.16,0.28
			c-0.12,0.1-0.21,0.2-0.19,0.36c-0.58,0.19-1.16,0.19-1.74,0c-0.14,0-0.29,0-0.43,0c-0.14,0-0.27-0.02-0.25-0.18
			c0.02-0.16,0.14-0.24,0.3-0.17c0.2,0.08,0.36-0.04,0.55-0.04C27.26,26.05,27.21,25.84,27.3,25.74z"/>
		<path class="st27" d="M26.87,26.43c0.58,0,1.16,0,1.74,0c0.81,0.08,1.62,0.15,2.43,0.23c0,0,0,0,0,0
			c-0.05,0.21-0.26,0.19-0.41,0.18c-1.25-0.05-2.51,0.11-3.74-0.02c-0.79-0.09-1.54-0.04-2.31,0.02c-0.18,0.01-0.38,0.04-0.5-0.14
			c0.32-0.23,0.72-0.13,1.08-0.22c0.22,0.01,0.45-0.04,0.67,0.03C26.17,26.47,26.53,26.58,26.87,26.43z"/>
		<path class="st12" d="M25.13,26.5c-0.34,0.11-0.7,0.1-1.04,0.15c-0.08,0.06-0.16,0.07-0.25,0.03c-0.04-0.03-0.04-0.07-0.01-0.1
			c0.16-0.09,0.34-0.08,0.52-0.08c0.2-0.02,0.41-0.05,0.61-0.07C25,26.48,25.09,26.45,25.13,26.5z"/>
		<path class="st20" d="M25.13,26.5c-0.07,0-0.14-0.01-0.18-0.08c0.29,0.03,0.59-0.08,0.87,0.07C25.59,26.5,25.36,26.5,25.13,26.5z"
			/>
		<path class="st44" d="M29.65,32.2c-0.09,0.01-0.23-0.01-0.25,0.03c-0.19,0.43-0.62,0.27-0.95,0.27c-3.07,0.01-6.13,0.01-9.2,0
			c-0.19,0-0.4,0.05-0.56-0.24c0,0.27,0,0.44,0,0.62c-0.03,0-0.05,0-0.08,0c0-0.5,0-1,0-1.49c0-0.13,0.06-0.28-0.08-0.4
			c0-0.06,0.01-0.12,0.08-0.16c0.03,0.03,0.06,0.05,0.09,0.08c0.04,0.03,0.07,0.06,0.09,0.1c0.16,0.35,0.14,0.7,0.04,1.06
			c0,0,0.14-0.24,0.14-0.24c0.21-0.06,0.43-0.05,0.65-0.05c3.12,0,6.25,0,9.37,0c0.26,0,0.53-0.04,0.75,0.12
			C29.68,32,29.64,32.09,29.65,32.2z"/>
		<path class="st20" d="M51.21,26.51c-0.24-0.04-0.46,0.07-0.7,0.07c0-0.02,0-0.05,0-0.07c0.18-0.15,0.41-0.05,0.61-0.08
			c0.15,0.02,0.31-0.05,0.43,0.07C51.43,26.56,51.32,26.55,51.21,26.51z"/>
		<path class="st49" d="M51.21,26.51c0.11,0,0.23,0,0.34-0.01c0.12,0,0.23,0,0.35,0C51.67,26.65,51.44,26.6,51.21,26.51z"/>
		<path class="st33" d="M54.42,35.02c-0.03,0.36-0.25,0.66-0.38,0.99c-0.1,0.28-0.42,0.3-0.73,0.3c-1.84,0-3.68,0-5.52-0.01
			c-0.41,0-0.67,0.11-0.77,0.46c-0.14-0.05-0.29-0.1-0.43-0.16c-0.32-0.25-0.64-0.51-0.96-0.76c-0.06-0.08-0.12-0.15-0.17-0.23
			c0.15-0.28,0.45-0.22,0.71-0.23c0.27-0.01,0.54,0,0.85-0.01c-0.24-0.05-0.46-0.02-0.67-0.02c-0.33-0.01-0.52-0.2-0.7-0.4
			c-0.13-0.14-0.04-0.26,0.13-0.33c0.2-0.08,0.42-0.1,0.64-0.1c2.47-0.01,4.94-0.01,7.42,0C54.34,34.53,54.37,34.57,54.42,35.02z"/>
		<path class="st35" d="M23.83,26.58c0,0.02,0,0.05,0,0.07c-0.15,0.13-0.32,0.2-0.52,0.08c0-0.02,0-0.05,0-0.07
			C23.46,26.52,23.65,26.6,23.83,26.58z"/>
		<path class="st31" d="M23.3,26.73c0.17-0.03,0.35-0.05,0.52-0.08c0.09,0,0.18,0,0.26,0c0.54,0.19,1.07-0.04,1.6-0.04
			c0.31,0,0.61-0.11,0.91,0.08c0.08,0.05,0.22,0.03,0.34,0.03c0.58,0,1.16,0.04,1.73-0.01c0.66-0.05,1.31,0.02,1.96,0.01
			c0.14,0,0.29,0.04,0.41-0.07c0.27,0.09,0.68-0.11,0.78,0.3c-0.06,0.05-0.11,0.11-0.17,0.16c-2.46,0.08-4.92,0.02-7.37,0.03
			c-0.22,0-0.44,0-0.64-0.08c-0.18-0.07-0.4-0.11-0.42-0.33C23.25,26.73,23.28,26.73,23.3,26.73z"/>
		<path class="st45" d="M54.42,35.02c-0.05-0.38-0.35-0.39-0.7-0.39c-2.39,0.01-4.78,0-7.16,0.01c-0.1,0-0.2-0.01-0.3,0
			c-0.21,0.02-0.43,0.02-0.58,0.17c-0.04,0.04,0.51,0.43,0.62,0.43c0.26,0,0.52,0,0.78,0c0.14,0,0.33-0.01,0.29,0.18
			c-0.03,0.17-0.19,0.09-0.31,0.09c-0.53,0.02-1.07-0.11-1.58,0.1c-0.09-0.08-0.17-0.15-0.26-0.23c-0.2-0.21-0.4-0.42-0.52-0.68
			c0.05-0.24,0.23-0.38,0.49-0.4c0.26-0.03,0.45-0.1,0.61-0.3c0.21-0.26,0.55-0.25,0.87-0.25c2.22,0,4.45,0,6.67,0
			c0.29,0,0.58-0.01,0.87,0.01c0.26,0.02,0.48,0.09,0.58,0.33C54.73,34.43,54.54,34.72,54.42,35.02z"/>
		<path class="st38" d="M43.64,32.97c0.23-0.07,0.35-0.47,0.71-0.18c0.06,0.05,0.2,0.02,0.22-0.06c0.05-0.29,0.3-0.22,0.5-0.22
			c3.2,0,6.39-0.01,9.59,0.01c0.48,0,0.84-0.07,1.06-0.47c-0.03,0.37-0.33,0.64-0.43,0.99c-0.3,0.38-0.72,0.43-1.21,0.43
			c-2.85-0.01-5.69-0.01-8.54-0.01c-0.19,0-0.39-0.04-0.56,0.02c-0.5,0.16-0.9,0.02-1.25-0.29c-0.03,0-0.06,0-0.08-0.01
			C43.64,33.12,43.64,33.04,43.64,32.97z"/>
		<path class="st37" d="M28.26,35.7c-2.23,0.16-4.47,0.04-6.7,0.07c-0.18,0-0.33,0.01-0.44,0.17c-0.16,0.23-0.37,0.4-0.7,0.17
			c-0.12-0.08-0.22-0.03-0.24,0.11c-0.06-0.03-0.12-0.05-0.17-0.08c-0.05-0.1-0.19-0.17-0.18-0.3c-0.12-0.23,0.05-0.32,0.24-0.39
			c0.19-0.07,0.39-0.08,0.59-0.08c-0.42-0.04-0.85-0.04-1.28-0.06c-0.06-0.05-0.11-0.1-0.17-0.16c-0.03-0.1-0.06-0.2-0.09-0.3
			c-0.08-0.09-0.11-0.21-0.16-0.31c-0.08-0.16-0.04-0.27,0.13-0.34c0.17-0.07,0.39-0.18,0.5,0.01c0.17,0.32,0.47,0.29,0.77,0.29
			c2.3,0,4.6,0,6.91,0c0.14,0,0.29,0,0.43,0c0.55,0.01,0.58,0.04,0.63,0.5C28.26,35.24,28.25,35.47,28.26,35.7z"/>
		<path class="st46" d="M28.35,35.02c-0.05-0.38-0.35-0.39-0.7-0.39c-2.53,0.01-5.05,0-7.58,0.01c-0.26,0-0.55,0.06-0.51-0.32
			c0.01-0.11-0.12-0.18-0.2-0.1c-0.1,0.11-0.45,0-0.35,0.28c0.04,0.12,0.08,0.24,0.12,0.36c-0.18-0.04-0.14-0.23-0.26-0.31
			c-0.03-0.15-0.06-0.3-0.09-0.45c0-0.25,0.13-0.37,0.41-0.27c0.29,0.11,0.47-0.12,0.74-0.12c2.76,0.02,5.53,0.02,8.29,0
			c0.25,0,0.49,0.26,0.74,0.01C28.75,34.16,28.55,34.59,28.35,35.02z"/>
		<path class="st30" d="M43.73,33.19c0.25-0.09,0.33,0.17,0.53,0.21c0.09,0.02,0.18,0.13,0.27,0.07c0.37-0.23,0.79-0.12,1.18-0.12
			c2.59-0.01,5.18,0,7.78-0.01c0.62,0,1.27,0.11,1.8-0.3c-0.13,0.37-0.32,0.72-0.52,1.06c-0.24-0.18-0.52-0.23-0.84-0.23
			c-2.45,0.01-4.91,0-7.36,0.01c-0.35,0-0.72-0.03-0.78,0.4c-0.01,0.09-0.14,0.14-0.24,0.12c-0.37-0.06-0.63,0.08-0.86,0.31
			c-0.09-0.08-0.17-0.15-0.26-0.23c-0.12-0.18-0.17-0.38-0.35-0.53C43.96,33.7,43.84,33.45,43.73,33.19z"/>
		<path class="st18" d="M39.82,27.34c0.2,0.18,0.28,0.4,0.26,0.66c-0.06,0.65,0.09,1.28,0.09,1.93c-0.07,0.07-0.18,0-0.25,0.07
			c-0.13-0.51-0.18-1.02-0.19-1.54c0-0.3,0.05-0.6-0.07-0.9C39.61,27.45,39.66,27.35,39.82,27.34z"/>
		<path class="st35" d="M39.91,29.99c0.06-0.09,0.16-0.06,0.25-0.07c0.07,0,0.14,0.01,0.17,0.07C40.2,30,40.06,29.99,39.91,29.99z"
			/>
		<path class="st11" d="M40.6,29.85c-0.14-0.06-0.18-0.15-0.17-0.28c0.02-0.7,0.03-1.39,0.04-2.09c0-0.14,0.08-0.14,0.18-0.14
			c0.16,0,0.32,0,0.47,0c-0.03,0.24,0,0.5-0.29,0.66c-0.1,0.05-0.05,0.19-0.05,0.29c0,0.4,0,0.81,0,1.21
			C40.77,29.64,40.78,29.78,40.6,29.85z"/>
		<path class="st45" d="M19.39,35.32c0.48-0.17,0.98-0.05,1.47-0.05c0.09,0,0.11,0.11,0.07,0.19c-0.06,0.12-0.18,0.07-0.3,0.06
			c-0.34-0.03-0.71-0.11-0.81,0.33C19.6,35.73,19.47,35.54,19.39,35.32z"/>
		<path class="st11" d="M18.7,30.99c0-0.03,0-0.05,0-0.08c0.04-0.39,0.14-0.77,0.26-1.14c0.06-0.06,0.11-0.16,0.22-0.04
			c0.02,0.06,0.02,0.13,0.01,0.19c-0.04,0.22,0.12,0.29,0.32,0.32c0.16,0.02,0.32,0.02,0.48,0.02c2.84,0,5.69,0,8.53,0
			c0.29,0,0.58,0,0.85-0.09c0.38-0.12,0.67,0.07,0.97,0.21c-0.02,0.23-0.2,0.4-0.26,0.61c-0.23,0.14-0.5,0.12-0.75,0.12
			c-2.97,0-5.93,0-8.9,0c-0.3,0-0.59,0-0.88,0.13C19.21,31.39,18.96,31.13,18.7,30.99z"/>
		<path class="st14" d="M19.65,28.55c0.15-0.34,0.47-0.55,0.78-0.76c0.25,0.3,0.62,0.34,1,0.34c3.05,0,6.09,0,9.14,0
			c0.24,0,0.48-0.1,0.73-0.03c-0.13,0.39-0.27,0.79-0.52,1.14c-0.05,0.02-0.1,0.01-0.14-0.03c-0.13-0.28-0.41-0.23-0.67-0.23
			c-1.55,0-3.1-0.01-4.65,0c-1.46,0.01-2.93-0.02-4.39,0.02C20.45,29.01,19.98,28.92,19.65,28.55z"/>
		<path class="st12" d="M30.34,30.38c-0.12,0.06-0.21,0.16-0.34-0.02c-0.12-0.18-0.38-0.19-0.54-0.11
			c-0.27,0.15-0.55,0.12-0.84,0.12c-2.98,0-5.96,0-8.94,0c-0.18,0-0.37,0.02-0.54-0.09c-0.23-0.15-0.27-0.29-0.01-0.44
			c0.17-0.24,0.45-0.2,0.7-0.2c2.05-0.01,4.1,0,6.15,0c1.27,0,2.54,0,3.81,0c0.29,0,0.58-0.01,0.81,0.2
			C30.52,30.02,30.43,30.2,30.34,30.38z"/>
		<path class="st50" d="M29.73,31.9c-3.62,0-7.24,0-10.86,0c-0.08-0.12-0.03-0.25-0.04-0.37c-0.02-0.16,0.08-0.24,0.25-0.25
			c0.56-0.02,1.1-0.12,1.67-0.12c2.65,0.02,5.29,0.01,7.94,0.01c0.42,0,0.85-0.01,1.13,0.35C29.79,31.65,29.76,31.77,29.73,31.9z"/>
		<path class="st15" d="M31.3,28.1c-0.23,0.13-0.48,0.16-0.74,0.16c-2.98-0.01-5.96,0-8.94,0c-0.24,0-0.49-0.03-0.73-0.04
			c-0.34-0.02-0.47-0.13-0.45-0.41c0.12-0.17,0.29-0.27,0.51-0.3c0.05-0.03,0.13-0.06,0.16-0.03c0.35,0.41,0.88,0.05,1.29,0.24
			c0.1,0.04,0.2-0.02,0.29-0.06c0.12-0.06,0.26-0.11,0.37-0.07c0.63,0.21,1.24-0.15,1.87-0.02c0.63,0.12,1.27,0.06,1.91,0.07
			c0.65,0.01,1.3,0,1.96,0c0.64,0,1.27-0.01,1.91,0c0.32,0.01,0.6-0.04,0.81-0.28c0.05-0.02,0.09-0.02,0.14,0
			C31.53,27.59,31.42,27.85,31.3,28.1z"/>
		<path class="st40" d="M31.65,27.34c-0.03,0-0.06,0-0.09,0c-0.29,0.16-0.61,0.19-0.95,0.19c-1.56-0.01-3.12,0-4.68-0.01
			c-0.63,0-1.27-0.07-1.9-0.09c-0.58-0.02-1.15,0.04-1.73,0.04c-0.29,0-0.57-0.06-0.86-0.08c-0.07-0.01-0.13-0.05-0.12-0.13
			c0.14-0.05,0.29-0.11,0.43-0.16c0.15-0.05,0.29-0.09,0.44-0.14c0.19,0.05,0.35,0.01,0.51-0.08c0.03-0.03,0.06-0.05,0.09-0.08
			c0.14-0.03,0.29-0.05,0.43-0.08c0.3,0.21,0.64,0.31,1.04,0.3c2.4-0.03,4.8,0.03,7.2-0.04c0.11,0,0.16,0.04,0.2,0.11
			C31.65,27.19,31.65,27.27,31.65,27.34z"/>
		<path class="st9" d="M29.82,31.52c-0.06,0.01-0.14,0.13-0.16,0.06c-0.1-0.33-0.42-0.28-0.66-0.28c-3.05-0.01-6.1-0.01-9.16,0
			c-0.26,0-0.52,0.03-0.77,0.08c-0.38,0.07-0.15,0.35-0.21,0.53c0,0.07,0,0.14,0,0.21c-0.1-0.37-0.05-0.76-0.17-1.13
			c0.23-0.15,0.33,0.1,0.49,0.15c0.17,0.05,0.27,0.13,0.39-0.05c0.11-0.17,0.31-0.1,0.47-0.1c3.34,0,6.69,0,10.03,0
			C29.96,31.15,30.03,31.39,29.82,31.52z"/>
		<path class="st21" d="M30.6,29.85c-0.41-0.1-0.83-0.08-1.25-0.08c-3.21,0-6.42,0-9.63,0c-0.2,0-0.41-0.03-0.59,0.08
			c0-0.05,0-0.1,0-0.15c-0.06-0.09-0.06-0.18,0.02-0.27c0.12-0.12,0.28-0.11,0.44-0.1c3.53,0.04,7.05,0.03,10.58,0
			c0.27,0,0.45,0.05,0.52,0.29C30.66,29.7,30.63,29.77,30.6,29.85z"/>
		<path class="st19" d="M30.69,29.62c-0.12-0.12-0.21-0.27-0.46-0.17c-0.09,0.04-0.23,0.01-0.34,0.01c-3.29,0-6.58,0-9.87,0.01
			c-0.3,0-0.59-0.14-0.89-0.01c-0.02-0.02-0.03-0.03-0.02-0.05c0.01-0.02,0.02-0.03,0.02-0.03c0.06-0.1,0.11-0.2,0.17-0.31
			c0.12-0.05,0.22-0.11,0.36-0.09c1.28,0.12,2.57,0.04,3.85,0.05c2.12,0.01,4.25,0,6.37,0.01c0.28,0,0.59-0.03,0.8,0.19
			c0.03,0,0.06,0,0.09,0C30.75,29.37,30.72,29.49,30.69,29.62z"/>
		<path class="st20" d="M56.24,30.61c-0.05,0.03-0.09,0.05-0.14,0.08c-0.13-0.25-0.39-0.15-0.6-0.15c-4.01,0-8.03,0-12.04,0
			c0.03-0.43,0.21-0.81,0.52-1.14c0.08,0.01,0.15,0.05,0.2,0.11c0.16,0.13,0.36,0.15,0.56,0.15c3.71,0.01,7.41,0,11.12,0
			c0.12,0,0.23,0,0.35-0.03c0.31-0.07,0.39,0.06,0.38,0.3c-0.09,0.23-0.18,0.45-0.26,0.68C56.3,30.64,56.27,30.64,56.24,30.61z"/>
		<path class="st5" d="M43.55,31.29c0.1-0.11,0.24-0.07,0.36-0.08c0.27-0.02,0.57,0.09,0.78-0.19c0.05-0.06,0.27-0.03,0.41-0.03
			c3.65,0,7.31,0,10.96,0c0.1,0.1,0.07,0.2,0,0.3c-0.03,0.03-0.06,0.05-0.09,0.08c-0.1,0.11-0.06,0.32-0.3,0.34
			c-1.16,0.03-2.32,0.01-3.47,0.01c-2.26,0-4.52,0-6.78,0c-0.35,0-0.7,0.01-1.01-0.15c-0.13-0.07-0.28-0.04-0.42,0.01
			c-0.15,0.06-0.29,0.12-0.45,0.02c0-0.03,0-0.05,0-0.08C43.49,31.44,43.48,31.37,43.55,31.29z"/>
		<path class="st16" d="M44.68,28.63c0.06-0.07,0.12-0.15,0.18-0.22c0.2-0.13,0.41-0.25,0.61-0.38c0.53,0.27,1.13,0.17,1.69,0.17
			c3.08,0.02,6.16,0.01,9.24,0.01c0.3,0,0.61-0.03,0.89,0.12c-0.09,0.2-0.17,0.4-0.26,0.61c-2.97,0.06-5.94,0.03-8.92,0.05
			c-0.9,0.01-1.81-0.07-2.71-0.03C45.15,28.97,44.72,29.06,44.68,28.63z"/>
		<path class="st26" d="M44.68,28.63c0.27,0.26,0.82,0.31,1.05,0.1c0.07-0.06,0.16-0.12,0.2-0.05c0.16,0.29,0.45,0.18,0.68,0.18
			c2.83,0.01,5.66,0,8.49,0.01c0.49,0,0.97-0.12,1.46-0.09c0.18,0.01,0.34,0.03,0.46,0.16c-0.03,0.08-0.06,0.15-0.09,0.23
			c-0.15,0.17-0.37,0.18-0.59,0.18c-3.28,0-6.57,0-9.85,0c-0.16,0-0.32-0.02-0.47-0.06c-0.42-0.02-0.85,0.01-1.27-0.02
			c-0.18-0.01-0.41,0.05-0.5-0.18c0-0.02,0-0.05,0-0.07C44.36,28.86,44.51,28.73,44.68,28.63z"/>
		<path class="st10" d="M47.9,27.04c0.36,0.28,0.78,0.29,1.25,0.28c1.3-0.02,2.6,0.01,3.91,0.02c1.42,0,2.84,0.01,4.25-0.01
			c0.2,0,0.23,0.09,0.32,0.17c-0.03,0.08-0.06,0.15-0.09,0.23c-0.17,0.13-0.38,0.11-0.58,0.11c-1.62,0-3.25,0.04-4.86-0.01
			c-1-0.04-1.99-0.04-2.99-0.04c-0.24,0-0.46,0.02-0.64,0.18c-0.11,0.07-0.23,0.08-0.35,0.04c-0.3-0.26-0.74-0.15-1.08-0.33
			c-0.08-0.03-0.15-0.06-0.23-0.09c-0.07-0.04-0.16-0.06-0.13-0.16c0,0-0.01-0.01-0.01-0.01C47.09,27.29,47.5,27.16,47.9,27.04z"/>
		<path class="st50" d="M43.55,31.6c0.16,0.02,0.27-0.05,0.38-0.14c0.17-0.13,0.42-0.16,0.55-0.03c0.2,0.2,0.43,0.17,0.67,0.17
			c3.35,0,6.7,0,10.05,0c0.2,0,0.41-0.03,0.59,0.08c0.02,0.02,0.03,0.03,0.02,0.05c-0.01,0.02-0.01,0.03-0.02,0.03
			c-0.1,0.05-0.08,0.14-0.09,0.23c-0.16-0.08-0.33-0.08-0.5-0.08c-3.38,0-6.76,0-10.15,0c-0.2,0-0.41-0.04-0.54,0.15
			c-0.05,0.08-0.15,0.06-0.23,0.01c-0.08-0.06-0.19-0.11-0.28-0.07C43.41,32.28,43.59,31.84,43.55,31.6z"/>
		<path class="st21" d="M56.59,29.92c-0.1-0.09-0.1-0.31-0.35-0.16c-0.06,0.04-0.17,0.01-0.26,0.01c-3.7,0-7.4,0-11.11,0
			c-0.22,0-0.43-0.04-0.64-0.08c-0.16-0.03-0.16-0.12-0.16-0.23c0.3-0.17,0.65-0.11,0.97-0.11c3.68,0.02,7.36,0,11.04,0.01
			c0.24,0,0.5-0.02,0.68,0.18C56.73,29.68,56.7,29.82,56.59,29.92z"/>
		<path class="st22" d="M48.07,27.95c0.12,0,0.23,0,0.35,0c0.12-0.06,0.25-0.05,0.38-0.05c2.56,0.01,5.12,0,7.68,0
			c0.3,0,0.61,0,0.89,0.12c0.01,0.11-0.03,0.21-0.1,0.3c-0.52,0-1.03,0-1.55,0c-2.9,0-5.81-0.01-8.71,0.01c-0.4,0-0.8-0.2-1.22,0.03
			c-0.1,0.05-0.3-0.15-0.33-0.33c0.14-0.08,0.29-0.16,0.43-0.24C46.62,27.89,47.35,27.89,48.07,27.95z"/>
		<path class="st15" d="M57.38,28.02c-0.22,0.16-0.44-0.01-0.66-0.01c-2.58,0.02-5.16,0.01-7.75,0.01c-0.19,0-0.38,0.02-0.55-0.08
			c-0.01-0.27,0.21-0.32,0.44-0.3c0.56,0.07,1.11-0.03,1.67-0.01c2.34,0.12,4.68,0.06,7.02,0.07
			C57.53,27.84,57.48,27.94,57.38,28.02z"/>
		<path class="st19" d="M56.76,29.54c-0.33-0.06-0.65-0.08-0.99-0.08c-3.54,0-7.09,0-10.63,0c-0.36,0-0.71,0.06-1.07,0
			c-0.03-0.03-0.06-0.05-0.09-0.08c0.01-0.15,0.13-0.23,0.26-0.3c0.57,0.13,1.16,0.06,1.74,0.08c0.16,0.14,0.37,0.11,0.57,0.11
			c3.3,0,6.61,0,9.91,0c0.13,0,0.26-0.04,0.38,0.04C56.82,29.39,56.79,29.47,56.76,29.54z"/>
		<path class="st19" d="M56.85,29.32c-3.47,0-6.93,0-10.4,0c-0.16,0-0.4,0.1-0.47-0.15c0.24,0.07,0.48,0.08,0.73,0.08
			c3.15,0,6.31,0,9.46,0c0.26,0,0.52-0.01,0.77-0.08C56.94,29.23,56.92,29.28,56.85,29.32z"/>
		<path class="st32" d="M56.07,31.29c0-0.1,0-0.2,0-0.3c0.14-0.1,0.18-0.23,0.17-0.38c0.03,0,0.06,0,0.08,0
			C56.54,30.92,56.29,31.1,56.07,31.29z"/>
		<path class="st4" d="M61.63,31.6c0,0.1,0,0.2,0,0.31c-0.04,0.2,0.08,0.42-0.08,0.61c0-0.3,0-0.61,0-0.91
			C61.57,31.6,61.6,31.6,61.63,31.6z"/>
		<path class="st35" d="M55.81,31.75c0-0.03,0-0.05,0-0.08c0.01-0.12,0.06-0.23,0.17-0.3C55.99,31.52,55.95,31.65,55.81,31.75z"/>
		<path class="st26" d="M30.69,29.24c-0.24-0.07-0.48-0.08-0.72-0.08c-3.25,0-6.5,0-9.75,0c-0.31,0-0.61-0.05-0.92-0.08
			c0.07-0.2,0.13-0.4,0.35-0.53c0.32-0.09,0.4,0.27,0.69,0.28c0.34,0.02,0.68,0.03,1.02,0.03c2.97-0.01,5.94,0,8.91-0.01
			C30.61,28.85,30.74,28.95,30.69,29.24z"/>
		<path class="st10" d="M21.31,27.27c0.56,0.16,1.15,0.09,1.72,0.07c0.8-0.03,1.6-0.02,2.4,0.06c0.19,0.02,0.38,0.01,0.56,0.01
			c1.61,0,3.21,0,4.82,0c0.2,0,0.44,0.07,0.59-0.15c0.04-0.06,0.1,0.06,0.16,0.07c-0.1,0.32-0.35,0.39-0.72,0.39
			c-1.72-0.02-3.44-0.01-5.16-0.01c-0.53,0-1.06-0.07-1.59-0.09c-0.34-0.02-0.3,0.34-0.55,0.31c-0.19-0.02-0.17-0.4-0.5-0.26
			c-0.03,0.01-0.11-0.03-0.12-0.01c-0.28,0.29-0.65,0.03-0.91,0.1c-0.44,0.12-0.72,0.13-0.94-0.24c-0.01-0.02-0.08-0.02-0.12-0.02
			C21.02,27.36,21.18,27.32,21.31,27.27z"/>
		<path class="st12" d="M19.13,29.39c0,0.03,0,0.05,0,0.08c0,0.08,0,0.15,0,0.23c-0.06,0.03-0.12,0.05-0.17,0.08
			C19,29.64,19.02,29.5,19.13,29.39z"/>
		<path class="st48" d="M48.07,27.95c-0.74,0.1-1.47,0.14-2.17-0.15c0.22-0.19,0.55-0.21,0.79-0.37c0.04,0.06,0.1,0.07,0.17,0.07
			c0.05,0.04,0.06,0.15,0.17,0.08c0.24,0.09,0.48,0.17,0.75,0.15C47.97,27.7,48.09,27.76,48.07,27.95z"/>
		<path class="st28" d="M48.94,26.81c0.04,0.06,0.1,0.07,0.17,0.08c-0.2,0.3-0.4,0.15-0.61,0.01C48.65,26.86,48.8,26.83,48.94,26.81
			z"/>
		<path class="st50" d="M43.55,31.29c0,0.08,0,0.15,0,0.23c-0.12-0.04-0.17-0.12-0.17-0.23C43.44,31.21,43.5,31.29,43.55,31.29z"/>
		<path class="st31" d="M22.69,26.89c-0.13,0.26-0.32,0.15-0.51,0.08c0.06-0.03,0.11-0.05,0.17-0.08
			C22.46,26.89,22.58,26.89,22.69,26.89z"/>
		<path class="st22" d="M47.03,27.57c-0.02,0.05-0.01,0.14-0.11,0.11c-0.09-0.03-0.06-0.12-0.07-0.19
			C46.91,27.52,46.97,27.54,47.03,27.57z"/>
	</g>
</g>
<g id="Capa_6">
	<path class="st51" d="M22.04,44.68c12.08,0,24.16,0,36.24,0c-0.77,9.79-9.15,17.25-18.69,16.96
		C30.47,61.36,22.78,54.04,22.04,44.68z"/>
</g>
</svg>
